<svg width="194" height="52" viewBox="0 0 194 52" fill="none" xmlns="http://www.w3.org/2000/svg">
<g clip-path="url(#clip0)">
<path fill-rule="evenodd" clip-rule="evenodd" d="M48.3693 25.5319L28.9385 29.8201L24.7701 49.8484L20.6099 29.8201L1.17914 25.5319L20.6099 21.2438L24.7701 1.2154L28.9385 21.2438L48.3693 25.5319Z" fill="#000F9F"/>
<path fill-rule="evenodd" clip-rule="evenodd" d="M24.77 40.1253L22.0048 28.3821L10.6121 25.5319L22.0048 22.6817L24.77 10.9386L27.5434 22.6817L38.9279 25.5319L27.5434 28.3821L24.77 40.1253Z" fill="#ED1C24"/>
<path fill-rule="evenodd" clip-rule="evenodd" d="M25 1.18988C11.8505 1.18988 1.19008 11.8569 1.19008 24.9958C1.19008 38.1347 11.8505 48.8017 25 48.8017C38.1495 48.8017 48.8099 38.1347 48.8099 24.9958C48.8099 11.8569 38.1579 1.18988 25 1.18988ZM25 0C38.8116 0 50 11.1949 50 24.9958C50 38.8051 38.8116 50 25 50C11.1968 50 0 38.8051 0 24.9958C0 11.1949 11.1968 0 25 0Z" fill="#000F9F"/>
<path fill-rule="evenodd" clip-rule="evenodd" d="M24.77 31.6089L23.3916 26.9613L18.8744 25.5319L23.3916 24.1025L24.77 19.4549L26.1568 24.1025L30.674 25.5319L26.1568 26.9613L24.77 31.6089Z" fill="#FFF200"/>
<path d="M95.1276 8.71321H100.226L106.097 17.9828L105.906 14.1996V8.70465H111.112V25.7202H105.997L100.143 16.4507L100.326 20.3194V25.7202H95.1359V8.71321H95.1276ZM76.2532 8.71321H81.7337L84.64 20.0198L87.6293 8.71321H93.0932L87.3719 25.7288H81.9163L76.2532 8.71321ZM60.9577 8.71321H74.4181V12.6761H66.38V15.1326H73.1559V19.0954H66.38V21.7659H74.7336V25.7288H60.9577V8.71321Z" fill="#000F9F"/>
<path d="M164.456 15.2267H159.332C159.407 14.3451 159.232 13.6604 158.809 13.1725C158.377 12.6846 157.738 12.445 156.883 12.445C154.865 12.445 153.569 14.0969 152.996 17.4007C152.872 18.0769 152.814 18.6589 152.814 19.1382C152.814 21.0555 153.702 22.0227 155.471 22.0227C157.073 22.0227 158.153 21.064 158.718 19.1382H163.916C163.301 21.3294 162.189 23.0412 160.561 24.2908C158.934 25.5405 157.032 26.1653 154.848 26.1653C152.49 26.1653 150.671 25.5576 149.384 24.3422C148.097 23.1268 147.449 21.4406 147.449 19.2837C147.449 18.6247 147.516 17.9314 147.64 17.2124C148.097 14.5163 149.268 12.3508 151.145 10.6989C152.947 9.09836 155.022 8.2938 157.372 8.2938C159.706 8.2938 161.474 8.83303 162.679 9.90292C163.891 10.9643 164.489 12.4963 164.489 14.4735C164.489 14.7303 164.472 14.9785 164.456 15.2267ZM135.849 25.7288H130.443L133.35 8.73888H141.288C143.339 8.73888 144.884 9.14116 145.938 9.96284C146.943 10.7332 147.449 11.8458 147.449 13.2838C147.449 13.6604 147.408 14.0541 147.333 14.4649C146.661 18.4449 144.037 20.4307 139.453 20.4307H136.729L135.849 25.7288ZM137.427 16.4763H139.669C141.114 16.4763 141.961 15.8173 142.185 14.4992C142.202 14.3879 142.218 14.2766 142.218 14.1739C142.218 13.1982 141.346 12.7103 139.602 12.7103H138.075L137.427 16.4763ZM129.987 13.6775H124.863C124.88 13.1468 124.681 12.7617 124.29 12.522C123.95 12.3252 123.501 12.2224 122.937 12.2224C121.799 12.2224 121.168 12.5391 121.06 13.1896C120.952 13.8145 121.608 14.3366 123.028 14.7474C125.32 15.4064 126.682 15.8515 127.13 16.0655C128.642 16.8358 129.397 17.9571 129.397 19.4378C129.397 19.7288 129.364 20.0198 129.298 20.3365C128.957 22.2366 127.994 23.7088 126.391 24.7445C124.88 25.7117 122.945 26.1824 120.595 26.1824C118.644 26.1824 117.083 25.7031 115.904 24.7188C114.774 23.7944 114.21 22.6132 114.21 21.1839C114.21 20.9528 114.226 20.7217 114.251 20.4991H119.424C119.441 21.0983 119.657 21.5434 120.064 21.8258C120.479 22.1168 120.977 22.2623 121.558 22.2623C123.053 22.2623 123.867 21.8515 124.008 21.0212C124.116 20.3879 123.46 19.8743 122.04 19.4806C119.798 18.8558 118.428 18.4107 117.946 18.1625C116.452 17.3922 115.704 16.2452 115.704 14.7132C115.704 14.3965 115.737 14.0712 115.796 13.7289C116.103 11.9828 117.008 10.6305 118.519 9.67183C119.939 8.756 121.716 8.30236 123.85 8.30236C126.018 8.30236 127.628 8.83303 128.683 9.87725C129.613 10.8016 130.053 12.0684 129.987 13.6775Z" fill="#ED1C24"/>
<path d="M193.037 36.5304L191.933 43.0182H189.524L189.574 41.8628C188.628 42.8214 187.399 43.3007 185.904 43.3007C184.551 43.3007 183.463 42.9241 182.641 42.1623C181.727 41.3406 181.279 40.1766 181.279 38.6788C181.279 38.2251 181.329 37.7629 181.403 37.2751C181.719 35.3835 182.516 33.86 183.795 32.6959C185.074 31.5319 186.618 30.9499 188.445 30.9499C189.857 30.9499 190.986 31.3179 191.816 32.0454C192.68 32.8157 193.103 33.9028 193.095 35.2979H189.549C189.45 34.3136 188.902 33.8172 187.889 33.8172C187.175 33.8172 186.577 34.1253 186.112 34.7416C185.647 35.3578 185.323 36.1966 185.14 37.2665C185.074 37.6431 185.04 37.994 185.04 38.3107C185.04 39.7401 185.696 40.4505 186.992 40.4505C187.39 40.4505 187.814 40.3221 188.246 40.0653C188.677 39.8086 188.968 39.4919 189.134 39.0982H187.49L187.93 36.5561H193.037V36.5304ZM173.224 31.2409L176.197 37.6517L176.513 34.9726L177.144 31.2409H180.723L178.713 42.984H175.217L172.244 36.5903L171.929 39.2693L171.298 42.9926H167.719L169.728 31.2494H173.224V31.2409ZM158.145 42.9926H154.491L160.586 31.2494H164.389L166.465 42.9926H162.745L162.571 41.4434H158.85L158.145 42.9926ZM162.321 38.9954L161.848 34.7843L159.963 38.9954H162.321ZM153.088 42.9926H149.351L151.36 31.2494H155.105L153.088 42.9926ZM148.205 36.5304L147.092 43.0182H144.693L144.742 41.8628C143.796 42.8214 142.567 43.3007 141.064 43.3007C139.719 43.3007 138.623 42.9241 137.8 42.1623C136.895 41.3406 136.447 40.1766 136.447 38.6788C136.447 38.2251 136.489 37.7629 136.572 37.2751C136.887 35.3835 137.684 33.86 138.963 32.6959C140.233 31.5319 141.786 30.9499 143.621 30.9499C145.033 30.9499 146.154 31.3179 146.993 32.0454C147.856 32.8157 148.28 33.9028 148.271 35.2979H144.726C144.626 34.3136 144.086 33.8172 143.065 33.8172C142.343 33.8172 141.753 34.1253 141.288 34.7416C140.823 35.3578 140.491 36.1966 140.308 37.2665C140.25 37.6431 140.217 37.994 140.217 38.3107C140.217 39.7401 140.865 40.4505 142.168 40.4505C142.567 40.4505 142.99 40.3221 143.422 40.0653C143.846 39.8086 144.145 39.4919 144.302 39.0982H142.658L143.098 36.5561H148.205V36.5304ZM124.357 31.2409L127.329 37.6517L127.645 34.9726L128.276 31.2409H131.855L129.846 42.984H126.35L123.377 36.5903L123.061 39.2693L122.43 42.9926H118.851L120.861 31.2494H124.357V31.2409ZM117.049 42.9926H107.533L109.543 31.2494H118.835L118.353 33.9883H112.798L112.507 35.6745H117.207L116.751 38.4134H112.051L111.735 40.2622H117.514L117.049 42.9926ZM105.117 42.9926H101.372L103.381 31.2494H107.118L105.117 42.9926ZM88.1774 42.9926L90.1869 31.2494H93.9235L93.2758 35.0497L97.2035 31.2494H101.588L96.6638 35.6659L100.018 42.9926H95.5345L93.608 38.3107L92.5534 39.2693L91.9223 42.9926H88.1774ZM83.6352 35.7259H80.0895C80.1393 35.1182 80.0231 34.6474 79.7241 34.305C79.4252 33.9712 78.9851 33.8 78.3955 33.8C77.0005 33.8 76.1037 34.947 75.7051 37.2323C75.6138 37.6945 75.5723 38.0967 75.5723 38.4391C75.5723 39.7658 76.1868 40.4248 77.4157 40.4248C78.5201 40.4248 79.2674 39.7658 79.6577 38.4391H83.2532C82.8297 39.9541 82.0575 41.1352 80.9365 41.9997C79.8155 42.8642 78.4952 43.2921 76.9922 43.2921C75.3647 43.2921 74.1025 42.8727 73.214 42.0254C72.3255 41.178 71.8771 40.014 71.8771 38.5247C71.8771 38.0711 71.9186 37.5917 72.0017 37.0868C72.3172 35.2294 73.1227 33.723 74.4264 32.5846C75.6719 31.472 77.1085 30.9242 78.7277 30.9242C80.3386 30.9242 81.5593 31.2922 82.3979 32.0369C83.2366 32.7729 83.6518 33.8257 83.6518 35.1952C83.6518 35.3835 83.6518 35.5547 83.6352 35.7259ZM63.8557 42.9926H60.119L62.1285 31.2494H67.6173C69.0289 31.2494 70.1001 31.5319 70.8308 32.0968C71.5284 32.6274 71.8688 33.3978 71.8688 34.3992C71.8688 34.6645 71.8439 34.9299 71.7941 35.2123C71.3291 37.9598 69.5105 39.3464 66.3468 39.3464H64.4702L63.8557 42.9926ZM64.9518 36.5903H66.5046C67.5093 36.5903 68.0906 36.1367 68.2484 35.2209C68.265 35.1438 68.265 35.0668 68.265 34.9983C68.265 34.3222 67.6588 33.9798 66.4548 33.9798H65.3919L64.9518 36.5903Z" fill="#000F9F"/>
</g>
<defs>
<clipPath id="clip0">
<rect width="193.103" height="51.0724" fill="white"/>
</clipPath>
</defs>
</svg>
