<svg width="169" height="50" viewBox="0 0 169 50" fill="none" xmlns="http://www.w3.org/2000/svg">
<g clip-path="url(#clip0)">
<path fill-rule="evenodd" clip-rule="evenodd" d="M48.7719 24.9999L29.1751 29.196L24.9821 48.8074L20.7891 29.196L1.19238 24.9999L20.7891 20.8038L24.9821 1.1925L29.1751 20.8038L48.7719 24.9999Z" fill="#000F9F"/>
<path fill-rule="evenodd" clip-rule="evenodd" d="M24.982 39.311L22.2014 27.7827L10.6816 25.0001L22.2014 22.2174L24.982 10.7333L27.7626 22.2174L39.2823 25.0001L27.7626 27.7827L24.982 39.311Z" fill="#ED1C24"/>
<path fill-rule="evenodd" clip-rule="evenodd" d="M24.9815 1.19258C20.2763 1.19258 15.6768 2.58886 11.7646 5.20485C7.85237 7.82085 4.80317 11.5391 3.00258 15.8893C1.20199 20.2395 0.730875 25.0264 1.64881 29.6446C2.56674 34.2628 4.8325 38.5049 8.15956 41.8344C11.4866 45.1639 15.7255 47.4314 20.3403 48.35C24.9551 49.2686 29.7384 48.7971 34.0854 46.9952C38.4324 45.1933 42.1479 42.1418 44.7619 38.2267C47.376 34.3116 48.7712 29.7087 48.7712 25C48.7712 21.8736 48.1559 18.7777 46.9603 15.8893C45.7648 13.0008 44.0124 10.3763 41.8034 8.16561C39.5943 5.95489 36.9717 4.20125 34.0854 3.00481C31.1991 1.80838 28.1056 1.19258 24.9815 1.19258ZM24.9815 0C29.9223 0 34.7522 1.46622 38.8604 4.21326C42.9686 6.9603 46.1705 10.8648 48.0613 15.4329C49.9521 20.0011 50.4468 25.0277 49.4829 29.8773C48.519 34.7268 46.1397 39.1814 42.646 42.6777C39.1523 46.174 34.701 48.555 29.8551 49.5196C25.0092 50.4843 19.9862 49.9892 15.4215 48.097C10.8567 46.2048 6.95513 43.0005 4.21013 38.8893C1.46514 34.778 0 29.9445 0 25C0 18.3696 2.63197 12.0107 7.3169 7.32233C12.0018 2.63392 18.356 0 24.9815 0" fill="#000F9F"/>
<path fill-rule="evenodd" clip-rule="evenodd" d="M24.9809 30.9629L23.5686 26.4134L19.0225 25L23.5686 23.5866L24.9809 19.0371L26.3933 23.5866L30.9394 25L26.3933 26.4134L24.9809 30.9629Z" fill="#FFF200"/>
<path d="M95.9533 8.52466H101.117L107.032 17.6678L106.811 13.9575V8.52466H112.063V25.2208H106.899L101.029 16.1218V19.9204V25.2208H95.9533V8.52466ZM76.9303 8.52466H82.4474L85.3605 19.6112L88.2735 8.52466H93.7465L88.2735 25.2208H82.624L76.9303 8.52466ZM61.4824 8.52466H75.0324V12.4116H66.9554V14.8409H73.7966V18.6837H66.9554V21.3338H75.3855V25.2208H61.4824V8.52466Z" fill="#000F9F"/>
<path d="M165.866 14.9293H160.702C160.768 14.5725 160.755 14.2055 160.663 13.8544C160.572 13.5032 160.404 13.1766 160.172 12.8975C159.92 12.644 159.616 12.4492 159.28 12.327C158.944 12.2049 158.586 12.1584 158.23 12.1908C156.2 12.1908 154.92 13.8251 154.302 17.0495C154.27 17.6085 154.27 18.1689 154.302 18.7279C154.302 20.6272 155.185 21.5548 156.994 21.5548C157.784 21.5439 158.545 21.2543 159.142 20.7372C159.74 20.2201 160.136 19.5085 160.261 18.7279H165.513C164.977 20.7524 163.78 22.54 162.114 23.8074C160.459 25.0389 158.438 25.6768 156.376 25.6184C154.379 25.7587 152.404 25.1263 150.859 23.8516C150.196 23.2177 149.678 22.4468 149.343 21.5925C149.008 20.7381 148.862 19.8209 148.917 18.9046C148.854 18.2288 148.854 17.5485 148.917 16.8728C149.283 14.3812 150.537 12.1061 152.448 10.4682C154.228 8.90777 156.527 8.07236 158.892 8.12719C160.82 7.98782 162.733 8.55276 164.277 9.7173C164.887 10.2731 165.366 10.9578 165.679 11.7217C165.992 12.4857 166.131 13.3098 166.087 14.1343C166.108 14.3841 166.108 14.6353 166.087 14.8851L165.866 14.9293ZM137.045 25.2208H131.572L134.485 8.56889H142.517C144.165 8.45277 145.805 8.87097 147.196 9.76147C147.735 10.1581 148.161 10.6886 148.432 11.3007C148.703 11.9127 148.809 12.585 148.741 13.2509C148.782 13.6326 148.782 14.0176 148.741 14.3993C148.093 18.2862 145.445 20.2297 140.796 20.2297H138.06L137.045 25.2208ZM138.633 16.1219H140.884C141.178 16.1652 141.477 16.1489 141.764 16.0739C142.051 15.9989 142.32 15.8667 142.555 15.6853C142.79 15.5039 142.986 15.2769 143.131 15.018C143.276 14.7591 143.368 14.4735 143.4 14.1784C143.425 14.0768 143.425 13.9709 143.4 13.8692C143.4 12.8975 142.517 12.4558 140.752 12.4558H139.207L138.633 16.1219ZM131.13 13.2509H125.922C125.955 13.0298 125.917 12.8039 125.814 12.6056C125.711 12.4073 125.548 12.2466 125.348 12.1466C124.933 11.9111 124.457 11.8035 123.98 11.8374C122.832 11.8374 122.215 12.1466 122.126 12.765C122.126 13.3834 122.656 13.9134 124.112 14.3109C125.508 14.6449 126.879 15.0729 128.217 15.5919C128.892 15.844 129.473 16.2965 129.883 16.8886C130.293 17.4807 130.513 18.1841 130.512 18.9046C130.532 19.1987 130.532 19.4938 130.512 19.788C130.379 20.6979 130.044 21.5666 129.532 22.3307C129.021 23.0948 128.345 23.7351 127.555 24.2049C125.791 25.23 123.767 25.721 121.729 25.6184C120.038 25.7185 118.365 25.2179 117.006 24.2049C116.478 23.798 116.049 23.2767 115.751 22.68C115.453 22.0833 115.293 21.4268 115.285 20.7597C115.262 20.5247 115.262 20.288 115.285 20.053H120.493C120.495 20.3098 120.555 20.5629 120.67 20.7926C120.785 21.0223 120.951 21.2226 121.155 21.3781C121.602 21.6683 122.123 21.8218 122.656 21.8198C124.157 21.8198 124.995 21.3781 125.128 20.583C125.26 19.788 124.554 19.4788 123.141 19.0813C120.89 18.4629 119.522 18.0212 118.993 17.8003C118.323 17.5203 117.751 17.0476 117.351 16.4421C116.95 15.8366 116.738 15.1256 116.742 14.3993C116.722 14.0757 116.722 13.7512 116.742 13.4275C116.89 12.603 117.215 11.8205 117.695 11.1341C118.175 10.4478 118.799 9.87393 119.522 9.45228C121.143 8.51825 122.994 8.05909 124.863 8.12719C126.634 7.98607 128.392 8.54051 129.762 9.67313C130.232 10.1632 130.592 10.7471 130.821 11.3865C131.049 12.0259 131.139 12.7065 131.086 13.3834" fill="#ED1C24"/>
<path d="M161.408 30.6095L164.409 36.8816L164.762 34.2756L165.38 30.6095H169L166.969 42.0936H163.306L160.305 35.8216L159.996 38.4717L159.334 42.0936H155.758L157.745 30.6095H161.408ZM146.225 42.0936H142.517L148.652 30.6095H152.492L154.479 42.0936H150.727V40.5919H146.975L146.225 42.0936ZM150.418 38.2067L150.065 34.0548L148.167 38.2067H150.418ZM138.324 35.7774L137.221 42.1378H134.793V40.9894C134.299 41.458 133.717 41.8241 133.081 42.0666C132.445 42.3092 131.767 42.4235 131.086 42.4028C129.953 42.4457 128.846 42.0503 127.996 41.2986C127.525 40.8619 127.154 40.3273 126.91 39.7322C126.666 39.1371 126.555 38.4959 126.584 37.8534C126.543 37.3979 126.543 36.9396 126.584 36.4841C126.846 34.7709 127.706 33.2061 129.012 32.0671C130.294 30.9168 131.968 30.3006 133.69 30.3445C134.913 30.2797 136.119 30.6558 137.089 31.4046C137.536 31.7993 137.888 32.2908 138.117 32.8418C138.347 33.3928 138.448 33.9889 138.413 34.5848H134.793C134.795 34.3776 134.752 34.1724 134.668 33.983C134.584 33.7935 134.461 33.6242 134.306 33.4863C134.152 33.3483 133.97 33.2449 133.772 33.183C133.575 33.1211 133.366 33.1021 133.16 33.1272C132.806 33.1215 132.455 33.2032 132.14 33.3649C131.824 33.5267 131.553 33.7636 131.351 34.0548C130.822 34.7834 130.488 35.6346 130.38 36.5283C130.341 36.8658 130.341 37.2067 130.38 37.5442C130.38 38.9576 131.042 39.6201 132.366 39.6201C132.801 39.6057 133.225 39.4843 133.602 39.2668C134.006 39.0495 134.331 38.7092 134.529 38.2951H132.851L133.293 35.8216L138.324 35.7774ZM118.33 30.6095L121.332 36.8816L121.685 34.2756L122.303 30.6095H125.922L123.892 42.0936H120.361L117.359 35.8216L117.05 38.4717L116.388 42.0936H112.769L114.755 30.6095H118.33ZM107.12 30.3004C107.829 30.2609 108.539 30.3658 109.206 30.6087C109.874 30.8516 110.485 31.2276 111.004 31.7138C111.815 32.6391 112.242 33.8404 112.195 35.0707C112.217 35.4679 112.217 35.866 112.195 36.2633C111.906 37.9977 110.996 39.5676 109.635 40.6802C108.392 41.7044 106.832 42.2662 105.222 42.2703C103.859 42.353 102.517 41.9105 101.47 41.0336C101.014 40.5889 100.66 40.0507 100.431 39.456C100.203 38.8613 100.105 38.2242 100.146 37.5883C100.102 37.1035 100.102 36.6156 100.146 36.1308C100.402 34.4497 101.259 32.9187 102.558 31.8221C103.857 30.7255 105.509 30.1377 107.208 30.1679L107.12 30.3004ZM106.678 32.9505C106.296 32.9707 105.923 33.0764 105.587 33.2598C105.251 33.4433 104.96 33.6998 104.736 34.0106C104.3 34.6446 104.013 35.3696 103.898 36.1308C103.856 36.4976 103.856 36.8681 103.898 37.235C103.898 38.7368 104.471 39.4435 105.663 39.4435C106.855 39.4435 108.091 38.3392 108.488 36.1308C108.51 35.8219 108.51 35.512 108.488 35.2032C108.488 33.7014 107.87 32.9505 106.678 32.9505ZM97.8509 41.7845H89.0236L91.0097 30.3004H94.8055L93.2607 39.1343H98.4247L97.8509 41.7845ZM84.3451 34.9823H80.77C80.8242 34.7425 80.8204 34.4931 80.759 34.2549C80.6976 34.0168 80.5803 33.7968 80.4169 33.6131C80.2486 33.4328 80.0428 33.2918 79.8139 33.2002C79.5851 33.1086 79.3388 33.0686 79.0928 33.083C77.6804 33.083 76.7535 34.2315 76.3563 36.4399C76.3221 36.8367 76.3221 37.2357 76.3563 37.6325C76.3563 38.9576 76.9742 39.576 78.21 39.576C78.7598 39.5736 79.2912 39.3775 79.7109 39.0221C80.1306 38.6667 80.4118 38.1747 80.5051 37.6325H83.8595C83.4975 39.0056 82.6897 40.2193 81.5631 41.0828C80.4366 41.9463 79.0552 42.4107 77.6362 42.4028C76.2582 42.5018 74.8961 42.058 73.8405 41.1661C73.3845 40.7214 73.0301 40.1832 72.8016 39.5885C72.573 38.9938 72.4757 38.3567 72.5164 37.7209C72.5164 37.2792 72.5164 36.8375 72.5164 36.3516C72.7826 34.6297 73.6601 33.0616 74.988 31.9346C76.1937 30.8408 77.775 30.2553 79.4017 30.3004C80.7235 30.2077 82.0359 30.5829 83.1092 31.3604C83.5402 31.7565 83.8784 32.2431 84.0997 32.7852C84.321 33.3273 84.4198 33.9117 84.3892 34.4965C84.409 34.6578 84.409 34.821 84.3892 34.9823H84.3451ZM64.3952 42.0936H60.6436L62.6739 30.6095H68.191C69.3422 30.5224 70.4901 30.8174 71.4571 31.4488C71.8105 31.7031 72.0932 32.0435 72.2786 32.4377C72.4639 32.8318 72.5458 33.2668 72.5164 33.7014C72.5333 33.9662 72.5333 34.2317 72.5164 34.4965C72.0309 37.1908 70.2213 38.5159 66.9993 38.5159H65.1014L64.3952 42.0936ZM65.4986 35.8216H67.0875C67.2882 35.8526 67.493 35.8425 67.6897 35.792C67.8863 35.7415 68.0707 35.6516 68.2316 35.5277C68.3926 35.4039 68.5267 35.2486 68.6259 35.0713C68.7251 34.8941 68.7874 34.6985 68.8089 34.4965C68.8089 33.8339 68.191 33.4806 66.9993 33.4806H65.8958L65.4986 35.8216Z" fill="#000F9F"/>
</g>
<defs>
<clipPath id="clip0">
<rect width="169" height="50" fill="white"/>
</clipPath>
</defs>
</svg>
