<svg width="47" height="47" viewBox="0 0 47 47" fill="none" xmlns="http://www.w3.org/2000/svg">
<path d="M23.4903 0C13.105 0 4.65088 8.45409 4.65088 18.8394C4.65088 20.0218 4.75926 21.214 4.98589 22.3767C4.99574 22.4457 5.03516 22.6526 5.11398 23.0073C5.39973 24.2784 5.82342 25.5298 6.3752 26.722C8.40497 31.5008 12.8685 38.8415 22.6626 46.7044C22.9089 46.9015 23.2045 47 23.5001 47C23.7957 47 24.0913 46.9015 24.3377 46.7044C34.1219 38.8415 38.5953 31.5008 40.6251 26.722C41.1769 25.5298 41.6006 24.2883 41.8863 23.0073C41.9651 22.6526 42.0045 22.4457 42.0144 22.3767C42.2312 21.214 42.3494 20.0218 42.3494 18.8394C42.3297 8.45409 33.8756 0 23.4903 0ZM39.3737 21.9136C39.3737 21.9333 39.3639 21.953 39.3639 21.9727C39.354 22.022 39.3245 22.1698 39.2752 22.3964C39.2752 22.4063 39.2752 22.4063 39.2752 22.4161C39.0289 23.5197 38.6643 24.5937 38.1815 25.6283C38.1716 25.6382 38.1716 25.6579 38.1618 25.6677C36.3192 30.0327 32.2794 36.6935 23.4903 43.9553C14.7012 36.6935 10.6614 30.0327 8.8188 25.6677C8.80895 25.6579 8.80895 25.6382 8.7991 25.6283C8.32614 24.6036 7.96157 23.5197 7.70539 22.4161C7.70539 22.4063 7.70539 22.4063 7.70539 22.3964C7.64627 22.1698 7.62656 22.022 7.61671 21.9727C7.61671 21.953 7.60685 21.9333 7.60685 21.9038C7.40979 20.8889 7.31126 19.8642 7.31126 18.8296C7.31126 9.91237 14.5731 2.65052 23.4903 2.65052C32.4075 2.65052 39.6693 9.91237 39.6693 18.8296C39.6693 19.874 39.5708 20.9086 39.3737 21.9136Z" fill="#ED1C24"/>
<path d="M23.4902 7.08447C16.8983 7.08447 11.5283 12.4545 11.5283 19.0463C11.5283 25.6381 16.8983 31.0082 23.4902 31.0082C30.082 31.0082 35.452 25.6381 35.452 19.0463C35.452 12.4545 30.082 7.08447 23.4902 7.08447ZM23.4902 28.3478C18.3566 28.3478 14.1887 24.17 14.1887 19.0463C14.1887 13.9226 18.3665 9.74485 23.4902 9.74485C28.6139 9.74485 32.7916 13.9226 32.7916 19.0463C32.7916 24.17 28.6237 28.3478 23.4902 28.3478Z" fill="#ED1C24"/>
</svg>
