<svg width="55" height="62" viewBox="0 0 55 62" fill="none" xmlns="http://www.w3.org/2000/svg">
<path d="M46.7405 1.89433H4.59741C3.1466 1.89433 1.96409 3.07684 1.96409 4.52766L1.89453 35.3425V57.4723C1.89453 58.9232 3.07704 60.1057 4.52785 60.1057H46.6709C48.1218 60.1057 49.3043 58.9232 49.3043 57.4723L49.3738 30.8708V4.52766C49.3738 3.07684 48.1913 1.89433 46.7405 1.89433Z" fill="#17479B"/>
<path d="M46.7405 1.89433H4.59741C3.1466 1.89433 1.96409 3.07684 1.96409 4.52766L1.89453 35.3425V57.4723C1.89453 58.9232 3.07704 60.1057 4.52785 60.1057H46.6709C48.1218 60.1057 49.3043 58.9232 49.3043 57.4723L49.3738 30.8708V4.52766C49.3738 3.07684 48.1913 1.89433 46.7405 1.89433Z" stroke="white" stroke-width="2.5" stroke-miterlimit="10" stroke-linecap="round" stroke-linejoin="round"/>
<path d="M9.13867 32.3216H39.3772" stroke="white" stroke-width="2.5" stroke-miterlimit="10" stroke-linecap="round" stroke-linejoin="round"/>
<path d="M9.13867 37.151H39.3772" stroke="white" stroke-width="2.5" stroke-miterlimit="10" stroke-linecap="round" stroke-linejoin="round"/>
<path d="M9.13867 41.9705H39.3772" stroke="white" stroke-width="2.5" stroke-miterlimit="10" stroke-linecap="round" stroke-linejoin="round"/>
<path d="M9.13867 46.8H21.878" stroke="white" stroke-width="2.5" stroke-miterlimit="10" stroke-linecap="round" stroke-linejoin="round"/>
<path d="M16.5615 20.2481H9.31738V27.4922H16.5615V20.2481Z" fill="#93B3DC"/>
<path d="M16.5615 20.2481H9.31738V27.4922H16.5615V20.2481Z" stroke="white" stroke-width="2.5" stroke-miterlimit="10" stroke-linecap="round" stroke-linejoin="round"/>
<path d="M27.8799 20.2481H20.6357V27.4922H27.8799V20.2481Z" fill="#93B3DC"/>
<path d="M27.8799 20.2481H20.6357V27.4922H27.8799V20.2481Z" stroke="white" stroke-width="2.5" stroke-miterlimit="10" stroke-linecap="round" stroke-linejoin="round"/>
<path d="M39.3769 20.2481H32.1328V27.4922H39.3769V20.2481Z" fill="#93B3DC"/>
<path d="M39.3769 20.2481H32.1328V27.4922H39.3769V20.2481Z" stroke="white" stroke-width="2.5" stroke-miterlimit="10" stroke-linecap="round" stroke-linejoin="round"/>
<path d="M16.5615 9.13844H9.31738V16.3826H16.5615V9.13844Z" fill="#93B3DC"/>
<path d="M16.5615 9.13844H9.31738V16.3826H16.5615V9.13844Z" stroke="white" stroke-width="2.5" stroke-miterlimit="10" stroke-linecap="round" stroke-linejoin="round"/>
<path d="M27.8799 9.13844H20.6357V16.3826H27.8799V9.13844Z" fill="#93B3DC"/>
<path d="M27.8799 9.13844H20.6357V16.3826H27.8799V9.13844Z" stroke="white" stroke-width="2.5" stroke-miterlimit="10" stroke-linecap="round" stroke-linejoin="round"/>
<path d="M39.3769 9.13844H32.1328V16.3826H39.3769V9.13844Z" fill="#93B3DC"/>
<path d="M39.3769 9.13844H32.1328V16.3826H39.3769V9.13844Z" stroke="white" stroke-width="2.5" stroke-miterlimit="10" stroke-linecap="round" stroke-linejoin="round"/>
<path d="M45.3193 23.0305V54.1235L49.314 60.1156L53.3087 54.1235V23.0305C53.3087 22.0169 52.484 21.1921 51.4604 21.1921H47.1577C46.1441 21.1921 45.3193 22.0169 45.3193 23.0305Z" fill="#93B3DC"/>
<path d="M45.3193 23.0305V54.1235L49.314 60.1156L53.3087 54.1235V23.0305C53.3087 22.0169 52.484 21.1921 51.4604 21.1921H47.1577C46.1441 21.1921 45.3193 22.0169 45.3193 23.0305Z" stroke="white" stroke-width="2.5" stroke-miterlimit="10" stroke-linecap="round" stroke-linejoin="round"/>
<path d="M53.0004 25.952H48.7871" stroke="white" stroke-width="2.5" stroke-miterlimit="10" stroke-linecap="round" stroke-linejoin="round"/>
</svg>
