<svg width="59" height="62" viewBox="0 0 59 62" fill="none" xmlns="http://www.w3.org/2000/svg">
<path d="M20.7444 39.679V20.1553C20.7444 18.9105 21.7426 17.907 22.9668 17.907H34.688V5.75711C34.688 3.57229 32.9364 1.79395 30.7705 1.79395H5.70218C3.54252 1.79395 1.78467 3.56594 1.78467 5.75711V56.2493C1.78467 58.4341 3.53625 60.2125 5.70218 60.2125H30.7767C32.9364 60.2125 34.6942 58.4405 34.6942 56.2493V41.9273H22.9668C21.7426 41.9273 20.7444 40.9238 20.7444 39.679Z" stroke="#17479D" stroke-width="2.5027" stroke-miterlimit="10" stroke-linecap="round" stroke-linejoin="round"/>
<path d="M55.2235 17.907H34.6942H22.9668C21.7363 17.907 20.7444 18.9168 20.7444 20.1553V39.679C20.7444 40.9238 21.7426 41.9273 22.9668 41.9273H34.6879H55.2172C56.4477 41.9273 57.4396 40.9175 57.4396 39.679V20.1553C57.4459 18.9105 56.4477 17.907 55.2235 17.907Z" fill="#94B5DE" stroke="#17479D" stroke-width="2.5027" stroke-miterlimit="10" stroke-linecap="round" stroke-linejoin="round"/>
<path d="M31.1973 32.8705H25.3085C24.7183 32.8705 24.2412 32.3878 24.2412 31.7908V28.2532C24.2412 27.6562 24.7183 27.1735 25.3085 27.1735H31.1973C31.7874 27.1735 32.2646 27.6562 32.2646 28.2532V31.7908C32.2646 32.3815 31.7874 32.8705 31.1973 32.8705Z" fill="#94B5DE" stroke="#17479D" stroke-width="2.5027" stroke-miterlimit="10" stroke-linecap="round" stroke-linejoin="round"/>
<path d="M24.2412 37.6466H29.5462" stroke="#17479D" stroke-width="2.5027" stroke-miterlimit="10" stroke-linecap="round" stroke-linejoin="round"/>
<path d="M32.3337 37.6466H37.6387" stroke="#17479D" stroke-width="2.5027" stroke-miterlimit="10" stroke-linecap="round" stroke-linejoin="round"/>
<path d="M40.4199 37.6466H45.7312" stroke="#17479D" stroke-width="2.5027" stroke-miterlimit="10" stroke-linecap="round" stroke-linejoin="round"/>
<path d="M48.5122 37.6466H53.8172" stroke="#17479D" stroke-width="2.5027" stroke-miterlimit="10" stroke-linecap="round" stroke-linejoin="round"/>
<path d="M53.8173 22.1941H34.9832" stroke="#17479D" stroke-width="2.5027" stroke-miterlimit="10" stroke-linecap="round" stroke-linejoin="round"/>
<path d="M1.78467 6.50024H34.6942" stroke="#17479D" stroke-width="2.5027" stroke-miterlimit="10" stroke-linecap="round" stroke-linejoin="round"/>
<path d="M1.78467 52.7815H34.6942" stroke="#17479D" stroke-width="2.5027" stroke-miterlimit="10" stroke-linecap="round" stroke-linejoin="round"/>
<path d="M14.5669 56.37H21.9059" stroke="#17479D" stroke-width="2.5027" stroke-miterlimit="10" stroke-linecap="round" stroke-linejoin="round"/>
</svg>
