<svg width="59" height="62" viewBox="0 0 59 62" fill="none" xmlns="http://www.w3.org/2000/svg">
<circle cx="45" cy="44" r="12" fill="#94B5DE"/>
<rect x="15" y="5" width="30" height="38" fill="#94B5DE"/>
<path d="M43 43H46V51H43V43Z" fill="#17479B"/>
<path d="M44.5 40C45.2839 40 46.035 39.3101 45.9987 38.5C45.9624 37.6873 45.3402 37 44.5 37C43.7161 37 42.965 37.6899 43.0013 38.5C43.0376 39.3127 43.6598 40 44.5 40Z" fill="#17479B"/>
<path d="M47.4327 30.4065V2H9.33931C5.29242 2 2 5.19556 2 9.24245V51.8767H2.03529C2.40624 55.8661 5.77124 59 9.85587 59H44.5062C52.4981 59 59 52.595 59 44.6032C59 37.6135 54.0265 31.7638 47.4327 30.4065ZM44.0876 30.1159C36.7289 30.3258 30.7272 36.0473 30.0728 43.2882H15.4313V5.24822H44.0876V30.1159ZM9.33931 5.24822H12.0861V43.2882H9.85587C8.17804 43.2882 6.62268 43.8186 5.34508 44.7182V9.24245C5.34508 7.03994 7.1369 5.24822 9.33931 5.24822ZM9.85587 55.6549C7.36858 55.6549 5.34508 53.6313 5.34508 51.1441C5.34508 48.6568 7.36858 46.6333 9.85587 46.6333H30.1553C30.2945 47.6215 30.5333 48.578 30.8619 49.4922H12.1493C11.2256 49.4922 10.4767 50.2411 10.4767 51.1648C10.4767 52.0885 11.2256 52.8373 12.1493 52.8373H32.5857C33.3115 53.8848 34.1715 54.8323 35.1408 55.655L9.85587 55.6549ZM44.5063 55.7518C38.3589 55.7518 33.3577 50.7505 33.3577 44.6032C33.3577 38.4558 38.3589 33.4545 44.5063 33.4545C50.6537 33.4545 55.6549 38.4558 55.6549 44.6032C55.6549 50.7505 50.6536 55.7518 44.5063 55.7518Z" fill="#17479B"/>
<path d="M24 13.5C24 12.6716 24.6716 12 25.5 12H34.5C35.3284 12 36 12.6716 36 13.5C36 14.3284 35.3284 15 34.5 15H25.5C24.6716 15 24 14.3284 24 13.5Z" fill="#17479B"/>
<path d="M21 20.5C21 19.6716 21.6716 19 22.5 19H37.5C38.3284 19 39 19.6716 39 20.5C39 21.3284 38.3284 22 37.5 22H22.5C21.6716 22 21 21.3284 21 20.5Z" fill="#17479B"/>
</svg>
