<svg width="60" height="60" viewBox="0 0 60 60" fill="none" xmlns="http://www.w3.org/2000/svg">
<g clip-path="url(#clip0)">
<path d="M54.3324 59.1722H5.66825C2.99985 59.1722 0.828125 57.0102 0.828125 54.3418V5.66791C0.828125 2.99951 2.99011 0.837524 5.66825 0.837524H54.3324C57.0008 0.837524 59.1628 2.99951 59.1628 5.66791V54.3321C59.1726 57.0005 57.0008 59.1722 54.3324 59.1722Z" fill="#17479B"/>
<path d="M54.3324 59.1722H5.66825C2.99985 59.1722 0.828125 57.0102 0.828125 54.3418V5.66791C0.828125 2.99951 2.99011 0.837524 5.66825 0.837524H54.3324C57.0008 0.837524 59.1628 2.99951 59.1628 5.66791V54.3321C59.1726 57.0005 57.0008 59.1722 54.3324 59.1722Z" stroke="white" stroke-width="2.5" stroke-miterlimit="10" stroke-linecap="round" stroke-linejoin="round"/>
<path d="M44.6416 9.87503V40.6006L48.5858 46.5217L52.5299 40.6006V9.87503C52.5299 8.87194 51.7119 8.05389 50.7088 8.05389H46.4627C45.4499 8.05389 44.6416 8.8622 44.6416 9.87503Z" fill="#93B3DC"/>
<path d="M44.6416 9.87503V40.6006L48.5858 46.5217L52.5299 40.6006V9.87503C52.5299 8.87194 51.7119 8.05389 50.7088 8.05389H46.4627C45.4499 8.05389 44.6416 8.8622 44.6416 9.87503Z" stroke="white" stroke-width="2.5" stroke-miterlimit="10" stroke-linecap="round" stroke-linejoin="round"/>
<path d="M7.6543 50.9917H52.3451" stroke="white" stroke-width="2.5" stroke-miterlimit="10" stroke-linecap="round" stroke-linejoin="round"/>
<path d="M7.72266 44.4473H38.8669" stroke="white" stroke-width="2.5" stroke-miterlimit="10" stroke-linecap="round" stroke-linejoin="round"/>
<path d="M26.6452 16.2247C26.6452 11.6475 22.8763 7.94678 18.2797 8.0539C13.8778 8.16103 10.3134 11.8033 10.3037 16.2052C10.3037 18.4061 11.1607 20.3928 12.5631 21.8633C13.0208 22.3405 13.274 22.9833 13.274 23.6455V25.3303C13.274 26.5477 14.2674 27.541 15.4847 27.541H21.4545C22.6718 27.541 23.6652 26.5477 23.6652 25.3303V23.6553C23.6652 22.9833 23.9379 22.3405 24.4053 21.8439C25.7979 20.3733 26.6452 18.3964 26.6452 16.2247Z" fill="#93B3DC"/>
<path d="M26.6452 16.2247C26.6452 11.6475 22.8763 7.94678 18.2797 8.0539C13.8778 8.16103 10.3134 11.8033 10.3037 16.2052C10.3037 18.4061 11.1607 20.3928 12.5631 21.8634C13.0208 22.3405 13.274 22.9833 13.274 23.6455V25.3303C13.274 26.5477 14.2674 27.541 15.4847 27.541H21.4545C22.6718 27.541 23.6652 26.5477 23.6652 25.3303V23.6553C23.6652 22.9833 23.9379 22.3405 24.4053 21.8439C25.7979 20.3733 26.6452 18.3964 26.6452 16.2247Z" stroke="white" stroke-width="2.5" stroke-miterlimit="10" stroke-linecap="round" stroke-linejoin="round"/>
<path d="M14.6855 30.0341H22.272" stroke="white" stroke-width="2.5" stroke-miterlimit="10" stroke-linecap="round" stroke-linejoin="round"/>
<path d="M15.3291 32.313H21.63" stroke="white" stroke-width="2.5" stroke-miterlimit="10" stroke-linecap="round" stroke-linejoin="round"/>
<path d="M12.8652 14.5399C13.5859 12.1247 15.8258 10.362 18.4845 10.362" stroke="white" stroke-width="2.5" stroke-miterlimit="10" stroke-linecap="round" stroke-linejoin="round"/>
</g>
<defs>
<clipPath id="clip0">
<rect width="60" height="60" fill="white"/>
</clipPath>
</defs>
</svg>
