<svg width="62" height="62" viewBox="0 0 62 62" fill="none" xmlns="http://www.w3.org/2000/svg">
<path d="M55.3321 60.1722H6.66788C3.99948 60.1722 1.82776 58.0102 1.82776 55.3418V6.66791C1.82776 3.99951 3.98975 1.83752 6.66788 1.83752H55.3321C58.0005 1.83752 60.1624 3.99951 60.1624 6.66791V55.3321C60.1722 58.0005 58.0005 60.1722 55.3321 60.1722Z" fill="white"/>
<path d="M55.3321 60.1722H6.66788C3.99948 60.1722 1.82776 58.0102 1.82776 55.3418V6.66791C1.82776 3.99951 3.98975 1.83752 6.66788 1.83752H55.3321C58.0005 1.83752 60.1625 3.99951 60.1625 6.66791V55.3321C60.1722 58.0005 58.0005 60.1722 55.3321 60.1722Z" stroke="#194A9A" stroke-width="2.5" stroke-miterlimit="10" stroke-linecap="round" stroke-linejoin="round"/>
<path d="M45.6421 10.875V41.6005L49.5863 47.5216L53.5304 41.6005V10.875C53.5304 9.87188 52.7124 9.05383 51.7093 9.05383H47.4632C46.4504 9.05383 45.6421 9.86214 45.6421 10.875Z" fill="#93B3DC"/>
<path d="M45.6421 10.875V41.6005L49.5863 47.5216L53.5304 41.6005V10.875C53.5304 9.87188 52.7124 9.05383 51.7093 9.05383H47.4632C46.4504 9.05383 45.6421 9.86214 45.6421 10.875Z" stroke="#194A9A" stroke-width="2.5" stroke-miterlimit="10" stroke-linecap="round" stroke-linejoin="round"/>
<path d="M8.65454 51.9917H53.3453" stroke="#194A9A" stroke-width="2.5" stroke-miterlimit="10" stroke-linecap="round" stroke-linejoin="round"/>
<path d="M8.72278 45.4474H39.8671" stroke="#194A9A" stroke-width="2.5" stroke-miterlimit="10" stroke-linecap="round" stroke-linejoin="round"/>
<path d="M27.645 17.2247C27.645 12.6475 23.8761 8.94678 19.2794 9.0539C14.8776 9.16103 11.3132 12.8033 11.3035 17.2052C11.3035 19.4061 12.1605 21.3928 13.5628 22.8633C14.0206 23.3405 14.2738 23.9833 14.2738 24.6455V26.3303C14.2738 27.5477 15.2671 28.541 16.4844 28.541H22.4543C23.6716 28.541 24.6649 27.5477 24.6649 26.3303V24.6553C24.6649 23.9833 24.9376 23.3405 25.4051 22.8439C26.7977 21.3733 27.645 19.3964 27.645 17.2247Z" fill="#93B3DC"/>
<path d="M27.645 17.2247C27.645 12.6475 23.8761 8.94678 19.2794 9.0539C14.8776 9.16103 11.3132 12.8033 11.3035 17.2052C11.3035 19.4061 12.1605 21.3928 13.5628 22.8634C14.0206 23.3405 14.2738 23.9833 14.2738 24.6455V26.3303C14.2738 27.5477 15.2671 28.541 16.4844 28.541H22.4543C23.6716 28.541 24.6649 27.5477 24.6649 26.3303V24.6553C24.6649 23.9833 24.9376 23.3405 25.4051 22.8439C26.7977 21.3733 27.645 19.3964 27.645 17.2247Z" stroke="#194A9A" stroke-width="2.5" stroke-miterlimit="10" stroke-linecap="round" stroke-linejoin="round"/>
<path d="M15.6859 31.0341H23.2723" stroke="#194A9A" stroke-width="2.5" stroke-miterlimit="10" stroke-linecap="round" stroke-linejoin="round"/>
<path d="M16.3287 33.313H22.6297" stroke="#194A9A" stroke-width="2.5" stroke-miterlimit="10" stroke-linecap="round" stroke-linejoin="round"/>
<path d="M13.8647 15.5398C14.5854 13.1246 16.8253 11.3619 19.484 11.3619" stroke="#194A9A" stroke-width="2.5" stroke-miterlimit="10" stroke-linecap="round" stroke-linejoin="round"/>
</svg>
