<svg width="23" height="23" viewBox="0 0 23 23" fill="none" xmlns="http://www.w3.org/2000/svg">
<path d="M11.03 2.49329C12.436 2.49329 13.8421 2.49329 15.237 2.49329C16.3194 2.49329 17.2791 2.83922 18.0825 3.56456C19.0311 4.41266 19.5221 5.47278 19.5332 6.74492C19.5444 9.60166 19.5332 12.4584 19.5332 15.3151C19.5332 17.4354 17.8817 19.2878 15.7726 19.5221C15.5829 19.5445 15.3932 19.5556 15.2146 19.5556C14.0764 19.5556 12.9493 19.5556 11.8111 19.5556C10.1484 19.5556 8.48568 19.5556 6.82297 19.5556C5.91907 19.5556 5.08214 19.3213 4.34563 18.7856C3.16277 17.9375 2.52669 16.7658 2.51553 15.304C2.49322 13.34 2.51553 11.3648 2.51553 9.4008C2.51553 8.54155 2.50438 7.68229 2.51553 6.81188C2.53785 4.99294 3.38595 3.68732 5.00402 2.88386C5.55082 2.60488 6.14226 2.49329 6.74485 2.49329C8.17322 2.49329 9.60159 2.49329 11.03 2.49329Z" stroke="#17479B" stroke-width="2" stroke-miterlimit="10"/>
<path d="M11.0189 14.2885C12.8267 14.2885 14.2885 12.8267 14.2885 11.0189C14.2885 9.21109 12.8378 7.7604 11.0189 7.74924C9.22228 7.73808 7.74927 9.22225 7.74927 11.0189C7.74927 12.8267 9.21112 14.2885 11.0189 14.2885Z" stroke="#17479B" stroke-width="2" stroke-miterlimit="10"/>
<path d="M16.1875 6.41015H16.1875L16.1876 6.41958C16.1932 6.71549 15.955 6.97026 15.6163 6.97026C15.3093 6.97026 15.0586 6.72357 15.0562 6.40371C15.0647 6.08493 15.3232 5.83887 15.6274 5.83887C15.9462 5.83887 16.1875 6.06482 16.1875 6.41015Z" stroke="#17479B"/>
</svg>
