<svg width="41" height="62" viewBox="0 0 41 62" fill="none" xmlns="http://www.w3.org/2000/svg">
<path d="M11.8282 49.9329H29.2737" stroke="#17479B" stroke-width="2.5" stroke-miterlimit="10"/>
<path d="M13.3032 53.295H27.7985" stroke="#17479B" stroke-width="2.5" stroke-miterlimit="10"/>
<path d="M15.0338 56.4512C15.8908 58.6679 18.0334 60.2419 20.5468 60.2419C23.0602 60.2419 25.211 58.6679 26.0598 56.4512H15.0338Z" fill="#17479B"/>
<path d="M15.0338 56.4512C15.8908 58.6679 18.0334 60.2419 20.5468 60.2419C23.0602 60.2419 25.211 58.6679 26.0598 56.4512H15.0338Z" stroke="#17479B" stroke-width="2.5" stroke-miterlimit="10"/>
<path d="M36.5501 30.4025C38.3136 27.5348 39.3437 24.1643 39.3437 20.5549C39.3437 20.5467 39.3437 20.5385 39.3437 20.5385C39.3437 20.2336 39.3354 19.9369 39.319 19.632C39.3107 19.5331 39.3025 19.426 39.2942 19.3271C39.2778 19.1211 39.2695 18.9233 39.2448 18.7173C39.2365 18.6019 39.2201 18.4783 39.2036 18.3629C39.1789 18.1816 39.1624 18.0003 39.1294 17.8191C39.1129 17.6954 39.0882 17.5718 39.0717 17.4482C39.0388 17.2752 39.0141 17.0939 38.9728 16.9208C38.9481 16.7972 38.9234 16.6736 38.8987 16.5582C38.8575 16.3852 38.8163 16.2121 38.7751 16.0308C38.7421 15.9155 38.7174 15.8001 38.6844 15.6847C38.635 15.5034 38.5855 15.3221 38.5279 15.1408C38.4949 15.042 38.4702 14.9348 38.4372 14.8359C38.363 14.597 38.2806 14.358 38.19 14.119C38.1735 14.0778 38.1653 14.0448 38.1488 14.0036C38.0499 13.7317 37.9428 13.468 37.8274 13.1961C37.7862 13.0972 37.745 13.0065 37.6955 12.9076C37.6214 12.7346 37.539 12.5698 37.4648 12.405C37.4154 12.2978 37.3577 12.1907 37.3 12.0836C37.2258 11.9352 37.1434 11.7787 37.0693 11.6303C37.0116 11.515 36.9457 11.4078 36.888 11.3007C36.8056 11.1606 36.7232 11.0205 36.6407 10.8804C36.5748 10.7733 36.5089 10.6579 36.443 10.5508C36.3606 10.4107 36.2699 10.2789 36.1793 10.1388C36.1051 10.0317 36.0392 9.92453 35.965 9.82565C35.8661 9.68556 35.7672 9.55371 35.6684 9.41361C35.5942 9.31473 35.5283 9.22408 35.4541 9.12519C35.3305 8.96862 35.2069 8.81205 35.075 8.65548C35.0091 8.57307 34.9349 8.48242 34.869 8.40002C34.7042 8.20224 34.5312 8.01271 34.3663 7.82317C34.2839 7.73253 34.2015 7.65012 34.1109 7.55947C33.9955 7.43586 33.8801 7.3205 33.7648 7.20513C33.6659 7.11448 33.5752 7.01559 33.4763 6.92495C33.361 6.81782 33.2539 6.71893 33.1385 6.6118C33.0396 6.52115 32.9325 6.43051 32.8253 6.33986C32.71 6.24097 32.6028 6.15033 32.4875 6.05144C32.3803 5.96079 32.2732 5.87839 32.1661 5.78774C32.0507 5.69709 31.9271 5.60645 31.8117 5.5158C31.6964 5.43339 31.5892 5.35099 31.4739 5.26858C31.3503 5.17793 31.2267 5.09553 31.103 5.01312C30.9877 4.93895 30.8723 4.85655 30.7569 4.78238C30.6169 4.69174 30.4768 4.60933 30.3367 4.52692C30.1719 4.42804 30.0153 4.32915 29.8505 4.2385C29.6692 4.13137 29.4879 4.03249 29.2984 3.9336C29.1747 3.86767 29.0511 3.80999 28.9275 3.74406C28.7957 3.67814 28.6638 3.61221 28.5237 3.54629C28.3919 3.48036 28.26 3.42268 28.1282 3.36499C27.9963 3.30731 27.8645 3.24963 27.7326 3.19194C27.6008 3.13426 27.4607 3.08481 27.3206 3.02713C27.1888 2.97769 27.0487 2.92824 26.9168 2.8788C26.7767 2.82935 26.6366 2.77991 26.4965 2.73047C26.3564 2.68926 26.2246 2.63982 26.0845 2.59862C25.9444 2.55741 25.7961 2.50797 25.656 2.46677C25.5159 2.42556 25.3676 2.3926 25.2275 2.3514C25.0874 2.31844 24.9391 2.27723 24.799 2.24427C24.6424 2.21131 24.4858 2.17834 24.3293 2.14538C22.9695 1.8652 21.5522 1.73335 20.1018 1.76631C15.1245 1.88168 10.6169 3.96656 7.3206 7.25457C7.30412 7.27105 7.28764 7.28753 7.26292 7.31225C7.0981 7.47707 6.93329 7.65012 6.76848 7.83141C6.73552 7.86438 6.70255 7.90558 6.66135 7.93854C6.51302 8.10335 6.37293 8.26817 6.23284 8.43298C6.18339 8.49066 6.13395 8.54835 6.09275 8.59779C5.9609 8.76261 5.83729 8.91918 5.71368 9.07575C5.65599 9.14991 5.60655 9.21584 5.54887 9.29001C5.4335 9.43834 5.31813 9.59491 5.211 9.75148C5.15332 9.83389 5.09563 9.91629 5.03795 9.9987C4.93906 10.147 4.84017 10.3036 4.74129 10.4519C4.6836 10.5426 4.61768 10.6415 4.55999 10.7321C4.46934 10.8887 4.3787 11.037 4.28805 11.1853C4.23037 11.2925 4.17268 11.3914 4.10676 11.4985C4.02435 11.6468 3.95019 11.7952 3.86778 11.9435C3.81009 12.0589 3.75241 12.166 3.69473 12.2814C3.62056 12.4297 3.55464 12.5698 3.48047 12.7181C3.42279 12.8417 3.37334 12.9653 3.31566 13.0807C3.24973 13.2208 3.19205 13.3691 3.13436 13.5092C3.08492 13.6411 3.03548 13.7729 2.97779 13.8965C2.92011 14.0366 2.87066 14.1849 2.82122 14.325C2.77178 14.4651 2.73057 14.597 2.68113 14.7371C2.64817 14.8854 2.59872 15.0255 2.55752 15.1656C2.51632 15.3139 2.47511 15.454 2.43391 15.6023C2.39271 15.7424 2.35974 15.8825 2.31854 16.0226C2.27734 16.1709 2.24438 16.3275 2.21141 16.4841C2.17845 16.6242 2.14549 16.756 2.12077 16.8961C2.0878 17.0609 2.06308 17.2175 2.03012 17.3823C2.0054 17.5141 1.98068 17.646 1.96419 17.7861C1.94771 17.9509 1.92299 18.124 1.90651 18.3052C1.89003 18.4289 1.87355 18.5525 1.85707 18.6843C1.84058 18.8739 1.8241 19.0716 1.80762 19.2694C1.79938 19.3765 1.79114 19.4837 1.7829 19.5908C1.76642 19.8792 1.75818 20.1676 1.75818 20.4643C1.75818 20.4808 1.75818 20.4973 1.75818 20.5137C1.75818 21.3296 1.81586 22.1289 1.91475 22.92C2.42567 27.0156 4.25509 30.6991 6.96625 33.5339C8.02105 34.6382 8.60614 36.105 8.60614 37.6378V41.5026C8.60614 43.604 9.88344 45.4087 11.7046 46.175C12.1578 46.3646 12.6523 46.4964 13.1632 46.5459C13.3363 46.5624 13.5093 46.5706 13.6824 46.5706H27.4195C27.5925 46.5706 27.7656 46.5624 27.9386 46.5459C28.6144 46.4799 29.2489 46.2739 29.8258 45.969C29.834 45.969 29.834 45.9608 29.8422 45.9608C31.4244 45.1038 32.4957 43.4227 32.4957 41.5026V37.6378C32.4957 36.517 32.8253 35.4375 33.4104 34.4898C33.6329 34.1273 33.8966 33.7894 34.1933 33.4762C35.075 32.5368 35.8661 31.5067 36.5501 30.4025Z" stroke="#17479B" stroke-width="2.5" stroke-miterlimit="10"/>
<path d="M18.3712 37.7285L18.5772 34.2509C16.9291 34.0367 15.2151 33.6741 13.4433 33.1632V28.4166C15.9567 29.3643 18.0334 29.834 19.665 29.834C21.6098 29.834 22.5822 29.2324 22.5822 28.0375C22.5822 27.4277 21.9724 26.8756 20.7528 26.3894L17.2999 25.005C16.138 24.5352 15.1986 23.8595 14.4734 22.9695C13.6246 21.9312 13.2043 20.7198 13.2043 19.3436C13.2043 17.5966 13.8718 16.1463 15.2068 15.0091C16.2451 14.1026 17.4977 13.5258 18.9481 13.2703L18.8327 10.6168H22.8376L22.6316 13.2703C23.5381 13.328 24.6753 13.5175 26.0515 13.8307V18.0499C24.2385 17.6214 22.747 17.3989 21.5686 17.3989C19.5249 17.3989 18.5031 18.0004 18.5031 19.1953C18.5031 19.8463 19.0305 20.3655 20.0935 20.761L22.8376 21.7664C26.1998 23.0025 27.8809 25.0379 27.8809 27.8727C27.8809 29.7186 27.2381 31.2431 25.9608 32.4462C24.9143 33.3857 23.6782 33.9955 22.2443 34.2757L22.3597 37.7532H18.3712V37.7285Z" fill="#93B3DC"/>
<path d="M18.3712 37.7285L18.5772 34.2509C16.9291 34.0367 15.2151 33.6741 13.4433 33.1632V28.4166C15.9567 29.3643 18.0334 29.834 19.665 29.834C21.6098 29.834 22.5822 29.2324 22.5822 28.0375C22.5822 27.4277 21.9724 26.8756 20.7528 26.3894L17.2999 25.005C16.138 24.5352 15.1986 23.8595 14.4734 22.9695C13.6246 21.9312 13.2043 20.7198 13.2043 19.3436C13.2043 17.5966 13.8718 16.1463 15.2068 15.0091C16.2451 14.1026 17.4977 13.5258 18.9481 13.2703L18.8327 10.6168H22.8376L22.6316 13.2703C23.5381 13.328 24.6753 13.5175 26.0515 13.8307V18.0499C24.2385 17.6214 22.747 17.3989 21.5686 17.3989C19.5249 17.3989 18.5031 18.0004 18.5031 19.1953C18.5031 19.8463 19.0305 20.3655 20.0935 20.761L22.8376 21.7664C26.1998 23.0025 27.8809 25.0379 27.8809 27.8727C27.8809 29.7186 27.2381 31.2431 25.9608 32.4462C24.9143 33.3857 23.6782 33.9955 22.2443 34.2757L22.3597 37.7532H18.3712V37.7285Z" stroke="#17479B" stroke-width="2.5" stroke-miterlimit="10"/>
</svg>
