<svg width="12" height="20" viewBox="0 0 12 20" fill="none" xmlns="http://www.w3.org/2000/svg">
<g clip-path="url(#clip0)">
<path d="M2.12018 9.65335C1.40951 9.65335 0.722521 9.65335 0.0236892 9.65335C0.0118446 9.55859 0 9.48753 0 9.41646C0 8.49258 0 7.5687 0 6.64482C0 6.44346 0.059223 6.39608 0.248737 6.39608C0.852812 6.40793 1.46873 6.39608 2.10834 6.39608C2.10834 6.28948 2.10834 6.19473 2.10834 6.11181C2.10834 5.29454 2.10834 4.47726 2.10834 3.65998C2.13203 1.59902 3.506 0.177669 5.57881 0.0947568C6.90541 0.0355338 8.232 0.0355338 9.5586 0C9.75995 0 9.83102 0.0710676 9.83102 0.272426C9.81918 1.23184 9.81918 2.19125 9.83102 3.15066C9.83102 3.35202 9.7718 3.41125 9.58229 3.3994C8.90714 3.38756 8.232 3.38756 7.54501 3.3994C6.88172 3.3994 6.51453 3.76658 6.50269 4.42988C6.50269 5.05764 6.50269 5.68541 6.50269 6.31317C6.50269 6.32502 6.51453 6.33686 6.52638 6.38424C7.61608 6.38424 8.70579 6.38424 9.84287 6.38424C9.70073 7.48579 9.57044 8.5518 9.42831 9.65335C8.4452 9.65335 7.47395 9.65335 6.479 9.65335C6.479 11.2642 6.479 12.8514 6.479 14.4504C6.479 16.0494 6.479 17.6366 6.479 19.2712C6.36055 19.283 6.24211 19.283 6.13551 19.283C4.91551 19.283 3.68367 19.283 2.46368 19.283C2.13203 19.283 2.10834 19.2593 2.10834 18.904C2.10834 15.931 2.10834 12.958 2.10834 9.97316C2.12018 9.89024 2.12018 9.78364 2.12018 9.65335Z" fill="#17479B"/>
</g>
<defs>
<clipPath id="clip0">
<rect width="11.0189" height="19.283" fill="white"/>
</clipPath>
</defs>
</svg>
