<svg width="55" height="62" viewBox="0 0 55 62" fill="none" xmlns="http://www.w3.org/2000/svg">
<path d="M46.7403 1.89429H4.59717C3.14636 1.89429 1.96385 3.0768 1.96385 4.52761L1.89429 35.3424V57.4723C1.89429 58.9231 3.0768 60.1056 4.52761 60.1056H46.6707C48.1215 60.1056 49.304 58.9231 49.304 57.4723L49.3736 30.8708V4.52761C49.3736 3.0768 48.1911 1.89429 46.7403 1.89429Z" fill="white"/>
<path d="M46.7403 1.89429H4.59717C3.14636 1.89429 1.96385 3.0768 1.96385 4.52761L1.89429 35.3425V57.4723C1.89429 58.9231 3.0768 60.1056 4.52761 60.1056H46.6707C48.1215 60.1056 49.304 58.9231 49.304 57.4723L49.3736 30.8708V4.52761C49.3736 3.0768 48.1911 1.89429 46.7403 1.89429Z" stroke="#194A9A" stroke-width="2.5" stroke-miterlimit="10" stroke-linecap="round" stroke-linejoin="round"/>
<path d="M9.13843 32.3217H39.3769" stroke="#194A9A" stroke-width="2.5" stroke-miterlimit="10" stroke-linecap="round" stroke-linejoin="round"/>
<path d="M9.13843 37.151H39.3769" stroke="#194A9A" stroke-width="2.5" stroke-miterlimit="10" stroke-linecap="round" stroke-linejoin="round"/>
<path d="M9.13843 41.9706H39.3769" stroke="#194A9A" stroke-width="2.5" stroke-miterlimit="10" stroke-linecap="round" stroke-linejoin="round"/>
<path d="M9.13843 46.7999H21.8777" stroke="#194A9A" stroke-width="2.5" stroke-miterlimit="10" stroke-linecap="round" stroke-linejoin="round"/>
<path d="M16.5615 20.248H9.31738V27.4922H16.5615V20.248Z" fill="#93B3DC"/>
<path d="M16.5615 20.248H9.31738V27.4922H16.5615V20.248Z" stroke="#194A9A" stroke-width="2.5" stroke-miterlimit="10" stroke-linecap="round" stroke-linejoin="round"/>
<path d="M27.8797 20.248H20.6356V27.4922H27.8797V20.248Z" fill="#93B3DC"/>
<path d="M27.8797 20.248H20.6356V27.4922H27.8797V20.248Z" stroke="#194A9A" stroke-width="2.5" stroke-miterlimit="10" stroke-linecap="round" stroke-linejoin="round"/>
<path d="M39.3769 20.248H32.1328V27.4922H39.3769V20.248Z" fill="#93B3DC"/>
<path d="M39.3769 20.248H32.1328V27.4922H39.3769V20.248Z" stroke="#194A9A" stroke-width="2.5" stroke-miterlimit="10" stroke-linecap="round" stroke-linejoin="round"/>
<path d="M16.5615 9.13843H9.31738V16.3825H16.5615V9.13843Z" fill="#93B3DC"/>
<path d="M16.5615 9.13843H9.31738V16.3825H16.5615V9.13843Z" stroke="#194A9A" stroke-width="2.5" stroke-miterlimit="10" stroke-linecap="round" stroke-linejoin="round"/>
<path d="M27.8797 9.13843H20.6356V16.3825H27.8797V9.13843Z" fill="#93B3DC"/>
<path d="M27.8797 9.13843H20.6356V16.3825H27.8797V9.13843Z" stroke="#194A9A" stroke-width="2.5" stroke-miterlimit="10" stroke-linecap="round" stroke-linejoin="round"/>
<path d="M39.3769 9.13843H32.1328V16.3825H39.3769V9.13843Z" fill="#93B3DC"/>
<path d="M39.3769 9.13843H32.1328V16.3825H39.3769V9.13843Z" stroke="#194A9A" stroke-width="2.5" stroke-miterlimit="10" stroke-linecap="round" stroke-linejoin="round"/>
<path d="M45.3193 23.0305V54.1236L49.314 60.1156L53.3087 54.1236V23.0305C53.3087 22.0169 52.484 21.1921 51.4604 21.1921H47.1577C46.1441 21.1921 45.3193 22.0169 45.3193 23.0305Z" fill="#93B3DC"/>
<path d="M45.3193 23.0305V54.1236L49.314 60.1156L53.3087 54.1236V23.0305C53.3087 22.0169 52.484 21.1921 51.4604 21.1921H47.1577C46.1441 21.1921 45.3193 22.0169 45.3193 23.0305Z" stroke="#194A9A" stroke-width="2.5" stroke-miterlimit="10" stroke-linecap="round" stroke-linejoin="round"/>
<path d="M53.0007 25.952H48.7874" stroke="#194A9A" stroke-width="2.5" stroke-miterlimit="10" stroke-linecap="round" stroke-linejoin="round"/>
</svg>
