<svg width="20" height="20" viewBox="0 0 20 20" fill="none" xmlns="http://www.w3.org/2000/svg">
<rect width="20" height="20" rx="10" fill="#C4C4C4"/>
<path fill-rule="evenodd" clip-rule="evenodd" d="M14.4193 5.66929C13.8091 5.0591 12.8198 5.0591 12.2096 5.66929L9.99978 7.8791L7.79019 5.66951C7.18 5.05932 6.19068 5.05932 5.58049 5.66951C4.97029 6.27971 4.97029 7.26903 5.58049 7.87922L7.79007 10.0888L5.58046 12.2984C4.97026 12.9086 4.97026 13.8979 5.58046 14.5081C6.19065 15.1183 7.17997 15.1183 7.79017 14.5081L9.99978 12.2985L12.2096 14.5083C12.8198 15.1185 13.8091 15.1185 14.4193 14.5083C15.0295 13.8982 15.0295 12.9088 14.4193 12.2986L12.2095 10.0888L14.4193 7.879C15.0295 7.26881 15.0295 6.27949 14.4193 5.66929Z" fill="white"/>
</svg>
