<svg width="24" height="21" viewBox="0 0 24 21" fill="none" xmlns="http://www.w3.org/2000/svg">
<g clip-path="url(#clip0)">
<path d="M0.0141055 17.1168C2.59541 17.3591 4.93692 16.7035 7.05274 15.1073C4.85228 14.922 3.37121 13.8103 2.55309 11.7153C3.30068 11.815 3.97774 11.8293 4.71123 11.6155C3.55458 11.3447 2.63772 10.7746 1.93245 9.87675C1.22718 8.97887 0.874539 7.96698 0.874539 6.78406C1.5516 7.12611 2.24277 7.33989 3.04678 7.38265C1.98887 6.61304 1.31181 5.6439 1.04381 4.40397C0.761696 3.17829 0.945067 2.00962 1.56571 0.897965C4.17522 3.99066 7.4618 5.7009 11.4819 5.97169C11.4536 5.6724 11.4254 5.40161 11.3972 5.13082C11.3267 4.03342 11.5947 3.03577 12.2153 2.15215C13.3297 0.541664 14.8813 -0.170938 16.8278 0.0428427C17.8857 0.156859 18.7885 0.612925 19.5502 1.36828C19.6771 1.4823 19.7759 1.52506 19.9451 1.4823C20.8479 1.26852 21.7083 0.954974 22.5123 0.498908C22.5829 0.456152 22.6534 0.427648 22.7662 0.37064C22.597 0.940722 22.329 1.42529 21.9763 1.8671C21.6378 2.30892 21.2287 2.67947 20.7633 2.99302C21.666 2.9075 22.5264 2.65097 23.3587 2.29467C23.3728 2.30892 23.3869 2.33742 23.401 2.35167C23.006 2.80774 22.6393 3.29231 22.2161 3.71987C21.9058 4.09042 21.5108 4.37546 21.1582 4.70326C21.1018 4.76027 21.0454 4.86003 21.0454 4.94555C21.1159 7.43965 20.5517 9.79124 19.395 11.9861C17.914 14.808 15.7699 16.9173 12.8501 18.1857C10.9035 19.0266 8.87234 19.3686 6.75652 19.2831C4.97923 19.2118 3.27247 18.8128 1.66445 18.0574C1.10023 17.8009 0.550113 17.4731 0 17.1881C0 17.1595 0.0141055 17.131 0.0141055 17.1168Z" fill="#17479B"/>
</g>
<defs>
<clipPath id="clip0">
<rect width="23.4151" height="20.6604" fill="white"/>
</clipPath>
</defs>
</svg>
