<svg width="30" height="29" viewBox="0 0 30 29" fill="none" xmlns="http://www.w3.org/2000/svg">
<g clip-path="url(#clip0)">
<path d="M9.12695 23.31C8.38101 23.921 6.06234 24.0065 5.60166 23.9806C5.09979 23.9531 5.42013 23.6934 5.42013 23.6934C6.49709 22.7371 6.47879 21.2493 6.42235 20.652C4.74437 18.3103 3.87639 15.2002 3.78944 11.392C3.68571 6.87498 5.73437 2.97818 8.97593 0.393555H7.08896C5.44651 0.393553 3.87122 1.0464 2.70912 2.20869C1.54701 3.37097 0.893135 4.94765 0.891113 6.59238V22.7937C0.892731 24.4387 1.54643 26.0157 2.70858 27.1783C3.87072 28.341 5.44625 28.994 7.08896 28.994H23.1594C24.8029 28.9936 26.379 28.3395 27.541 27.1756C28.703 26.0117 29.3558 24.4333 29.3558 22.7875V21.7702C26.7625 24.2005 23.1228 25.7021 18.7631 25.751C14.736 25.8014 11.5234 24.9597 9.12695 23.31Z" fill="#17479B"/>
<path d="M23.1599 0.385742H8.97334C5.73332 2.98259 3.68465 6.8748 3.78686 11.3918C3.87381 15.2 4.74788 18.3101 6.41976 20.6518C6.4762 21.243 6.49451 22.737 5.41755 23.6932C5.41755 23.6932 5.09721 23.9529 5.59908 23.9804C6.05671 24.0064 8.37842 23.9132 9.12436 23.3098C11.5208 24.9596 14.7273 25.8012 18.7605 25.7539C23.1202 25.705 26.7554 24.2034 29.3532 21.7731V6.59221C29.3532 4.94694 28.7008 3.369 27.5395 2.20519C26.3782 1.04139 24.8029 0.386957 23.1599 0.385742Z" fill="white"/>
<path d="M7.59455 11.0591V9.8584H13.1151V10.6359L9.11236 15.657H13.1121V16.4208C13.1121 16.4208 13.0282 16.7736 12.7261 16.7736H7.41455V16.1397L11.4356 11.0529L7.59455 11.0591Z" fill="#17479B"/>
<path d="M17.6733 11.5411V11.8848C17.27 11.5826 16.7907 11.3989 16.289 11.354C15.7873 11.3092 15.283 11.4051 14.8326 11.6309C14.3822 11.8567 14.0035 12.2037 13.7388 12.6328C13.4742 13.0619 13.334 13.5564 13.334 14.0608C13.334 14.5652 13.4742 15.0596 13.7388 15.4888C14.0035 15.9179 14.3822 16.2648 14.8326 16.4907C15.283 16.7165 15.7873 16.8124 16.289 16.7676C16.7907 16.7227 17.27 16.5389 17.6733 16.2368V16.2826C17.6733 16.4139 17.7254 16.5398 17.8181 16.6326C17.9108 16.7254 18.0365 16.7775 18.1676 16.7775H18.7915V11.5411H17.6733ZM16.0533 15.6166C15.747 15.6166 15.4476 15.5256 15.193 15.3552C14.9383 15.1848 14.7399 14.9425 14.6227 14.6591C14.5056 14.3757 14.475 14.0639 14.5349 13.7631C14.5947 13.4623 14.7424 13.186 14.959 12.9692C15.1757 12.7525 15.4518 12.6049 15.7522 12.5453C16.0526 12.4856 16.364 12.5165 16.6469 12.6341C16.9298 12.7517 17.1715 12.9507 17.3414 13.2058C17.5114 13.461 17.6019 13.7609 17.6016 14.0677C17.6016 14.2712 17.5616 14.4727 17.4838 14.6608C17.4059 14.8488 17.2919 15.0196 17.1481 15.1635C17.0043 15.3073 16.8336 15.4214 16.6457 15.4991C16.4579 15.5769 16.2566 15.6168 16.0533 15.6166Z" fill="#17479B"/>
<path d="M19.7095 9.79248H20.9298V16.7933H19.8788C19.8336 16.7925 19.7905 16.7739 19.7589 16.7416C19.7272 16.7094 19.7095 16.6659 19.7095 16.6207V9.79248Z" fill="#17479B"/>
<path d="M24.3936 11.2744C23.8441 11.2741 23.3069 11.437 22.8499 11.7425C22.3929 12.0479 22.0366 12.4823 21.8261 12.9905C21.6157 13.4988 21.5604 14.0581 21.6674 14.5978C21.7745 15.1375 22.0389 15.6333 22.4273 16.0225C22.8157 16.4117 23.3107 16.6768 23.8496 16.7842C24.3885 16.8917 24.9471 16.8367 25.4548 16.6262C25.9624 16.4157 26.3963 16.0592 26.7016 15.6017C27.0069 15.1442 27.1699 14.6063 27.1699 14.0561C27.1701 13.6909 27.0984 13.3292 26.959 12.9917C26.8196 12.6542 26.6151 12.3476 26.3573 12.0892C26.0995 11.8309 25.7933 11.626 25.4564 11.4862C25.1195 11.3464 24.7583 11.2744 24.3936 11.2744ZM24.3936 15.686C24.0715 15.6857 23.7566 15.5898 23.4889 15.4103C23.2212 15.2309 23.0126 14.976 22.8895 14.6778C22.7665 14.3797 22.7344 14.0517 22.7975 13.7354C22.8605 13.419 23.0158 13.1284 23.2437 12.9004C23.4716 12.6724 23.7619 12.5172 24.0779 12.4544C24.3938 12.3915 24.7213 12.4239 25.0189 12.5475C25.3165 12.671 25.5709 12.8801 25.7498 13.1484C25.9288 13.4166 26.0243 13.732 26.0243 14.0546C26.0243 14.2689 25.9821 14.4811 25.9001 14.679C25.8181 14.877 25.698 15.0568 25.5465 15.2082C25.395 15.3596 25.2152 15.4796 25.0174 15.5613C24.8196 15.643 24.6076 15.6849 24.3936 15.6845V15.686Z" fill="#17479B"/>
</g>
<defs>
<clipPath id="clip0">
<rect width="28.5714" height="28.5714" fill="white" transform="translate(0.855469 0.428711)"/>
</clipPath>
</defs>
</svg>
