<svg width="62" height="62" viewBox="0 0 62 62" fill="none" xmlns="http://www.w3.org/2000/svg">
<path d="M27.2165 10.8555H40.5539L30.7805 25.286H33.4167L35.7223 22.9804L37.9268 20.7759L46.0193 12.6834C41.9225 9.34904 36.696 7.34659 31.0009 7.34659C17.8564 7.34659 7.20117 18.0018 7.20117 31.1463C7.20117 36.8414 9.20362 42.068 12.538 46.1647L26.647 32.0557L27.2992 31.4035L18.481 31.3852L27.2165 10.8555Z" fill="#17479B"/>
<path d="M27.2165 10.8555H40.5539L30.7805 25.286H33.4167L35.7223 22.9804L37.9268 20.7759L46.0193 12.6834C41.9225 9.34904 36.696 7.34659 31.0009 7.34659C17.8564 7.34659 7.20117 18.0018 7.20117 31.1463C7.20117 36.8414 9.20362 42.068 12.538 46.1647L26.647 32.0557L27.2992 31.4035L18.481 31.3852L27.2165 10.8555Z" stroke="#194A9A" stroke-width="1.703" stroke-miterlimit="10" stroke-linecap="round" stroke-linejoin="round"/>
<path d="M49.4632 16.128L40.3052 25.286H43.5109L25.8104 51.4372L34.2795 31.4127H34.1692L31.533 34.049L27.5373 38.0447L22.9077 42.6742L15.9727 49.6093C20.0694 52.9436 25.296 54.9461 30.991 54.9461C44.1355 54.9461 54.7908 44.2909 54.7908 31.1463C54.8 25.4513 52.7975 20.2247 49.4632 16.128Z" fill="#17479B"/>
<path d="M49.4632 16.128L40.3052 25.286H43.5109L25.8104 51.4372L34.2795 31.4127H34.1692L31.533 34.049L27.5373 38.0447L22.9077 42.6742L15.9727 49.6093C20.0694 52.9437 25.296 54.9461 30.991 54.9461C44.1356 54.9461 54.7908 44.2909 54.7908 31.1463C54.8 25.4513 52.7975 20.2247 49.4632 16.128Z" stroke="#194A9A" stroke-width="1.703" stroke-miterlimit="10" stroke-linecap="round" stroke-linejoin="round"/>
<path d="M33.4168 25.286H30.7805L40.5631 10.8555H27.2257L18.4902 31.376L27.2992 31.3944L31.4786 27.2241L33.4168 25.286Z" fill="#93B3DC"/>
<path d="M33.4168 25.286H30.7805L40.5631 10.8555H27.2257L18.4902 31.376L27.2992 31.3944L31.4786 27.2241L33.4168 25.286Z" stroke="white" stroke-width="2.5" stroke-miterlimit="10" stroke-linecap="round" stroke-linejoin="round"/>
<path d="M25.8105 51.4372L43.5111 25.286H40.3053L36.328 29.2633L34.1694 31.4127H34.2796L25.8105 51.4372Z" fill="#93B3DC"/>
<path d="M25.8105 51.4372L43.5111 25.286H40.3053L36.328 29.2633L34.1694 31.4127H34.2796L25.8105 51.4372Z" stroke="white" stroke-width="2.5" stroke-miterlimit="10" stroke-linecap="round" stroke-linejoin="round"/>
<path d="M31.0005 1.92712C14.8615 1.92712 1.78125 15.0073 1.78125 31.1464C1.78125 47.2854 14.8615 60.3656 31.0005 60.3656C47.1395 60.3656 60.2197 47.2854 60.2197 31.1464C60.2197 15.0073 47.1395 1.92712 31.0005 1.92712ZM7.20072 31.1464C7.20072 18.0018 17.856 7.3466 31.0005 7.3466C36.6955 7.3466 41.9221 9.34905 46.0188 12.6834L37.9264 20.7759L35.7219 22.9804L33.4163 25.286L31.4781 27.2241L27.3079 31.3944L26.6557 32.0465L22.0813 36.6209L12.5375 46.1647C9.20317 42.068 7.20072 36.8414 7.20072 31.1464ZM31.0005 54.9461C25.3054 54.9461 20.0789 52.9437 15.9821 49.6093L22.9172 42.6742L27.5467 38.0447L31.5424 34.049L34.1787 31.4127L36.3373 29.2541L40.3146 25.2768L49.4726 16.1188C52.807 20.2155 54.8094 25.4421 54.8094 31.1372C54.8002 44.2909 44.145 54.9461 31.0005 54.9461Z" fill="#17479B"/>
<path d="M31.0005 1.92712C14.8615 1.92712 1.78125 15.0073 1.78125 31.1464C1.78125 47.2854 14.8615 60.3656 31.0005 60.3656C47.1395 60.3656 60.2197 47.2854 60.2197 31.1464C60.2197 15.0073 47.1395 1.92712 31.0005 1.92712ZM7.20072 31.1464C7.20072 18.0018 17.856 7.3466 31.0005 7.3466C36.6955 7.3466 41.9221 9.34905 46.0188 12.6834L37.9264 20.7759L35.7218 22.9804L33.4163 25.286L31.4781 27.2241L27.3079 31.3944L26.6557 32.0465L22.0813 36.6209L12.5375 46.1647C9.20317 42.068 7.20072 36.8414 7.20072 31.1464ZM31.0005 54.9461C25.3054 54.9461 20.0789 52.9437 15.9821 49.6093L22.9172 42.6742L27.5467 38.0447L31.5424 34.049L34.1787 31.4127L36.3373 29.2541L40.3146 25.2768L49.4726 16.1188C52.807 20.2155 54.8094 25.4421 54.8094 31.1372C54.8002 44.2909 44.145 54.9461 31.0005 54.9461Z" stroke="white" stroke-width="2.5" stroke-miterlimit="10" stroke-linecap="round" stroke-linejoin="round"/>
</svg>
