<svg width="30" height="29" viewBox="0 0 30 29" fill="none" xmlns="http://www.w3.org/2000/svg">
<path d="M27.7044 0H17.3127C16.5953 0 16.0137 0.581592 16.0137 1.29898C16.0137 2.01637 16.5953 2.59796 17.3127 2.59796H24.5684L11.1983 15.9681C10.691 16.4754 10.691 17.2978 11.1983 17.8051C11.4519 18.0587 11.7843 18.1855 12.1168 18.1855C12.4492 18.1855 12.7817 18.0588 13.0353 17.805L26.4055 4.43494V11.6907C26.4055 12.4081 26.9871 12.9897 27.7045 12.9897C28.4218 12.9897 29.0034 12.4081 29.0034 11.6907V1.29898C29.0034 0.581592 28.4218 0 27.7044 0Z" fill="#17479B"/>
<path d="M22.5092 12.9896C21.7918 12.9896 21.2102 13.5712 21.2102 14.2886V25.9793H3.02466V7.79371H14.7154C15.4328 7.79371 16.0144 7.21212 16.0144 6.49473C16.0144 5.77734 15.4328 5.1958 14.7154 5.1958H1.72574C1.00835 5.1958 0.426758 5.77739 0.426758 6.49478V27.2783C0.426758 27.9956 1.00835 28.5772 1.72574 28.5772H22.5092C23.2266 28.5772 23.8082 27.9956 23.8082 27.2782V14.2886C23.8081 13.5712 23.2266 12.9896 22.5092 12.9896Z" fill="#17479B"/>
</svg>
