<svg width="66" height="62" viewBox="0 0 66 62" fill="none" xmlns="http://www.w3.org/2000/svg">
<path d="M42.8984 38.6289C42.2298 38.6289 41.6875 39.171 41.6875 39.8398V48.1953C41.6875 51.5339 38.9714 54.25 35.6328 54.25H22.5586C21.89 54.25 21.3481 54.7917 21.3476 55.4601L21.3459 57.8677L18.4557 54.9775C18.2686 54.548 17.8404 54.25 17.3451 54.25H9.47656C6.13801 54.25 3.42188 51.5339 3.42188 48.1953V29.5469C3.42188 26.2083 6.13801 23.4922 9.47656 23.4922H21.707C22.3757 23.4922 22.918 22.9501 22.918 22.2812C22.918 21.6124 22.3757 21.0703 21.707 21.0703H9.47656C4.80259 21.0703 1 24.8729 1 29.5469V48.1953C1 52.8693 4.80259 56.6719 9.47656 56.6719H16.725L21.6984 61.6453C21.9301 61.877 22.2397 62 22.5549 62C22.7108 62 22.8681 61.9698 23.0176 61.908C23.4702 61.7208 23.7653 61.2795 23.7656 60.7899L23.7685 56.6719H35.6328C40.3068 56.6719 44.1094 52.8693 44.1094 48.1953V39.8398C44.1094 39.171 43.5671 38.6289 42.8984 38.6289Z" fill="white"/>
<path d="M56.7022 5.84152C53.4073 2.83625 48.837 1.10742 44.1782 1.10742C39.5193 1.10742 34.9491 2.83625 31.6542 5.84152C28.3593 8.84679 26.4639 13.0154 26.4639 17.2648C26.4639 21.5303 28.3611 25.6989 31.6542 28.7042C34.9491 31.7095 39.5193 33.4222 44.1782 33.4222C48.837 33.4222 54.1424 35.9824 54.1424 35.9824C54.1424 35.9824 61.8924 21.5303 61.8924 17.2648C61.8924 13.0154 59.9953 8.84679 56.7022 5.84152Z" fill="#93B3DC"/>
<path d="M45.3996 0H42.3349C32.6299 0 24.7344 7.89555 24.7344 17.6005C24.7344 27.3054 32.6299 35.2009 42.3347 35.2009H45.3995C46.9143 35.2009 48.4135 35.0084 49.8667 34.6282L54.394 39.153C54.6256 39.3844 54.9352 39.5074 55.2502 39.5074C55.4063 39.5074 55.5638 39.4773 55.7135 39.4152C56.166 39.2277 56.4609 38.7862 56.4609 38.2965V31.2905C58.3777 29.7382 59.97 27.7773 61.0874 25.5867C62.3566 23.0988 63 20.4118 63 17.6005C63 7.89555 55.1044 0 45.3996 0ZM54.5214 29.7328C54.2178 29.9615 54.0391 30.3197 54.0391 30.7V35.3743L51.0758 32.4126C50.8452 32.1822 50.5359 32.0581 50.2196 32.0581C50.101 32.0581 49.9811 32.0757 49.8641 32.1116C48.4227 32.5546 46.9207 32.7791 45.3996 32.7791H42.3349C33.9652 32.7791 27.1562 25.97 27.1562 17.6005C27.1562 9.23098 33.9654 2.42187 42.3349 2.42187H45.3996C53.7691 2.42187 60.5781 9.23098 60.5781 17.6005C60.5781 22.4117 58.3706 26.8338 54.5214 29.7328Z" fill="white"/>
<path d="M49.3211 13.2484C49.1464 10.7133 47.1028 8.66973 44.5676 8.495C43.1304 8.39631 41.7589 8.88104 40.7092 9.86105C39.6738 10.8275 39.0801 12.1937 39.0801 13.6094C39.0801 14.2782 39.6223 14.8203 40.291 14.8203C40.9597 14.8203 41.502 14.2782 41.502 13.6094C41.502 12.8515 41.8074 12.149 42.3617 11.6316C42.9156 11.1146 43.6395 10.8587 44.4012 10.9113C45.7366 11.0033 46.813 12.0797 46.905 13.415C46.998 14.7637 46.1132 15.9555 44.8013 16.249C43.7383 16.4868 42.996 17.4105 42.996 18.4952V21.4044C42.996 22.0732 43.5383 22.6154 44.2069 22.6154C44.8757 22.6154 45.4179 22.0732 45.4178 21.4044V18.5919C47.8578 18.0024 49.4949 15.7697 49.3211 13.2484Z" fill="white"/>
<path d="M45.0622 25.3411C44.837 25.1159 44.5245 24.9863 44.2061 24.9863C43.8876 24.9863 43.5752 25.1159 43.3499 25.3411C43.1247 25.5664 42.9951 25.8788 42.9951 26.1973C42.9951 26.517 43.1248 26.8294 43.3499 27.0546C43.5752 27.2798 43.8876 27.4082 44.2061 27.4082C44.5245 27.4082 44.837 27.2798 45.0622 27.0546C45.2874 26.8282 45.417 26.517 45.417 26.1973C45.417 25.8788 45.2873 25.5664 45.0622 25.3411Z" fill="white"/>
<path d="M34.3008 37.5391H8.75C8.08132 37.5391 7.53906 38.0812 7.53906 38.75C7.53906 39.4188 8.08132 39.9609 8.75 39.9609H34.3008C34.9696 39.9609 35.5117 39.4188 35.5117 38.75C35.5117 38.0812 34.9695 37.5391 34.3008 37.5391Z" fill="white"/>
<path d="M35.1568 44.6751C34.9317 44.4499 34.6193 44.3203 34.3008 44.3203C33.9823 44.3203 33.6699 44.4499 33.4446 44.6751C33.2193 44.9004 33.0898 45.2128 33.0898 45.5312C33.0898 45.8497 33.2194 46.1621 33.4446 46.3874C33.6699 46.6126 33.9823 46.7422 34.3008 46.7422C34.6193 46.7422 34.9317 46.6126 35.1568 46.3874C35.3821 46.1621 35.5117 45.8509 35.5117 45.5312C35.5117 45.2128 35.382 44.9004 35.1568 44.6751Z" fill="white"/>
<path d="M29.5378 44.3203H8.75C8.08132 44.3203 7.53906 44.8624 7.53906 45.5312C7.53906 46.2001 8.08132 46.7422 8.75 46.7422H29.5378C30.2066 46.7422 30.7487 46.2001 30.7487 45.5312C30.7487 44.8624 30.2065 44.3203 29.5378 44.3203Z" fill="white"/>
<path d="M26.4297 30.7578H8.75C8.08132 30.7578 7.53906 31.2999 7.53906 31.9688C7.53906 32.6376 8.08132 33.1797 8.75 33.1797H26.4297C27.0985 33.1797 27.6406 32.6376 27.6406 31.9688C27.6406 31.2999 27.0984 30.7578 26.4297 30.7578Z" fill="white"/>
</svg>
