<svg width="60" height="60" viewBox="0 0 60 60" fill="none" xmlns="http://www.w3.org/2000/svg">
<circle cx="30" cy="30" r="30" fill="#17479B"/>
<path fill-rule="evenodd" clip-rule="evenodd" d="M41.9714 42.3629C47.5758 36.832 48.9815 28.0204 44.8607 20.883C39.9645 12.4026 29.1207 9.49699 20.6403 14.3931C12.1599 19.2893 9.25428 30.1331 14.1504 38.6135C18.2712 45.7509 26.6049 48.9394 34.1969 46.8514L39.9173 48.5028C40.1899 48.5814 40.4732 48.4178 40.5413 48.1425L41.9714 42.3629Z" fill="white"/>
<circle r="1.5" transform="matrix(-4.37114e-08 1 1 4.37114e-08 21.5 30.5)" fill="#17479B"/>
<circle r="1.5" transform="matrix(-4.37114e-08 1 1 4.37114e-08 29.5 30.5)" fill="#17479B"/>
<circle r="1.5" transform="matrix(-4.37114e-08 1 1 4.37114e-08 37.5 30.5)" fill="#17479B"/>
</svg>
