<svg width="41" height="62" viewBox="0 0 41 62" fill="none" xmlns="http://www.w3.org/2000/svg">
<path d="M11.8281 49.9328H29.2735" stroke="white" stroke-width="2.5" stroke-miterlimit="10"/>
<path d="M13.3037 53.295H27.799" stroke="white" stroke-width="2.5" stroke-miterlimit="10"/>
<path d="M15.0342 56.4512C15.8912 58.6679 18.0338 60.2419 20.5472 60.2419C23.0605 60.2419 25.2114 58.6679 26.0601 56.4512H15.0342Z" fill="#17479B"/>
<path d="M15.0342 56.4512C15.8912 58.6679 18.0338 60.2419 20.5472 60.2419C23.0605 60.2419 25.2114 58.6679 26.0601 56.4512H15.0342Z" fill="#4E7BCA" stroke="white" stroke-width="2.5" stroke-miterlimit="10"/>
<path d="M36.7919 30.6411C38.5554 27.7734 39.5855 24.403 39.5855 20.7936C39.5855 20.7853 39.5855 20.7771 39.5855 20.7771C39.5855 20.4722 39.5773 20.1755 39.5608 19.8706C39.5525 19.7718 39.5443 19.6646 39.5361 19.5657C39.5196 19.3597 39.5113 19.1619 39.4866 18.9559C39.4784 18.8406 39.4619 18.7169 39.4454 18.6016C39.4207 18.4203 39.4042 18.239 39.3712 18.0577C39.3548 17.9341 39.33 17.8105 39.3136 17.6869C39.2806 17.5138 39.2559 17.3325 39.2147 17.1595C39.1899 17.0359 39.1652 16.9123 39.1405 16.7969C39.0993 16.6238 39.0581 16.4508 39.0169 16.2695C38.9839 16.1541 38.9592 16.0387 38.9262 15.9234C38.8768 15.7421 38.8274 15.5608 38.7697 15.3795C38.7367 15.2806 38.712 15.1735 38.679 15.0746C38.6049 14.8356 38.5225 14.5966 38.4318 14.3577C38.4153 14.3165 38.4071 14.2835 38.3906 14.2423C38.2917 13.9703 38.1846 13.7066 38.0692 13.4347C38.028 13.3358 37.9868 13.2452 37.9374 13.1463C37.8632 12.9732 37.7808 12.8084 37.7066 12.6436C37.6572 12.5365 37.5995 12.4294 37.5418 12.3222C37.4677 12.1739 37.3852 12.0173 37.3111 11.869C37.2534 11.7536 37.1875 11.6465 37.1298 11.5394C37.0474 11.3993 36.965 11.2592 36.8826 11.1191C36.8166 11.012 36.7507 10.8966 36.6848 10.7895C36.6024 10.6494 36.5117 10.5175 36.4211 10.3774C36.3469 10.2703 36.281 10.1632 36.2068 10.0643C36.108 9.9242 36.0091 9.79235 35.9102 9.65226C35.836 9.55337 35.7701 9.46273 35.6959 9.36384C35.5723 9.20727 35.4487 9.0507 35.3169 8.89412C35.2509 8.81172 35.1768 8.72107 35.1108 8.63866C34.946 8.44089 34.773 8.25136 34.6082 8.06182C34.5258 7.97117 34.4433 7.88877 34.3527 7.79812C34.2373 7.67451 34.122 7.55914 34.0066 7.44377C33.9077 7.35313 33.8171 7.25424 33.7182 7.16359C33.6028 7.05646 33.4957 6.95758 33.3803 6.85045C33.2814 6.7598 33.1743 6.66916 33.0672 6.57851C32.9518 6.47962 32.8447 6.38897 32.7293 6.29009C32.6222 6.19944 32.515 6.11703 32.4079 6.02639C32.2925 5.93574 32.1689 5.84509 32.0536 5.75445C31.9382 5.67204 31.8311 5.58963 31.7157 5.50723C31.5921 5.41658 31.4685 5.33417 31.3449 5.25177C31.2295 5.1776 31.1141 5.0952 30.9988 5.02103C30.8587 4.93038 30.7186 4.84798 30.5785 4.76557C30.4137 4.66668 30.2571 4.5678 30.0923 4.47715C29.911 4.37002 29.7297 4.27113 29.5402 4.17225C29.4166 4.10632 29.293 4.04864 29.1693 3.98271C29.0375 3.91679 28.9056 3.85086 28.7656 3.78494C28.6337 3.71901 28.5019 3.66133 28.37 3.60364C28.2382 3.54596 28.1063 3.48827 27.9745 3.43059C27.8426 3.3729 27.7025 3.32346 27.5624 3.26578C27.4306 3.21633 27.2905 3.16689 27.1586 3.11745C27.0185 3.068 26.8784 3.01856 26.7384 2.96911C26.5983 2.92791 26.4664 2.87847 26.3263 2.83726C26.1862 2.79606 26.0379 2.74662 25.8978 2.70541C25.7577 2.66421 25.6094 2.63125 25.4693 2.59005C25.3292 2.55708 25.1809 2.51588 25.0408 2.48292C24.8842 2.44995 24.7276 2.41699 24.5711 2.38403C23.2114 2.10385 21.794 1.972 20.3436 2.00496C15.3663 2.12033 10.8587 4.20521 7.56242 7.49322C7.54594 7.5097 7.52946 7.52618 7.50474 7.5509C7.33993 7.71571 7.17511 7.88877 7.0103 8.07006C6.97734 8.10302 6.94438 8.14423 6.90317 8.17719C6.75484 8.342 6.61475 8.50682 6.47466 8.67163C6.42522 8.72931 6.37577 8.787 6.33457 8.83644C6.20272 9.00125 6.07911 9.15782 5.9555 9.3144C5.89782 9.38856 5.84837 9.45449 5.79069 9.52865C5.67532 9.67698 5.55995 9.83356 5.45282 9.99013C5.39514 10.0725 5.33745 10.1549 5.27977 10.2373C5.18088 10.3857 5.08199 10.5422 4.98311 10.6906C4.92542 10.7812 4.8595 10.8801 4.80181 10.9708C4.71117 11.1273 4.62052 11.2757 4.52987 11.424C4.47219 11.5311 4.4145 11.63 4.34858 11.7371C4.26617 11.8855 4.19201 12.0338 4.1096 12.1821C4.05192 12.2975 3.99423 12.4046 3.93655 12.52C3.86238 12.6683 3.79646 12.8084 3.72229 12.9568C3.66461 13.0804 3.61516 13.204 3.55748 13.3193C3.49155 13.4594 3.43387 13.6078 3.37618 13.7479C3.32674 13.8797 3.2773 14.0116 3.21961 14.1352C3.16193 14.2753 3.11248 14.4236 3.06304 14.5637C3.0136 14.7038 2.97239 14.8356 2.92295 14.9757C2.88999 15.124 2.84054 15.2641 2.79934 15.4042C2.75814 15.5525 2.71693 15.6926 2.67573 15.841C2.63453 15.9811 2.60157 16.1212 2.56036 16.2612C2.51916 16.4096 2.4862 16.5661 2.45323 16.7227C2.42027 16.8628 2.38731 16.9947 2.36259 17.1348C2.32963 17.2996 2.3049 17.4561 2.27194 17.6209C2.24722 17.7528 2.2225 17.8846 2.20602 18.0247C2.18953 18.1896 2.16481 18.3626 2.14833 18.5439C2.13185 18.6675 2.11537 18.7911 2.09889 18.923C2.08241 19.1125 2.06593 19.3103 2.04944 19.508C2.0412 19.6152 2.03296 19.7223 2.02472 19.8294C2.00824 20.1179 2 20.4063 2 20.7029C2 20.7194 2 20.7359 2 20.7524C2 21.5682 2.05768 22.3675 2.15657 23.1586C2.66749 27.2542 4.49691 30.9378 7.20808 33.7726C8.26288 34.8768 8.84796 36.3436 8.84796 37.8764V41.7413C8.84796 43.8426 10.1253 45.6473 11.9464 46.4137C12.3997 46.6032 12.8941 46.7351 13.405 46.7845C13.5781 46.801 13.7511 46.8092 13.9242 46.8092H27.6613C27.8344 46.8092 28.0074 46.801 28.1805 46.7845C28.8562 46.7186 29.4907 46.5126 30.0676 46.2077C30.0758 46.2077 30.0758 46.1994 30.0841 46.1994C31.6663 45.3424 32.7375 43.6613 32.7375 41.7413V37.8764C32.7375 36.7557 33.0672 35.6762 33.6522 34.7285C33.8747 34.3659 34.1384 34.028 34.4351 33.7149C35.3169 32.7755 36.108 31.7454 36.7919 30.6411Z" stroke="white" stroke-width="2.5" stroke-miterlimit="10"/>
<path d="M18.371 37.7285L18.577 34.2509C16.9289 34.0367 15.2148 33.6741 13.4431 33.1632V28.4166C15.9565 29.3643 18.0331 29.834 19.6648 29.834C21.6095 29.834 22.5819 29.2324 22.5819 28.0375C22.5819 27.4277 21.9721 26.8756 20.7525 26.3894L17.2997 25.005C16.1378 24.5352 15.1983 23.8595 14.4732 22.9695C13.6244 21.9312 13.2041 20.7198 13.2041 19.3436C13.2041 17.5966 13.8716 16.1463 15.2066 15.0091C16.2449 14.1026 17.4975 13.5258 18.9478 13.2703L18.8324 10.6168H22.8374L22.6314 13.2703C23.5378 13.328 24.6751 13.5175 26.0512 13.8307V18.0499C24.2383 17.6214 22.7467 17.3989 21.5683 17.3989C19.5247 17.3989 18.5028 18.0004 18.5028 19.1953C18.5028 19.8463 19.0302 20.3655 20.0933 20.761L22.8374 21.7664C26.1996 23.0025 27.8807 25.0379 27.8807 27.8727C27.8807 29.7186 27.2379 31.2431 25.9606 32.4462C24.914 33.3857 23.6779 33.9955 22.2441 34.2757L22.3594 37.7532H18.371V37.7285Z" fill="#93B3DC"/>
<path d="M18.371 37.7285L18.577 34.2509C16.9289 34.0367 15.2148 33.6741 13.4431 33.1632V28.4166C15.9565 29.3643 18.0331 29.834 19.6648 29.834C21.6095 29.834 22.5819 29.2324 22.5819 28.0375C22.5819 27.4277 21.9721 26.8756 20.7525 26.3894L17.2997 25.005C16.1378 24.5352 15.1983 23.8595 14.4732 22.9695C13.6244 21.9312 13.2041 20.7198 13.2041 19.3436C13.2041 17.5966 13.8716 16.1463 15.2066 15.0091C16.2449 14.1026 17.4975 13.5258 18.9478 13.2703L18.8324 10.6168H22.8374L22.6314 13.2703C23.5378 13.328 24.6751 13.5175 26.0512 13.8307V18.0499C24.2383 17.6214 22.7467 17.3989 21.5683 17.3989C19.5247 17.3989 18.5028 18.0004 18.5028 19.1953C18.5028 19.8463 19.0302 20.3655 20.0933 20.761L22.8374 21.7664C26.1996 23.0025 27.8807 25.0379 27.8807 27.8727C27.8807 29.7186 27.2379 31.2431 25.9606 32.4462C24.914 33.3857 23.6779 33.9955 22.2441 34.2757L22.3594 37.7532H18.371V37.7285Z" stroke="white" stroke-width="2.5" stroke-miterlimit="10"/>
</svg>
