<svg width="62" height="62" viewBox="0 0 62 62" fill="none" xmlns="http://www.w3.org/2000/svg">
<path d="M27.2155 10.8554H40.5529L30.7795 25.2859H33.4158L35.7213 22.9804L37.9259 20.7758L46.0183 12.6834C41.9216 9.34901 36.695 7.34656 31 7.34656C17.8554 7.34656 7.2002 18.0018 7.2002 31.1463C7.2002 36.8414 9.20265 42.0679 12.537 46.1647L26.646 32.0557L27.2982 31.4035L18.48 31.3851L27.2155 10.8554Z" fill="white"/>
<path d="M27.2155 10.8554H40.5529L30.7795 25.2859H33.4158L35.7213 22.9804L37.9259 20.7758L46.0183 12.6834C41.9216 9.34901 36.695 7.34656 31 7.34656C17.8554 7.34656 7.2002 18.0018 7.2002 31.1463C7.2002 36.8414 9.20265 42.0679 12.537 46.1647L26.646 32.0557L27.2982 31.4035L18.48 31.3851L27.2155 10.8554Z" stroke="#194A9A" stroke-width="1.703" stroke-miterlimit="10" stroke-linecap="round" stroke-linejoin="round"/>
<path d="M49.4629 16.1279L40.3049 25.2859H43.5107L25.8101 51.4372L34.2792 31.4127H34.169L31.5327 34.0489L27.537 38.0446L22.9075 42.6742L15.9724 49.6092C20.0692 52.9436 25.2957 54.9461 30.9908 54.9461C44.1353 54.9461 54.7905 44.2908 54.7905 31.1463C54.7997 25.4513 52.7973 20.2247 49.4629 16.1279Z" fill="white"/>
<path d="M49.4629 16.1279L40.3049 25.2859H43.5107L25.8101 51.4372L34.2792 31.4127H34.169L31.5327 34.0489L27.537 38.0446L22.9075 42.6742L15.9724 49.6093C20.0692 52.9436 25.2957 54.9461 30.9908 54.9461C44.1353 54.9461 54.7905 44.2908 54.7905 31.1463C54.7997 25.4513 52.7973 20.2247 49.4629 16.1279Z" stroke="#194A9A" stroke-width="1.703" stroke-miterlimit="10" stroke-linecap="round" stroke-linejoin="round"/>
<path d="M33.4158 25.286H30.7795L40.5621 10.8555H27.2247L18.4893 31.376L27.2982 31.3944L31.4776 27.2241L33.4158 25.286Z" fill="#93B3DC"/>
<path d="M33.4158 25.286H30.7795L40.5621 10.8555H27.2247L18.4893 31.376L27.2982 31.3944L31.4776 27.2241L33.4158 25.286Z" stroke="#194A9A" stroke-width="2.5" stroke-miterlimit="10" stroke-linecap="round" stroke-linejoin="round"/>
<path d="M25.8102 51.4373L43.5107 25.286H40.305L36.3276 29.2634L34.169 31.4128H34.2793L25.8102 51.4373Z" fill="#93B3DC"/>
<path d="M25.8102 51.4373L43.5107 25.286H40.305L36.3276 29.2634L34.169 31.4128H34.2793L25.8102 51.4373Z" stroke="#194A9A" stroke-width="2.5" stroke-miterlimit="10" stroke-linecap="round" stroke-linejoin="round"/>
<path d="M31 1.92712C14.861 1.92712 1.78076 15.0073 1.78076 31.1464C1.78076 47.2854 14.861 60.3656 31 60.3656C47.139 60.3656 60.2192 47.2854 60.2192 31.1464C60.2192 15.0073 47.139 1.92712 31 1.92712ZM7.20023 31.1464C7.20023 18.0018 17.8555 7.3466 31 7.3466C36.695 7.3466 41.9216 9.34905 46.0184 12.6834L37.9259 20.7759L35.7214 22.9804L33.4158 25.286L31.4776 27.2241L27.3074 31.3944L26.6552 32.0465L22.0808 36.6209L12.537 46.1647C9.20268 42.068 7.20023 36.8414 7.20023 31.1464ZM31 54.9461C25.3049 54.9461 20.0784 52.9437 15.9816 49.6093L22.9167 42.6742L27.5462 38.0447L31.5419 34.049L34.1782 31.4127L36.3368 29.2541L40.3141 25.2768L49.4721 16.1188C52.8065 20.2155 54.8089 25.4421 54.8089 31.1372C54.7997 44.2909 44.1445 54.9461 31 54.9461Z" fill="white"/>
<path d="M31 1.92712C14.861 1.92712 1.78076 15.0073 1.78076 31.1464C1.78076 47.2854 14.861 60.3656 31 60.3656C47.139 60.3656 60.2192 47.2854 60.2192 31.1464C60.2192 15.0073 47.139 1.92712 31 1.92712ZM7.20024 31.1464C7.20024 18.0018 17.8555 7.3466 31 7.3466C36.695 7.3466 41.9216 9.34905 46.0184 12.6834L37.9259 20.7759L35.7214 22.9804L33.4158 25.286L31.4776 27.2241L27.3074 31.3944L26.6552 32.0465L22.0808 36.6209L12.537 46.1647C9.20268 42.068 7.20024 36.8414 7.20024 31.1464ZM31 54.9461C25.3049 54.9461 20.0784 52.9437 15.9816 49.6093L22.9167 42.6742L27.5462 38.0447L31.5419 34.049L34.1782 31.4127L36.3368 29.2541L40.3141 25.2768L49.4721 16.1188C52.8065 20.2155 54.8089 25.4421 54.8089 31.1372C54.7997 44.2909 44.1445 54.9461 31 54.9461Z" stroke="#194A9A" stroke-width="2.5" stroke-miterlimit="10" stroke-linecap="round" stroke-linejoin="round"/>
</svg>
