<svg width="60" height="60" viewBox="0 0 60 60" fill="none" xmlns="http://www.w3.org/2000/svg">
<circle cx="30" cy="30" r="30" fill="#17479B"/>
<path fill-rule="evenodd" clip-rule="evenodd" d="M42.1357 42.5195C47.8201 36.9098 49.2458 27.9724 45.0662 20.7331C40.1002 12.1318 29.1017 9.18475 20.5004 14.1507C11.899 19.1167 8.952 30.1152 13.918 38.7166C18.0975 45.9557 26.5501 49.1897 34.2503 47.0719L40.0594 48.7489C40.332 48.8276 40.6153 48.664 40.6834 48.3886L42.1357 42.5195Z" fill="white"/>
<path d="M37.8022 36.8966L36.9831 37.7101C35.9244 38.7905 34.3869 39.2354 32.925 38.8795C31.4505 38.4791 30.0516 37.8499 28.7724 37.0046C27.5878 36.2419 26.4913 35.3458 25.4957 34.3416C24.582 33.4264 23.7629 32.4223 23.0508 31.3482C22.2694 30.1915 21.6519 28.9267 21.2108 27.5984C20.7067 26.035 21.1226 24.319 22.2883 23.1686L23.2461 22.2026C23.5108 21.9357 23.9456 21.9293 24.2102 22.2026L27.2349 25.2469C27.4995 25.5138 27.5058 25.9523 27.2349 26.2193L25.4579 28.0179C24.9475 28.5263 24.8845 29.3335 25.3067 29.9182C25.9494 30.808 26.6615 31.6405 27.4302 32.4159C28.2935 33.2866 29.2261 34.0811 30.228 34.7865C30.8078 35.1933 31.5891 35.1234 32.0869 34.6213L33.8009 32.8672C34.0655 32.6002 34.5003 32.6002 34.765 32.8672L37.7896 35.9242C38.0669 36.1911 38.0669 36.6296 37.8022 36.8966Z" fill="#17479B"/>
</svg>
