<svg width="66" height="62" viewBox="0 0 66 62" fill="none" xmlns="http://www.w3.org/2000/svg">
<path d="M43.5469 39.3828C42.8998 39.3828 42.375 39.9075 42.375 40.5547V48.6406C42.375 51.8715 39.7465 54.5 36.5156 54.5H23.8631C23.2161 54.5 22.6917 55.0242 22.6912 55.6711L22.6896 58.001L19.8926 55.2041C19.7115 54.7884 19.2971 54.5 18.8179 54.5H11.2031C7.97227 54.5 5.34375 51.8715 5.34375 48.6406V30.5938C5.34375 27.3629 7.97227 24.7344 11.2031 24.7344H23.0391C23.6862 24.7344 24.2109 24.2097 24.2109 23.5625C24.2109 22.9153 23.6862 22.3906 23.0391 22.3906H11.2031C6.67992 22.3906 3 26.0705 3 30.5938V48.6406C3 53.1638 6.67992 56.8438 11.2031 56.8438H18.2177L23.0307 61.6568C23.2549 61.8809 23.5546 62 23.8596 62C24.0104 62 24.1627 61.9708 24.3074 61.9109C24.7453 61.7298 25.0309 61.3027 25.0312 60.8289L25.0341 56.8438H36.5156C41.0388 56.8438 44.7188 53.1638 44.7188 48.6406V40.5547C44.7188 39.9075 44.194 39.3828 43.5469 39.3828Z" fill="#194A9A"/>
<path d="M56.9054 7.65365C53.7169 4.74532 49.294 3.07227 44.7854 3.07227C40.2769 3.07227 35.854 4.74532 32.6655 7.65365C29.4769 10.562 27.6426 14.5961 27.6426 18.7084C27.6426 22.8364 29.4786 26.8705 32.6655 29.7788C35.854 32.6872 40.2769 34.3446 44.7854 34.3446C49.294 34.3446 54.4283 36.8223 54.4283 36.8223C54.4283 36.8223 61.9283 22.8364 61.9283 18.7084C61.9283 14.5961 60.0923 10.562 56.9054 7.65365Z" fill="#93B3DC"/>
<path d="M45.9674 2H43.0015C33.6096 2 25.9688 9.64086 25.9688 19.0327C25.9688 28.4246 33.6096 36.0653 43.0014 36.0653H45.9673C47.4332 36.0653 48.8841 35.8791 50.2903 35.5112L54.6716 39.89C54.8958 40.1139 55.1953 40.233 55.5002 40.233C55.6513 40.233 55.8036 40.2038 55.9486 40.1437C56.3864 39.9623 56.6719 39.535 56.6719 39.0611V32.2811C58.5268 30.7789 60.0677 28.8813 61.1491 26.7614C62.3774 24.3536 63 21.7534 63 19.0327C63 9.64086 55.3591 2 45.9674 2ZM54.7949 30.7736C54.5011 30.995 54.3281 31.3416 54.3281 31.7097V36.2332L51.4604 33.367C51.2373 33.1441 50.938 33.024 50.6319 33.024C50.5171 33.024 50.4011 33.041 50.2879 33.0758C48.893 33.5044 47.4394 33.7217 45.9674 33.7217H43.0015C34.9018 33.7217 28.3125 27.1323 28.3125 19.0327C28.3125 10.9332 34.902 4.34375 43.0015 4.34375H45.9674C54.0669 4.34375 60.6562 10.9332 60.6562 19.0327C60.6562 23.6887 58.5199 27.9682 54.7949 30.7736Z" fill="#194A9A"/>
<path d="M49.7622 14.8212C49.5931 12.3679 47.6155 10.3903 45.162 10.2212C43.7713 10.1256 42.444 10.5947 41.4281 11.5431C40.4261 12.4784 39.8516 13.8005 39.8516 15.1706C39.8516 15.8178 40.3763 16.3424 41.0234 16.3424C41.6705 16.3424 42.1953 15.8178 42.1953 15.1706C42.1953 14.4371 42.4909 13.7573 43.0273 13.2565C43.5634 12.7563 44.2639 12.5087 45.001 12.5595C46.2934 12.6486 47.335 13.6903 47.4241 14.9825C47.5141 16.2876 46.6578 17.441 45.3882 17.725C44.3595 17.9552 43.6412 18.8491 43.6412 19.8987V22.7142C43.6412 23.3614 44.1659 23.886 44.813 23.886C45.4603 23.886 45.9849 23.3614 45.9848 22.7142V19.9924C48.3461 19.4219 49.9304 17.2612 49.7622 14.8212Z" fill="#194A9A"/>
<path d="M45.641 26.523C45.423 26.3051 45.1207 26.1797 44.8125 26.1797C44.5043 26.1797 44.202 26.3051 43.984 26.523C43.766 26.741 43.6406 27.0434 43.6406 27.3516C43.6406 27.6609 43.7661 27.9633 43.984 28.1813C44.202 28.3992 44.5043 28.5234 44.8125 28.5234C45.1207 28.5234 45.423 28.3992 45.641 28.1813C45.859 27.9621 45.9844 27.6609 45.9844 27.3516C45.9844 27.0434 45.8589 26.741 45.641 26.523Z" fill="#194A9A"/>
<path d="M35.2266 38.3281H10.5C9.85289 38.3281 9.32812 38.8528 9.32812 39.5C9.32812 40.1472 9.85289 40.6719 10.5 40.6719H35.2266C35.8738 40.6719 36.3984 40.1472 36.3984 39.5C36.3984 38.8528 35.8737 38.3281 35.2266 38.3281Z" fill="#194A9A"/>
<path d="M36.055 45.234C35.8371 45.016 35.5348 44.8906 35.2266 44.8906C34.9184 44.8906 34.616 45.016 34.398 45.234C34.18 45.452 34.0547 45.7543 34.0547 46.0625C34.0547 46.3707 34.1801 46.673 34.398 46.891C34.616 47.109 34.9184 47.2344 35.2266 47.2344C35.5348 47.2344 35.8371 47.109 36.055 46.891C36.273 46.673 36.3984 46.3719 36.3984 46.0625C36.3984 45.7543 36.2729 45.452 36.055 45.234Z" fill="#194A9A"/>
<path d="M30.6172 44.8906H10.5C9.85289 44.8906 9.32812 45.4153 9.32812 46.0625C9.32812 46.7097 9.85289 47.2344 10.5 47.2344H30.6172C31.2645 47.2344 31.7891 46.7097 31.7891 46.0625C31.7891 45.4153 31.2643 44.8906 30.6172 44.8906Z" fill="#194A9A"/>
<path d="M27.6094 31.7656H10.5C9.85289 31.7656 9.32812 32.2903 9.32812 32.9375C9.32812 33.5847 9.85289 34.1094 10.5 34.1094H27.6094C28.2566 34.1094 28.7812 33.5847 28.7812 32.9375C28.7812 32.2903 28.2565 31.7656 27.6094 31.7656Z" fill="#194A9A"/>
</svg>
