<svg width="32" height="30" viewBox="0 0 32 30" fill="none" xmlns="http://www.w3.org/2000/svg">
<path d="M31.3044 17.9348C31.3044 17.1509 30.9926 16.4204 30.4553 15.8817C31.0644 15.2152 31.3748 14.3217 31.29 13.3917C31.1374 11.7339 29.6439 10.4348 27.8883 10.4348H19.8313C20.2305 9.22299 20.8696 7.00173 20.8696 5.21738C20.8696 2.38824 18.4657 0 16.9565 0C15.6026 0 14.6335 0.763045 14.593 0.794349C14.4378 0.918283 14.3478 1.10611 14.3478 1.30433V5.72736L10.59 13.8652L10.4348 13.9448V13.6956C10.4348 13.3356 10.1426 13.0434 9.78256 13.0434H3.26085C1.4622 13.0435 0 14.5057 0 16.3043V26.7391C0 28.5379 1.4622 30 3.26085 30H7.1739C8.58388 30 9.7891 29.1 10.243 27.8439C11.3283 28.4022 12.7891 28.6957 13.6957 28.6957H25.6683C27.0887 28.6957 28.3318 27.7383 28.6239 26.4183C28.7739 25.7374 28.6866 25.0526 28.3892 24.4578C29.3518 23.9739 30.0001 22.9787 30.0001 21.8478C30.0001 21.3861 29.8944 20.9439 29.6948 20.5448C30.6574 20.0596 31.3044 19.0657 31.3044 17.9348ZM28.5535 19.5443C28.3018 19.5744 28.0891 19.7452 28.0083 19.9865C27.9288 20.2278 27.9953 20.4926 28.1805 20.6674C28.5118 20.9791 28.6957 21.3991 28.6957 21.8478C28.6957 22.6709 28.0736 23.3622 27.2505 23.4574C26.9988 23.4874 26.7862 23.6582 26.7053 23.8996C26.6258 24.1409 26.6923 24.4056 26.8775 24.5804C27.3067 24.9848 27.4788 25.5521 27.3497 26.1365C27.1893 26.8644 26.4823 27.3913 25.6684 27.3913H13.6957C12.6365 27.3913 10.86 26.8944 10.2444 26.2774C10.0578 26.0922 9.77608 26.0374 9.53347 26.1365C9.28958 26.237 9.13043 26.4757 9.13043 26.7391C9.13043 27.8179 8.25262 28.6957 7.1739 28.6957H3.26085C2.18214 28.6957 1.30433 27.8179 1.30433 26.7391V16.3043C1.30433 15.2256 2.18214 14.3478 3.26085 14.3478H9.13043V15C9.13043 15.2257 9.24782 15.4356 9.44084 15.5557C9.6313 15.6704 9.87128 15.6822 10.0748 15.583L11.3791 14.9308C11.5108 14.8656 11.6165 14.756 11.6791 14.6217L15.5922 6.14343C15.6313 6.05734 15.6521 5.96343 15.6521 5.86951V1.65779C15.9235 1.50781 16.3944 1.30433 16.9565 1.30433C17.6713 1.30433 19.5652 3.08085 19.5652 5.21738C19.5652 7.51305 18.3157 10.8221 18.304 10.8548C18.2283 11.0544 18.2544 11.28 18.3757 11.4574C18.4983 11.6335 18.6992 11.7391 18.913 11.7391H27.8883C28.9761 11.7391 29.8996 12.5178 29.9909 13.5118C30.06 14.2552 29.7026 14.9622 29.0622 15.3574C28.8626 15.48 28.744 15.7018 28.7531 15.9378C28.7622 16.1739 28.8979 16.3852 29.1065 16.4935C29.6583 16.774 30 17.327 30 17.9348C30.0001 18.7578 29.3779 19.4491 28.5535 19.5443Z" fill="#17479B"/>
<path d="M9.77817 14.3486C9.41817 14.3486 9.12598 14.6408 9.12598 15.0008V26.74C9.12598 27.1 9.41817 27.3922 9.77817 27.3922C10.1382 27.3922 10.4304 27.1 10.4304 26.74V15.0008C10.4304 14.6408 10.1382 14.3486 9.77817 14.3486Z" fill="#17479B"/>
</svg>
