<svg width="26" height="30" viewBox="0 0 26 30" fill="none" xmlns="http://www.w3.org/2000/svg">
<path d="M23.8588 3.97587H21.3286V1.4458C21.3287 0.650565 20.678 0 19.8832 0H1.44916C0.653983 0 0.00341797 0.650565 0.00341797 1.4458V24.5783C0.00341797 25.3734 0.653983 26.0241 1.44922 26.0241H3.97935V28.5542C3.97935 29.3494 4.62962 30 5.42515 30H17.7139C18.5088 30 19.6336 29.554 20.2122 29.0093L24.2511 25.2076C24.8304 24.6629 25.3039 23.5663 25.3039 22.7711L25.3046 5.42179C25.3046 4.62649 24.6539 3.97587 23.8588 3.97587ZM3.97923 5.42173V24.9397H1.44916C1.25328 24.9397 1.08775 24.7742 1.08775 24.5783V1.4458C1.08775 1.24992 1.25328 1.08439 1.44916 1.08439H19.8832C20.0788 1.08439 20.2446 1.24992 20.2446 1.4458V3.97593H5.42503C4.6295 3.97593 3.97923 4.62649 3.97923 5.42173ZM23.5078 24.4181L19.469 28.2195C19.3863 28.2973 19.2786 28.3735 19.1596 28.4461V25.1204C19.1596 24.8721 19.2598 24.6487 19.4249 24.4825C19.5916 24.3173 19.8149 24.2169 20.0632 24.2169H23.6795C23.6235 24.293 23.566 24.3632 23.5078 24.4181ZM24.2195 22.771C24.2195 22.8784 24.1999 23.0027 24.1703 23.1324H20.0632C18.9663 23.1346 18.0774 24.0234 18.0752 25.1204V28.8718C17.9462 28.8979 17.8219 28.9155 17.7138 28.9155H5.42503V28.9156C5.22874 28.9156 5.06362 28.75 5.06362 28.5541V5.42167C5.06362 5.22579 5.2288 5.06026 5.42503 5.06026H23.8587C24.0546 5.06026 24.2201 5.22579 24.2201 5.42167L24.2195 22.771Z" fill="#17479B"/>
<path d="M19.8849 8.03613H9.40301C9.10336 8.03613 8.86084 8.27865 8.86084 8.5783C8.86084 8.87795 9.10342 9.12047 9.40301 9.12047H19.8849C20.1842 9.12047 20.4271 8.87795 20.4271 8.5783C20.4271 8.27865 20.1842 8.03613 19.8849 8.03613Z" fill="#17479B"/>
<path d="M19.8849 15.2642H9.40301C9.10336 15.2642 8.86084 15.5067 8.86084 15.8063C8.86084 16.106 9.10342 16.3485 9.40301 16.3485H19.8849C20.1842 16.3485 20.4271 16.106 20.4271 15.8063C20.4271 15.5066 20.1842 15.2642 19.8849 15.2642Z" fill="#17479B"/>
<path d="M15.1861 18.8794H9.40301C9.10336 18.8794 8.86084 19.1219 8.86084 19.4216C8.86084 19.7212 9.10336 19.9637 9.40301 19.9637H15.1861C15.4854 19.9637 15.7279 19.7212 15.7279 19.4216C15.7279 19.1219 15.4854 18.8794 15.1861 18.8794Z" fill="#17479B"/>
<path d="M19.8849 11.6514H9.40301C9.10336 11.6514 8.86084 11.8939 8.86084 12.1935C8.86084 12.4932 9.10342 12.7357 9.40301 12.7357H19.8849C20.1842 12.7357 20.4271 12.4932 20.4271 12.1935C20.4271 11.8939 20.1842 11.6514 19.8849 11.6514Z" fill="#17479B"/>
</svg>
