<svg width="66" height="62" viewBox="0 0 66 62" fill="none" xmlns="http://www.w3.org/2000/svg">
<rect x="10" y="22" width="5" height="5" fill="#94B5DE"/>
<rect x="21" y="22" width="5" height="5" fill="#94B5DE"/>
<rect x="32" y="22" width="5" height="5" fill="#94B5DE"/>
<rect x="43" y="22" width="5" height="5" fill="#94B5DE"/>
<rect x="43" y="33" width="5" height="5" fill="#94B5DE"/>
<rect x="32" y="33" width="5" height="5" fill="#94B5DE"/>
<rect x="32" y="44" width="5" height="5" fill="#94B5DE"/>
<rect x="21" y="33" width="5" height="5" fill="#94B5DE"/>
<rect x="21" y="44" width="5" height="5" fill="#94B5DE"/>
<rect x="10" y="33" width="5" height="5" fill="#94B5DE"/>
<rect x="10" y="44" width="5" height="5" fill="#94B5DE"/>
<circle cx="52" cy="50" r="11" fill="#94B5DE"/>
<path d="M56.8852 38.73V10.1639C56.8852 7.3619 54.6053 5.08197 51.8033 5.08197H49.7705V3.04918C49.7705 1.36776 48.4027 0 46.7213 0C45.0399 0 43.6721 1.36776 43.6721 3.04918V5.08197H38.5902V3.04918C38.5902 1.36776 37.2224 0 35.541 0C33.8596 0 32.4918 1.36776 32.4918 3.04918V5.08197H26.3934V3.04918C26.3934 1.36776 25.0257 0 23.3443 0C21.6628 0 20.2951 1.36776 20.2951 3.04918V5.08197H15.2131V3.04918C15.2131 1.36776 13.8454 0 12.1639 0C10.4825 0 9.11475 1.36776 9.11475 3.04918V5.08197H7.08197C4.27993 5.08197 2 7.3619 2 10.1639V50.8197C2 53.6217 4.27993 55.9016 7.08197 55.9016H41.2566C43.3694 59.5411 47.3003 62 51.8033 62C58.5289 62 64 56.5289 64 49.8033C64 44.8927 61.0772 40.6618 56.8852 38.73ZM45.7049 3.04918C45.7049 2.48837 46.1605 2.03279 46.7213 2.03279C47.2821 2.03279 47.7377 2.48837 47.7377 3.04918V9.14754C47.7377 9.70835 47.2821 10.1639 46.7213 10.1639C46.1605 10.1639 45.7049 9.70835 45.7049 9.14754V3.04918ZM34.5246 3.04918C34.5246 2.48837 34.9802 2.03279 35.541 2.03279C36.1018 2.03279 36.5574 2.48837 36.5574 3.04918V9.14754C36.5574 9.70835 36.1018 10.1639 35.541 10.1639C34.9802 10.1639 34.5246 9.70835 34.5246 9.14754V3.04918ZM22.3279 3.04918C22.3279 2.48837 22.7835 2.03279 23.3443 2.03279C23.9051 2.03279 24.3607 2.48837 24.3607 3.04918V9.14754C24.3607 9.70835 23.9051 10.1639 23.3443 10.1639C22.7835 10.1639 22.3279 9.70835 22.3279 9.14754V3.04918ZM11.1475 3.04918C11.1475 2.48837 11.6031 2.03279 12.1639 2.03279C12.7247 2.03279 13.1803 2.48837 13.1803 3.04918V9.14754C13.1803 9.70835 12.7247 10.1639 12.1639 10.1639C11.6031 10.1639 11.1475 9.70835 11.1475 9.14754V3.04918ZM7.08197 7.11475H9.11475V9.14754C9.11475 10.829 10.4825 12.1967 12.1639 12.1967C13.8454 12.1967 15.2131 10.829 15.2131 9.14754V7.11475H20.2951V9.14754C20.2951 10.829 21.6628 12.1967 23.3443 12.1967C25.0257 12.1967 26.3934 10.829 26.3934 9.14754V7.11475H32.4918V9.14754C32.4918 10.829 33.8596 12.1967 35.541 12.1967C37.2224 12.1967 38.5902 10.829 38.5902 9.14754V7.11475H43.6721V9.14754C43.6721 10.829 45.0399 12.1967 46.7213 12.1967C48.4027 12.1967 49.7705 10.829 49.7705 9.14754V7.11475H51.8033C53.4847 7.11475 54.8525 8.48251 54.8525 10.1639V15.2459H4.03279V10.1639C4.03279 8.48251 5.40055 7.11475 7.08197 7.11475ZM7.08197 53.8689C5.40055 53.8689 4.03279 52.5011 4.03279 50.8197V17.2787H54.8525V38.0079C53.8759 37.7551 52.8578 37.6066 51.8033 37.6066C51.1093 37.6066 50.4331 37.6783 49.7705 37.7901V32.5246C49.7705 31.9628 49.3159 31.5082 48.7541 31.5082H42.6557C42.0939 31.5082 41.6393 31.9628 41.6393 32.5246V38.623C41.6393 39.1847 42.0939 39.6393 42.6557 39.6393H45.0756C41.7834 41.8257 39.6066 45.5633 39.6066 49.8033C39.6066 51.2304 39.8657 52.5949 40.318 53.8689H7.08197ZM47.7377 37.6066H43.6721V33.541H47.7377V37.6066ZM51.8033 59.9672C46.1992 59.9672 41.6393 55.4073 41.6393 49.8033C41.6393 44.1992 46.1992 39.6393 51.8033 39.6393C57.4073 39.6393 61.9672 44.1992 61.9672 49.8033C61.9672 55.4073 57.4073 59.9672 51.8033 59.9672Z" fill="white"/>
<path d="M52.8668 47.9476V41.5742H50.7867V47.9476C50.1676 48.2994 49.7467 48.9468 49.7467 49.6966C49.7467 49.7994 49.7625 49.898 49.7777 49.9966L45.9766 52.9646L47.2766 54.551L51.0744 51.585C51.3083 51.6739 51.5606 51.7272 51.8267 51.7272C52.9755 51.7272 53.9068 50.818 53.9068 49.6966C53.9068 48.9468 53.4859 48.2994 52.8668 47.9476Z" fill="white"/>
<path d="M15.157 20.4258H9.02913C8.46462 20.4258 8.00781 20.8692 8.00781 21.4171V27.3647C8.00781 27.9126 8.46462 28.356 9.02913 28.356H15.157C15.7215 28.356 16.1784 27.9126 16.1784 27.3647V21.4171C16.1784 20.8692 15.7215 20.4258 15.157 20.4258ZM14.1357 26.3735H10.0504V22.4083H14.1357V26.3735Z" fill="white"/>
<path d="M26.452 20.4258H20.3241C19.7595 20.4258 19.3027 20.8692 19.3027 21.4171V27.3647C19.3027 27.9126 19.7595 28.356 20.3241 28.356H26.452C27.0165 28.356 27.4733 27.9126 27.4733 27.3647V21.4171C27.4733 20.8692 27.0165 20.4258 26.452 20.4258ZM25.4306 26.3735H21.3454V22.4083H25.4306V26.3735Z" fill="white"/>
<path d="M37.5057 20.4258H31.3778C30.8133 20.4258 30.3564 20.8692 30.3564 21.4171V27.3647C30.3564 27.9126 30.8133 28.356 31.3778 28.356H37.5057C38.0702 28.356 38.527 27.9126 38.527 27.3647V21.4171C38.527 20.8692 38.0702 20.4258 37.5057 20.4258ZM36.4844 26.3735H32.3991V22.4083H36.4844V26.3735Z" fill="white"/>
<path d="M42.6727 28.356H48.8006C49.3651 28.356 49.8219 27.9126 49.8219 27.3647V21.4171C49.8219 20.8692 49.3651 20.4258 48.8006 20.4258H42.6727C42.1082 20.4258 41.6514 20.8692 41.6514 21.4171V27.3647C41.6514 27.9126 42.1082 28.356 42.6727 28.356ZM43.694 22.4083H47.7793V26.3735H43.694V22.4083Z" fill="white"/>
<path d="M15.157 31.4805H9.02913C8.46462 31.4805 8.00781 31.9373 8.00781 32.5018V38.6297C8.00781 39.1942 8.46462 39.651 9.02913 39.651H15.157C15.7215 39.651 16.1784 39.1942 16.1784 38.6297V32.5018C16.1784 31.9373 15.7215 31.4805 15.157 31.4805ZM14.1357 37.6084H10.0504V33.5231H14.1357V37.6084Z" fill="white"/>
<path d="M26.452 31.4805H20.3241C19.7595 31.4805 19.3027 31.9373 19.3027 32.5018V38.6297C19.3027 39.1942 19.7595 39.651 20.3241 39.651H26.452C27.0165 39.651 27.4733 39.1942 27.4733 38.6297V32.5018C27.4733 31.9373 27.0165 31.4805 26.452 31.4805ZM25.4306 37.6084H21.3454V33.5231H25.4306V37.6084Z" fill="white"/>
<path d="M37.5057 31.4805H31.3778C30.8133 31.4805 30.3564 31.9373 30.3564 32.5018V38.6297C30.3564 39.1942 30.8133 39.651 31.3778 39.651H37.5057C38.0702 39.651 38.527 39.1942 38.527 38.6297V32.5018C38.527 31.9373 38.0702 31.4805 37.5057 31.4805ZM36.4844 37.6084H32.3991V33.5231H36.4844V37.6084Z" fill="white"/>
<path d="M15.157 42.7754H9.02913C8.46462 42.7754 8.00781 43.2188 8.00781 43.7667V49.7143C8.00781 50.2623 8.46462 50.7056 9.02913 50.7056H15.157C15.7215 50.7056 16.1784 50.2623 16.1784 49.7143V43.7667C16.1784 43.2188 15.7215 42.7754 15.157 42.7754ZM14.1357 48.7231H10.0504V44.7579H14.1357V48.7231Z" fill="white"/>
<path d="M26.452 42.7754H20.3241C19.7595 42.7754 19.3027 43.2188 19.3027 43.7667V49.7143C19.3027 50.2623 19.7595 50.7056 20.3241 50.7056H26.452C27.0165 50.7056 27.4733 50.2623 27.4733 49.7143V43.7667C27.4733 43.2188 27.0165 42.7754 26.452 42.7754ZM25.4306 48.7231H21.3454V44.7579H25.4306V48.7231Z" fill="white"/>
<path d="M37.5057 42.7754H31.3778C30.8133 42.7754 30.3564 43.2188 30.3564 43.7667V49.7143C30.3564 50.2623 30.8133 50.7056 31.3778 50.7056H37.5057C38.0702 50.7056 38.527 50.2623 38.527 49.7143V43.7667C38.527 43.2188 38.0702 42.7754 37.5057 42.7754ZM36.4844 48.7231H32.3991V44.7579H36.4844V48.7231Z" fill="white"/>
</svg>
