<svg width="59" height="62" viewBox="0 0 59 62" fill="none" xmlns="http://www.w3.org/2000/svg">
<path d="M20.7449 39.679V20.1553C20.7449 18.9105 21.7431 17.907 22.9673 17.907H34.6885V5.75708C34.6885 3.57226 32.9369 1.79391 30.7709 1.79391H5.70266C3.54301 1.79391 1.78516 3.56591 1.78516 5.75708V56.2493C1.78516 58.4341 3.53673 60.2125 5.70266 60.2125H30.7772C32.9369 60.2125 34.6947 58.4405 34.6947 56.2493V41.9273H22.9673C21.7431 41.9273 20.7449 40.9238 20.7449 39.679Z" stroke="white" stroke-width="2.5027" stroke-miterlimit="10" stroke-linecap="round" stroke-linejoin="round"/>
<path d="M55.2242 17.907H34.695H22.9675C21.7371 17.907 20.7451 18.9168 20.7451 20.1553V39.679C20.7451 40.9238 21.7433 41.9273 22.9675 41.9273H34.6887H55.2179C56.4484 41.9273 57.4404 40.9174 57.4404 39.679V20.1553C57.4466 18.9105 56.4484 17.907 55.2242 17.907Z" stroke="white" stroke-width="2.5027" stroke-miterlimit="10" stroke-linecap="round" stroke-linejoin="round"/>
<path d="M31.1983 32.8705H25.3095C24.7193 32.8705 24.2422 32.3878 24.2422 31.7907V28.2531C24.2422 27.6561 24.7193 27.1734 25.3095 27.1734H31.1983C31.7884 27.1734 32.2655 27.6561 32.2655 28.2531V31.7907C32.2655 32.3814 31.7884 32.8705 31.1983 32.8705Z" fill="#94B5DE" stroke="white" stroke-width="2.5027" stroke-miterlimit="10" stroke-linecap="round" stroke-linejoin="round"/>
<path d="M24.2422 37.6466H29.5472" stroke="white" stroke-width="2.5027" stroke-miterlimit="10" stroke-linecap="round" stroke-linejoin="round"/>
<path d="M32.334 37.6466H37.6389" stroke="white" stroke-width="2.5027" stroke-miterlimit="10" stroke-linecap="round" stroke-linejoin="round"/>
<path d="M40.4199 37.6466H45.7312" stroke="white" stroke-width="2.5027" stroke-miterlimit="10" stroke-linecap="round" stroke-linejoin="round"/>
<path d="M48.5127 37.6466H53.8177" stroke="white" stroke-width="2.5027" stroke-miterlimit="10" stroke-linecap="round" stroke-linejoin="round"/>
<path d="M53.8176 22.194H34.9834" stroke="white" stroke-width="2.5027" stroke-miterlimit="10" stroke-linecap="round" stroke-linejoin="round"/>
<path d="M1.78516 6.50018H34.6947" stroke="white" stroke-width="2.5027" stroke-miterlimit="10" stroke-linecap="round" stroke-linejoin="round"/>
<path d="M1.78516 52.7815H34.6947" stroke="white" stroke-width="2.5027" stroke-miterlimit="10" stroke-linecap="round" stroke-linejoin="round"/>
<path d="M14.5674 56.37H21.9064" stroke="white" stroke-width="2.5027" stroke-miterlimit="10" stroke-linecap="round" stroke-linejoin="round"/>
</svg>
