<svg width="66" height="62" viewBox="0 0 66 62" fill="none" xmlns="http://www.w3.org/2000/svg">
<path d="M35.102 45.5509C35.102 37.5569 41.5491 31.0798 49.5232 31.01V4.5429C49.5232 3.08582 48.3356 1.89819 46.8785 1.89819H4.54315C3.08606 1.89819 1.89844 3.08582 1.89844 4.5429V57.4471C1.89844 58.9042 3.08606 60.0918 4.54315 60.0918H49.5132C41.5392 60.0219 35.102 53.5349 35.102 45.5509Z" stroke="white" stroke-width="2.5" stroke-miterlimit="10" stroke-linecap="round" stroke-linejoin="round"/>
<path d="M9.17383 18.6946V24.513" stroke="white" stroke-width="2.5" stroke-miterlimit="10" stroke-linecap="round" stroke-linejoin="round"/>
<path d="M12.876 16.5789V24.513" stroke="white" stroke-width="2.5" stroke-miterlimit="10" stroke-linecap="round" stroke-linejoin="round"/>
<path d="M16.5791 15.5209V24.513" stroke="white" stroke-width="2.5" stroke-miterlimit="10" stroke-linecap="round" stroke-linejoin="round"/>
<path d="M20.2812 18.6946V24.513" stroke="white" stroke-width="2.5" stroke-miterlimit="10" stroke-linecap="round" stroke-linejoin="round"/>
<path d="M23.9844 16.5789V24.513" stroke="white" stroke-width="2.5" stroke-miterlimit="10" stroke-linecap="round" stroke-linejoin="round"/>
<path d="M27.6865 13.9341V24.513" stroke="white" stroke-width="2.5" stroke-miterlimit="10" stroke-linecap="round" stroke-linejoin="round"/>
<path d="M9.17383 15.5209L16.579 9.70258L20.2816 15.5209L27.6868 9.70258" stroke="white" stroke-width="2.5" stroke-miterlimit="10" stroke-linecap="round" stroke-linejoin="round"/>
<path d="M39.3331 20.2814H35.1016V24.513H39.3331V20.2814Z" stroke="white" stroke-width="2.5" stroke-miterlimit="10" stroke-linecap="round" stroke-linejoin="round"/>
<path d="M39.3331 12.8763H35.1016V17.1078H39.3331V12.8763Z" stroke="white" stroke-width="2.5" stroke-miterlimit="10" stroke-linecap="round" stroke-linejoin="round"/>
<path d="M9.17383 34.5729H27.6868" stroke="white" stroke-width="2.5" stroke-miterlimit="10" stroke-linecap="round" stroke-linejoin="round"/>
<path d="M9.17383 39.8623H27.6868" stroke="white" stroke-width="2.5" stroke-miterlimit="10" stroke-linecap="round" stroke-linejoin="round"/>
<path d="M9.17383 45.1517H27.6868" stroke="white" stroke-width="2.5" stroke-miterlimit="10" stroke-linecap="round" stroke-linejoin="round"/>
<path d="M9.17383 50.4411H27.6868" stroke="white" stroke-width="2.5" stroke-miterlimit="10" stroke-linecap="round" stroke-linejoin="round"/>
<path d="M64.1936 45.5509C64.1936 53.5848 57.6766 60.1018 49.6427 60.1018C41.6088 60.1018 35.0918 53.5848 35.0918 45.5509C35.0918 37.517 41.6088 31 49.6427 31C52.6766 31 55.491 31.9281 57.8163 33.515" stroke="white" stroke-width="2.5" stroke-miterlimit="10" stroke-linecap="round" stroke-linejoin="round"/>
<path d="M63.2856 37.3672L49.603 51.0499L42.9463 44.4032" stroke="white" stroke-width="2.5" stroke-miterlimit="10" stroke-linecap="round" stroke-linejoin="round"/>
</svg>
