<svg width="210" height="283" viewBox="0 0 210 283" fill="none" xmlns="http://www.w3.org/2000/svg">
<g clip-path="url(#clip0)">
<path d="M163.564 111.309C167.606 104.87 169.901 97.2305 169.901 89.0455C169.901 88.3907 169.901 87.6267 169.901 86.972C169.901 86.7537 169.901 86.5354 169.901 86.3172C169.901 85.8806 169.791 85.4441 169.791 84.8984C169.791 84.6802 169.682 84.3528 169.682 84.1345C169.682 83.698 169.573 83.2614 169.573 82.934C169.573 82.6066 169.464 82.3884 169.464 82.061C169.354 81.6244 169.354 81.297 169.245 80.8605C169.245 80.5331 169.136 80.3148 169.027 79.9874C168.917 79.5509 168.808 79.2235 168.699 78.787C168.59 78.5687 168.59 78.2413 168.48 78.023C168.371 77.5865 168.262 77.15 168.153 76.8226C168.043 76.6043 168.043 76.386 167.934 76.1678C167.715 75.6221 167.606 75.0764 167.388 74.5308C167.388 74.4216 167.278 74.3125 167.278 74.3125C167.06 73.6577 166.841 73.112 166.514 72.4572C166.404 72.239 166.295 72.0207 166.186 71.8025C165.967 71.3659 165.858 71.0385 165.64 70.602C165.53 70.3837 165.421 70.1655 165.312 69.8381C165.093 69.5107 164.984 69.1833 164.765 68.8559C164.656 68.6376 164.438 68.3102 164.328 68.0919C164.11 67.7645 164.001 67.4371 163.782 67.1097C163.673 66.8915 163.454 66.5641 163.345 66.3458C163.127 66.0184 162.908 65.691 162.689 65.4727C162.58 65.2545 162.362 65.0362 162.252 64.7088C162.034 64.3814 161.815 64.054 161.597 63.8357C161.488 63.6175 161.269 63.3992 161.16 63.1809C160.832 62.8535 160.614 62.417 160.286 62.0896C160.176 61.8713 159.958 61.6531 159.849 61.5439C159.521 61.1074 159.084 60.6709 158.647 60.2343C158.428 60.0161 158.319 59.7978 158.1 59.6887C157.882 59.4704 157.554 59.143 157.336 58.9247C157.117 58.7065 156.899 58.4882 156.68 58.2699C156.462 58.0517 156.134 57.8334 155.915 57.6151C155.697 57.3969 155.478 57.1786 155.26 56.9603C155.041 56.7421 154.713 56.5238 154.495 56.3055C154.276 56.0873 154.058 55.869 153.73 55.7599C153.512 55.5416 153.184 55.3233 152.965 55.1051C152.747 54.8868 152.419 54.7777 152.2 54.5594C151.873 54.3412 151.654 54.1229 151.326 54.0138C151.108 53.7955 150.78 53.6864 150.561 53.4681C150.234 53.2498 149.906 53.0316 149.578 52.9224C149.25 52.7042 148.813 52.4859 148.486 52.2676C148.048 52.0494 147.611 51.8311 147.284 51.6128C146.956 51.5037 146.737 51.2854 146.41 51.1763C146.082 51.0672 145.754 50.8489 145.535 50.7398C145.208 50.6306 144.989 50.5215 144.661 50.3032C144.334 50.1941 144.006 50.085 143.787 49.8667C143.46 49.7576 143.132 49.6484 142.804 49.5393C142.476 49.4302 142.148 49.321 141.93 49.2119C141.602 49.1028 141.274 48.9936 140.946 48.8845C140.619 48.7754 140.291 48.6662 139.963 48.5571C139.635 48.448 139.308 48.3388 138.98 48.2297C138.652 48.1206 138.324 48.0114 137.996 48.0114C137.669 47.9023 137.341 47.7932 137.013 47.7932C136.685 47.684 136.358 47.684 135.92 47.5749C132.861 46.9201 129.583 46.5927 126.305 46.7018C115.052 46.9201 104.89 51.722 97.3513 59.143L97.242 59.2521C96.9142 59.5795 96.4772 60.0161 96.1494 60.4526C96.0402 60.5617 95.9309 60.6709 95.9309 60.6709C95.6031 60.9983 95.2753 61.4348 94.9475 61.7622C94.8383 61.8713 94.729 61.9805 94.6198 62.0896C94.292 62.417 94.0735 62.8535 93.7457 63.1809C93.6364 63.2901 93.5271 63.5083 93.4179 63.6175C93.1994 63.9449 92.8716 64.2723 92.6531 64.7088C92.5438 64.9271 92.4345 65.0362 92.216 65.2545C91.9975 65.5819 91.779 65.9093 91.5604 66.2367C91.4512 66.4549 91.3419 66.6732 91.1234 66.8915C90.9049 67.2189 90.6864 67.5463 90.4678 67.8737C90.3586 68.0919 90.2493 68.3102 90.0308 68.5285C89.8123 68.8559 89.703 69.1833 89.4845 69.5107C89.3752 69.7289 89.266 70.0563 89.0474 70.2746C88.9382 70.602 88.7197 70.9294 88.6104 71.2568C88.5011 71.5842 88.3919 71.8024 88.2826 72.1298C88.1733 72.4572 87.9548 72.7846 87.8456 73.112C87.7363 73.4394 87.627 73.6577 87.5178 73.9851C87.4085 74.3125 87.2993 74.6399 87.19 74.9673C87.0807 75.2947 86.9715 75.6221 86.8622 75.9495C86.753 76.2769 86.6437 76.6043 86.5344 76.9317C86.4252 77.2591 86.3159 77.5865 86.2066 77.9139C86.0974 78.2413 85.9881 78.5687 85.9881 78.8961C85.8789 79.2235 85.8789 79.5509 85.7696 79.9874C85.6603 80.3148 85.6603 80.6422 85.5511 80.9696C85.4418 81.297 85.4418 81.7336 85.3326 82.061C85.3326 82.3884 85.2233 82.7158 85.2233 82.934C85.114 83.3706 85.114 83.698 85.114 84.1345C85.114 84.4619 85.0048 84.6802 85.0048 85.0076C85.0048 85.4441 84.8955 85.8806 84.8955 86.3172C84.8955 86.5354 84.8955 86.7537 84.8955 87.0811C84.8955 87.7359 84.8955 88.3907 84.8955 89.0455V89.1546C84.8955 91.0099 85.0048 92.8651 85.2233 94.6113C86.4252 103.888 90.5771 112.182 96.6957 118.621C99.0995 121.131 100.411 124.405 100.411 127.897V136.628C100.411 141.429 103.251 145.467 107.403 147.213C108.387 147.65 109.589 147.977 110.681 148.086C111.118 148.086 111.446 148.196 111.883 148.196H143.022C143.459 148.196 143.787 148.196 144.224 148.086C145.754 147.977 147.174 147.432 148.486 146.777C152.091 144.812 154.495 140.993 154.495 136.737V128.006C154.495 125.496 155.26 122.986 156.571 120.912C157.117 120.148 157.663 119.275 158.319 118.621C160.286 116.22 162.034 113.819 163.564 111.309Z" stroke="#184999" stroke-width="3.1596" stroke-miterlimit="10"/>
<path d="M127.399 116.22C142.183 116.22 154.168 104.249 154.168 89.4822C154.168 74.7155 142.183 62.7446 127.399 62.7446C112.615 62.7446 100.63 74.7155 100.63 89.4822C100.63 104.249 112.615 116.22 127.399 116.22Z" fill="#91B2DB" stroke="#184999" stroke-width="2.9936" stroke-miterlimit="10" stroke-linecap="round" stroke-linejoin="round"/>
<path d="M107.622 155.508H147.175" stroke="#184999" stroke-width="3.1596" stroke-miterlimit="10"/>
<path d="M111.01 163.147H143.788" stroke="#184999" stroke-width="3.1596" stroke-miterlimit="10"/>
<path d="M114.833 170.241C116.8 175.261 121.607 178.862 127.289 178.862C132.97 178.862 137.887 175.261 139.745 170.241H114.833Z" fill="#91B2DB" stroke="#184999" stroke-width="3.1596" stroke-miterlimit="10"/>
<path d="M124.885 104.979L125.104 101.05C123.246 100.832 121.28 100.396 119.204 99.8499V94.3932C122.045 95.4846 124.448 96.0302 126.306 96.0302C128.491 96.0302 129.584 95.3754 129.584 93.9567C129.584 93.3019 128.928 92.6471 127.508 92.1014L123.574 90.5736C122.263 90.0279 121.17 89.264 120.296 88.2818C119.313 87.0813 118.876 85.7717 118.876 84.1347C118.876 82.1703 119.641 80.5333 121.17 79.2237C122.372 78.2415 123.793 77.5867 125.432 77.2593L125.322 74.2036H129.911L129.693 77.2593C130.676 77.3685 131.987 77.5867 133.626 77.9141V82.716C131.55 82.1703 129.911 81.9521 128.491 81.9521C126.196 81.9521 124.995 82.6069 124.995 84.0256C124.995 84.7895 125.65 85.3352 126.852 85.7717L130.021 86.8631C133.845 88.2818 135.811 90.5736 135.811 93.8476C135.811 95.9211 135.047 97.6672 133.626 99.086C132.424 100.177 131.004 100.832 129.365 101.159L129.474 105.088H124.885V104.979Z" fill="#184999"/>
<path d="M129.365 0.538574C128.6 0.538574 127.944 1.19337 127.944 1.9573V18.9821C127.944 19.746 128.6 20.4008 129.365 20.4008C130.13 20.4008 130.785 19.746 130.785 18.9821V1.9573C130.894 1.19337 130.239 0.538574 129.365 0.538574Z" fill="#184999"/>
<path d="M208.579 81.6245H191.535C190.77 81.6245 190.114 82.2793 190.114 83.0432C190.114 83.8072 190.77 84.462 191.535 84.462H208.579C209.344 84.462 210 83.8072 210 83.0432C210 82.2793 209.344 81.6245 208.579 81.6245Z" fill="#184999"/>
<path d="M63.262 81.6245H46.2173C45.4524 81.6245 44.7969 82.2793 44.7969 83.0432C44.7969 83.8072 45.4524 84.462 46.2173 84.462H63.262C64.0268 84.462 64.6824 83.8072 64.6824 83.0432C64.6824 82.2793 64.0268 81.6245 63.262 81.6245Z" fill="#184999"/>
<path d="M187.274 21.8193C186.946 21.8193 186.509 21.9285 186.181 22.2559L172.96 35.461C172.633 35.7884 172.523 36.1158 172.523 36.5523C172.523 36.9888 172.633 37.3162 172.96 37.6436C173.288 37.971 173.616 38.0802 174.053 38.0802C174.49 38.0802 174.818 37.971 175.146 37.6436L188.476 24.3294C189.022 23.7837 189.022 22.8015 188.476 22.2559C188.039 21.9285 187.601 21.8193 187.274 21.8193Z" fill="#184999"/>
<path d="M68.5071 22.2559C68.1793 21.9285 67.8515 21.8193 67.4145 21.8193C66.9774 21.8193 66.6496 21.9285 66.3218 22.2559C65.7755 22.8015 65.7755 23.7837 66.3218 24.3294L79.761 37.5345C80.3073 38.0802 81.2906 38.0802 81.8369 37.5345C82.1647 37.2071 82.274 36.8797 82.274 36.4432C82.274 36.0066 82.1647 35.6792 81.8369 35.3518L68.5071 22.2559Z" fill="#184999"/>
<path d="M201.15 165.111C198.637 163.038 195.36 161.837 192.082 161.946C187.93 161.946 184.106 163.802 181.483 166.857V166.966L157.446 192.176L155.479 194.141L153.731 191.958C150.999 188.684 146.957 186.829 142.805 186.829L96.8059 187.265H96.2596L95.8226 187.047C89.5947 184.537 82.9298 183.227 76.0463 183.336C56.4885 183.555 40.4272 192.831 32.014 208.874L31.1399 210.511L29.3918 210.183C28.7362 210.074 28.1899 210.074 27.5343 210.074C24.9121 210.074 22.3991 211.165 20.5416 213.021L0.983863 232.992C0.328296 233.647 0.328296 234.629 0.983863 235.284L47.7477 281.447C48.0754 281.774 48.5125 281.884 48.9495 281.884C49.3866 281.884 49.8236 281.665 50.1514 281.447L69.9277 261.585C72.5499 258.966 73.424 254.928 72.1129 251.326L71.5666 249.798L72.6592 248.707L76.9204 244.56C79.6519 241.832 83.3668 240.304 87.1909 240.304L142.04 239.758C151.109 239.649 159.631 236.048 166.078 229.718C166.405 229.391 167.826 227.644 172.633 221.642C177.768 215.422 186.837 204.399 202.789 184.864C207.925 178.971 207.05 170.131 201.15 165.111ZM67.6332 259.293L48.9495 277.955L4.48022 234.192L22.8361 215.531C25.0213 213.348 28.2992 212.911 30.9214 214.548C31.577 214.876 31.577 214.876 38.7882 221.97C43.9235 226.99 52.4459 235.393 67.5239 250.126C68.8351 251.326 69.4906 253.072 69.4906 254.819C69.4906 256.456 68.8351 258.093 67.6332 259.293ZM200.386 182.791L163.783 227.426L163.674 227.535C157.883 233.21 150.235 236.375 142.04 236.484L87.1909 237.03C82.4927 237.03 78.013 238.885 74.6259 242.268L69.3814 247.398L33.653 212.475L34.527 210.838C42.3939 195.778 57.3626 187.047 75.8278 186.938C82.4927 186.829 88.9391 188.138 95.0578 190.757C95.2763 190.867 95.4948 190.867 95.7133 190.867L142.586 190.43C148.486 190.321 153.403 195.123 153.403 201.016C153.512 206.909 148.705 211.82 142.805 211.82L109.152 212.148C108.278 212.148 107.514 212.911 107.514 213.785C107.514 214.658 108.278 215.422 109.152 215.422L142.805 215.094C150.562 214.985 156.79 208.655 156.681 200.907C156.681 200.361 156.681 199.706 156.572 199.052L156.353 197.851L174.163 179.189C181.265 171.768 183.559 169.367 183.778 169.04C187.602 164.566 194.267 163.911 198.856 167.621C203.554 171.441 204.21 178.207 200.386 182.791Z" fill="#184999" stroke="#184999" stroke-miterlimit="10"/>
<path d="M67.6334 259.293L48.9498 277.955L4.48047 234.192L22.8363 215.531C25.0216 213.348 28.2994 212.912 30.9217 214.549C31.5772 214.876 31.5772 214.876 38.7885 221.97C43.9238 226.99 52.4461 235.393 67.5242 250.126C68.8353 251.326 69.4909 253.073 69.4909 254.819C69.4909 256.456 68.8353 258.093 67.6334 259.293Z" fill="#91B2DB"/>
</g>
<defs>
<clipPath id="clip0">
<rect width="210" height="282" fill="white" transform="translate(0 0.538574)"/>
</clipPath>
</defs>
</svg>
