<svg width="167" height="184" viewBox="0 0 167 184" fill="none" xmlns="http://www.w3.org/2000/svg">
<path d="M26.6973 120.49H69.7195" stroke="#174799" stroke-width="3" stroke-linecap="round" stroke-linejoin="round"/>
<path d="M30.333 128.772H66.0821" stroke="#174799" stroke-width="3" stroke-linecap="round" stroke-linejoin="round"/>
<path d="M34.5957 136.546C35.6534 139.296 37.5203 141.66 39.9502 143.328C42.3802 144.995 45.259 145.888 48.2071 145.888C51.1551 145.888 54.034 144.995 56.4639 143.328C58.8939 141.66 60.7608 139.296 61.8184 136.546H34.5957Z" fill="#90B1DA" stroke="#174799" stroke-width="3" stroke-linecap="round" stroke-linejoin="round"/>
<path d="M87.6807 72.3348C92.1904 65.0413 94.574 56.6354 94.5634 48.0624C94.5634 48.0624 94.5634 48.0317 94.5634 48.0163C94.5634 47.267 94.5634 46.523 94.5069 45.784C94.5069 45.5326 94.4709 45.2709 94.4555 45.0245C94.4247 44.5114 94.3887 44.0239 94.3425 43.5313C94.3117 43.2388 94.2757 42.9463 94.2449 42.6538C94.1936 42.2022 94.1371 41.7506 94.0703 41.3041C94.0241 41.0014 93.9778 40.6986 93.9265 40.3959C93.8546 39.9614 93.7758 39.5303 93.6902 39.1027C93.6337 38.7999 93.5721 38.5023 93.5053 38.2047C93.4128 37.7736 93.3101 37.3426 93.2022 36.9115C93.1303 36.6242 93.0636 36.3419 92.9865 36.0545C92.8632 35.603 92.7297 35.1514 92.5962 34.7049C92.5191 34.4535 92.4523 34.1918 92.3702 33.9557C92.1801 33.3605 91.9747 32.7755 91.7641 32.1905C91.7281 32.093 91.6973 31.9955 91.6613 31.9031C91.4097 31.236 91.1477 30.574 90.8652 29.9223C90.7625 29.6811 90.6546 29.4502 90.5467 29.2142C90.3618 28.7934 90.1718 28.3777 89.9715 27.962C89.8431 27.6952 89.7044 27.4489 89.5708 27.1615C89.3808 26.7869 89.1907 26.4174 88.9904 26.0531C88.8415 25.776 88.6874 25.504 88.5333 25.232C88.3347 24.8899 88.1309 24.5478 87.9221 24.2057C87.7577 23.9338 87.5933 23.6669 87.4084 23.4001C87.2235 23.1332 86.9718 22.7227 86.751 22.3738C86.5301 22.0248 86.4068 21.8606 86.2373 21.5989C86.0011 21.2602 85.7545 20.9215 85.5028 20.5726C85.3282 20.3365 85.1536 20.0953 84.9892 19.8593C84.6862 19.4641 84.3728 19.0844 84.0595 18.6995C83.89 18.4891 83.7205 18.2788 83.5459 18.0735C83.1384 17.5945 82.7223 17.1241 82.2977 16.6623C82.0923 16.4416 81.8817 16.2313 81.6762 16.0106C81.4708 15.7899 81.1164 15.4256 80.8236 15.1382C80.5308 14.8509 80.3511 14.6815 80.1097 14.4557C79.8682 14.2299 79.5601 13.9426 79.2827 13.686C79.0053 13.4294 78.7691 13.2344 78.5174 13.0138C78.2657 12.7931 77.9575 12.5365 77.675 12.3005C77.3925 12.0644 77.1614 11.8643 76.8737 11.6539C76.5861 11.4435 76.2933 11.2074 76.0006 10.9868C75.7078 10.7661 75.451 10.5711 75.1685 10.371C74.886 10.1709 74.5624 9.94507 74.2542 9.73981C73.946 9.53454 73.6943 9.35494 73.4118 9.1702C73.1293 8.98546 72.7287 8.74428 72.3846 8.53389C72.0404 8.32349 71.5833 8.05152 71.1775 7.81546C70.7717 7.57941 70.2787 7.3023 69.8215 7.06112C69.5185 6.90204 69.2103 6.75322 68.9021 6.59928C68.5939 6.44533 68.2395 6.26572 67.9057 6.08612C67.5718 5.90651 67.2533 5.79362 66.9246 5.6448C66.5959 5.49599 66.2672 5.35744 65.9384 5.21889C65.6097 5.08033 65.2656 4.94691 64.9112 4.81862L63.9096 4.44402L62.8823 4.08481C62.5433 3.97191 62.2043 3.86415 61.855 3.76152C61.5058 3.65888 61.1513 3.54599 60.7969 3.44336C60.4425 3.34073 60.0933 3.25349 59.7388 3.16625C59.3844 3.07902 59.0352 2.98152 58.6808 2.89941C58.3263 2.8173 57.9103 2.7352 57.5251 2.65822C50.0311 1.11933 42.2716 1.46845 34.9464 3.67407C27.6213 5.8797 20.9609 9.87245 15.5661 15.2922L15.4326 15.4256C15.0165 15.8413 14.6159 16.2672 14.2153 16.6982L13.943 16.9856C13.5835 17.3859 13.2291 17.7913 12.8798 18.2018L12.5254 18.6174C12.2069 19.0023 11.8988 19.3923 11.5906 19.7874L11.1848 20.3006C10.9023 20.6752 10.6249 21.0601 10.3527 21.4449L9.92126 22.0556C9.66958 22.4251 9.40762 22.7997 9.18162 23.1743C9.03267 23.4052 8.88371 23.6361 8.73989 23.867C8.51389 24.2297 8.29474 24.5974 8.08244 24.9703C7.9352 25.2269 7.78967 25.4835 7.64585 25.7401C7.44724 26.0993 7.25206 26.4619 7.0603 26.828C6.91649 27.1051 6.77438 27.3839 6.63399 27.6644C6.45592 28.0065 6.28471 28.364 6.12035 28.7369C5.98167 29.0345 5.84812 29.3373 5.71458 29.6401C5.58103 29.9428 5.4064 30.3482 5.26258 30.7074C5.11876 31.0666 5.0109 31.3438 4.88762 31.667C4.76435 31.9903 4.62053 32.3701 4.49212 32.7241C4.36371 33.0782 4.26099 33.4015 4.14799 33.7505C4.03499 34.0994 3.91685 34.4432 3.81412 34.7768C3.7114 35.1103 3.60867 35.4952 3.51108 35.8544C3.41349 36.2136 3.32103 36.5369 3.23371 36.8807C3.1464 37.2245 3.05908 37.6351 2.97176 38.0148C2.88444 38.3945 2.81767 38.687 2.7509 39.0411C2.68412 39.3952 2.62249 39.8468 2.53517 40.2368C2.44785 40.6268 2.41703 40.8936 2.36567 41.222C2.30403 41.648 2.25267 42.079 2.2013 42.5049C2.16535 42.818 2.11912 43.1259 2.0883 43.4389C2.04208 43.9213 2.01126 44.4088 1.9753 44.8911C1.9753 45.158 1.92908 45.4043 1.9188 45.6865C1.88114 46.3981 1.8623 47.1131 1.8623 47.8315C1.8623 47.8726 1.8623 47.9136 1.8623 47.9598C1.86278 49.9432 1.98973 51.9246 2.2424 53.8919C3.47709 63.7266 7.84801 72.9029 14.7083 80.063C17.3095 82.7867 18.7592 86.4076 18.7558 90.1722V99.6964C18.7538 102.792 19.9023 105.779 21.9786 108.077C24.055 110.375 26.9113 111.821 29.9942 112.135C30.4191 112.179 30.8459 112.201 31.2731 112.202H65.1731C65.6003 112.201 66.0272 112.179 66.4521 112.135C68.0716 111.967 69.6422 111.482 71.0748 110.709H71.1159C73.0975 109.635 74.7521 108.046 75.9048 106.11C77.0575 104.175 77.6656 101.964 77.6647 99.7118V90.1722C77.6776 87.4289 78.4606 84.7443 79.9247 82.4235C80.4805 81.5259 81.1258 80.6869 81.8509 79.9193C84.0499 77.598 86.0035 75.0564 87.6807 72.3348V72.3348Z" stroke="#174799" stroke-width="3" stroke-linecap="round" stroke-linejoin="round"/>
<path d="M124.693 166.053H164.9V159.022H124.693V166.053Z" stroke="#174799" stroke-width="3" stroke-linecap="round" stroke-linejoin="round"/>
<path d="M144.709 159.027H161.968V150.052C161.969 148.26 161.431 146.508 160.424 145.025C159.416 143.541 157.986 142.395 156.318 141.734L156.015 141.616C154.763 141.126 153.689 140.271 152.932 139.161C152.175 138.051 151.77 136.739 151.772 135.397V129.906H137.842V135.397C137.843 136.739 137.438 138.049 136.681 139.158C135.924 140.267 134.85 141.122 133.6 141.611L133.296 141.729C131.628 142.39 130.198 143.536 129.19 145.019C128.183 146.503 127.645 148.255 127.646 150.047V159.022L144.709 159.027Z" fill="#90B1DA" stroke="#174799" stroke-width="3" stroke-linecap="round" stroke-linejoin="round"/>
<path d="M133.235 182.125C132.435 182.125 131.668 181.808 131.103 181.243C130.538 180.678 130.22 179.912 130.22 179.113V166.058H136.25V179.113C136.25 179.912 135.932 180.678 135.367 181.243C134.801 181.808 134.035 182.125 133.235 182.125Z" fill="#90B1DA" stroke="#174799" stroke-width="3" stroke-linecap="round" stroke-linejoin="round"/>
<path d="M156.354 182.125C155.554 182.125 154.788 181.808 154.222 181.243C153.657 180.678 153.339 179.912 153.339 179.113V166.058H159.369V179.113C159.369 179.912 159.051 180.678 158.486 181.243C157.921 181.808 157.154 182.125 156.354 182.125Z" fill="#90B1DA" stroke="#174799" stroke-width="3" stroke-linecap="round" stroke-linejoin="round"/>
<path d="M48.207 154.055V166.92C48.207 170.953 49.8105 174.82 52.6646 177.672C55.5187 180.523 59.3897 182.125 63.4261 182.125H80.9205C84.9569 182.125 88.8279 180.523 91.682 177.672C94.5361 174.82 96.1396 170.953 96.1396 166.92V116.631C96.1396 112.598 97.743 108.731 100.597 105.879C103.451 103.028 107.322 101.426 111.359 101.426H129.675C131.675 101.425 133.655 101.818 135.503 102.583C137.351 103.347 139.029 104.468 140.443 105.881C141.857 107.294 142.978 108.972 143.743 110.818C144.508 112.664 144.9 114.643 144.899 116.641V120.88" stroke="#174799" stroke-width="3" stroke-linecap="round" stroke-linejoin="round"/>
<path d="M42.6864 88.9868L43.2001 80.1656C38.798 79.5727 34.447 78.6481 30.1845 77.3997V65.3815C36.5673 67.7763 41.8286 68.9736 45.9686 68.9736C50.9063 68.9736 53.3752 67.4547 53.3752 64.4168C53.3752 62.8705 51.8343 61.4747 48.7525 60.2294L40.0206 56.7143C37.2258 55.6303 34.7517 53.8559 32.8297 51.5571C30.7019 48.9705 29.5608 45.7141 29.6092 42.3664C29.5671 40.2692 30.0035 38.1899 30.8855 36.2863C31.7674 34.3827 33.0717 32.7047 34.6994 31.3797C37.3977 29.0636 40.6846 27.5381 44.1965 26.9717L43.8678 20.2236H54.0429L53.5293 26.9511C56.4549 27.2022 59.3569 27.6774 62.2097 28.3726V39.0617C57.6212 37.9669 53.8306 37.4196 50.8378 37.4196C45.6501 37.4196 43.0562 38.9385 43.0562 41.9764C43.0562 43.6185 44.402 44.939 47.0934 45.938L54.0532 48.5038C62.5693 51.6238 66.8273 56.7725 66.8273 63.9498C66.8273 68.6332 65.2059 72.4956 61.9632 75.5369C59.3144 77.9249 56.0495 79.5247 52.538 80.1553L52.841 88.9765L42.6864 88.9868Z" fill="#90B1DA" stroke="#174799" stroke-width="3" stroke-linecap="round" stroke-linejoin="round"/>
</svg>
