<svg width="210" height="206" viewBox="0 0 210 206" fill="none" xmlns="http://www.w3.org/2000/svg">
<path d="M120.716 107.099C127.106 111.111 131.596 118.088 132.459 125.937C135.05 127.158 137.985 127.856 141.094 127.856C152.319 127.856 161.472 118.611 161.472 107.274C161.472 95.9357 152.319 86.691 141.094 86.691C129.869 86.8654 120.888 95.9357 120.716 107.099ZM107.418 149.136C118.643 149.136 127.796 139.892 127.796 128.554C127.796 117.216 118.643 108.146 107.418 108.146C96.1927 108.146 87.0397 117.39 87.0397 128.728C87.0397 140.066 96.1927 149.136 107.418 149.136ZM116.053 150.532H98.7831C84.4493 150.532 72.8786 162.393 72.8786 176.696V197.976V198.325L74.2601 198.848C87.9032 203.209 99.8193 204.605 109.663 204.605C128.833 204.605 139.885 199.023 140.576 198.674L141.957 197.976H142.13V176.696C142.13 162.219 130.387 150.532 116.053 150.532ZM149.729 129.252H132.632C132.459 136.229 129.523 142.334 124.86 146.869C137.64 150.706 146.966 162.567 146.966 176.696V183.324C163.89 182.627 173.561 177.917 174.252 177.568L175.633 176.871H175.806V155.59C175.633 141.113 164.063 129.252 149.729 129.252ZM153.528 85.6444C159.918 89.6563 164.408 96.6334 165.272 104.483C167.862 105.704 170.798 106.401 173.906 106.401C185.132 106.401 194.285 97.1567 194.285 85.8189C194.285 74.481 185.132 65.2363 173.906 65.2363C162.681 65.4108 153.701 74.481 153.528 85.6444ZM182.541 107.797H165.444C165.272 114.774 162.336 120.879 157.673 125.414C170.453 129.252 179.778 141.113 179.778 155.241V161.87C196.703 161.172 206.374 156.462 207.064 156.114L208.446 155.416H208.619V134.136C208.446 119.658 196.875 107.797 182.541 107.797ZM71.8424 127.856C75.8144 127.856 79.441 126.635 82.7223 124.716C83.7585 118.088 87.2124 112.506 92.2207 108.495C92.2207 108.146 92.2207 107.797 92.2207 107.274C92.2207 95.9357 83.0677 86.691 71.8424 86.691C60.617 86.691 51.4641 95.9357 51.4641 107.274C51.6368 118.786 60.617 127.856 71.8424 127.856ZM90.1483 146.869C85.4855 142.334 82.7223 136.229 82.3769 129.426C81.6861 129.426 81.168 129.252 80.4772 129.252H63.2075C48.8736 129.252 37.3029 141.113 37.3029 155.416V176.696V177.045L38.6845 177.568C49.7371 181.057 59.4081 182.627 67.8703 183.15V176.696C68.043 162.742 77.3687 150.706 90.1483 146.869ZM36.094 106.401C40.066 106.401 43.6927 105.18 46.9739 103.262C48.0101 96.6334 51.4641 91.0517 56.4723 87.0399C56.4723 86.691 56.4723 86.3422 56.4723 85.8189C56.4723 74.481 47.3193 65.2363 36.2667 65.2363C25.0414 65.2363 15.8884 74.481 15.8884 85.8189C15.7157 97.3312 24.8687 106.401 36.094 106.401ZM54.2272 125.414C49.5644 120.879 46.8012 114.774 46.4558 107.971C45.7651 107.971 45.247 107.797 44.5562 107.797H27.2864C12.9526 107.797 1.38184 119.484 1.38184 133.961V155.241V155.59L2.76341 156.114C13.816 159.602 23.4871 161.172 31.9493 161.695V155.241C32.2947 141.113 41.6203 129.252 54.2272 125.414Z" fill="#184999" stroke="#17479B" stroke-width="1.7028" stroke-miterlimit="10" stroke-linecap="round" stroke-linejoin="round"/>
<path d="M101.547 21.2803H118.471L106.037 39.9441H122.27L99.647 73.6088L106.382 47.7934H90.3213L101.547 21.2803Z" fill="#91B2DB" stroke="#184999" stroke-width="2" stroke-miterlimit="10" stroke-linecap="round" stroke-linejoin="round"/>
<path d="M106.382 86.1675C129.463 86.1675 148.174 67.2687 148.174 43.9558C148.174 20.643 129.463 1.74414 106.382 1.74414C83.3001 1.74414 64.5889 20.643 64.5889 43.9558C64.5889 67.2687 83.3001 86.1675 106.382 86.1675Z" stroke="#184999" stroke-width="3" stroke-miterlimit="10" stroke-linecap="round" stroke-linejoin="round"/>
</svg>
