<svg width="156" height="210" viewBox="0 0 156 210" fill="none" xmlns="http://www.w3.org/2000/svg">
<g clip-path="url(#clip0)">
<path d="M121.506 82.4882C124.509 77.6933 126.213 72.0044 126.213 65.9092C126.213 65.4216 126.213 64.8527 126.213 64.3651C126.213 64.2026 126.213 64.04 126.213 63.8775C126.213 63.5524 126.132 63.2274 126.132 62.821C126.132 62.6585 126.051 62.4147 126.051 62.2521C126.051 61.927 125.97 61.602 125.97 61.3582C125.97 61.1143 125.888 60.9518 125.888 60.708C125.807 60.3829 125.807 60.1391 125.726 59.814C125.726 59.5702 125.645 59.4077 125.564 59.1639C125.483 58.8388 125.401 58.595 125.32 58.2699C125.239 58.1074 125.239 57.8636 125.158 57.701C125.077 57.376 124.996 57.0509 124.914 56.8071C124.833 56.6445 124.833 56.482 124.752 56.3195C124.59 55.9131 124.509 55.5068 124.346 55.1004C124.346 55.0191 124.265 54.9379 124.265 54.9379C124.103 54.4503 123.94 54.0439 123.697 53.5563C123.616 53.3938 123.535 53.2312 123.454 53.0687C123.291 52.7436 123.21 52.4998 123.048 52.1747C122.967 52.0122 122.885 51.8496 122.804 51.6058C122.642 51.362 122.561 51.1182 122.398 50.8744C122.317 50.7119 122.155 50.4681 122.074 50.3055C121.911 50.0617 121.83 49.8179 121.668 49.5741C121.587 49.4116 121.424 49.1678 121.343 49.0052C121.181 48.7614 121.019 48.5176 120.856 48.3551C120.775 48.1925 120.613 48.03 120.532 47.7862C120.369 47.5424 120.207 47.2986 120.045 47.136C119.963 46.9735 119.801 46.8109 119.72 46.6484C119.476 46.4046 119.314 46.0795 119.071 45.8357C118.989 45.6732 118.827 45.5106 118.746 45.4294C118.502 45.1043 118.178 44.7792 117.853 44.4541C117.691 44.2916 117.61 44.1291 117.447 44.0478C117.285 43.8852 117.041 43.6414 116.879 43.4789C116.717 43.3164 116.554 43.1538 116.392 42.9913C116.23 42.8287 115.986 42.6662 115.824 42.5037C115.662 42.3411 115.499 42.1786 115.337 42.016C115.175 41.8535 114.931 41.691 114.769 41.5284C114.606 41.3659 114.444 41.2034 114.201 41.1221C114.038 40.9595 113.795 40.797 113.632 40.6345C113.47 40.4719 113.227 40.3907 113.064 40.2281C112.821 40.0656 112.658 39.903 112.415 39.8218C112.253 39.6592 112.009 39.578 111.847 39.4154C111.603 39.2529 111.36 39.0904 111.116 39.0091C110.873 38.8465 110.548 38.684 110.305 38.5215C109.98 38.3589 109.655 38.1964 109.412 38.0338C109.168 37.9526 109.006 37.79 108.763 37.7088C108.519 37.6275 108.276 37.465 108.113 37.3837C107.87 37.3024 107.707 37.2212 107.464 37.0586C107.22 36.9773 106.977 36.8961 106.815 36.7335C106.571 36.6523 106.328 36.571 106.084 36.4897C105.841 36.4085 105.597 36.3272 105.435 36.2459C105.191 36.1647 104.948 36.0834 104.704 36.0021C104.461 35.9208 104.217 35.8396 103.974 35.7583C103.73 35.677 103.487 35.5958 103.243 35.5145C103 35.4332 102.756 35.352 102.513 35.352C102.269 35.2707 102.026 35.1894 101.782 35.1894C101.539 35.1082 101.295 35.1082 100.971 35.0269C98.698 34.5393 96.2631 34.2955 93.8281 34.3767C85.4681 34.5393 77.9197 38.1151 72.3193 43.6414L72.2381 43.7227C71.9946 43.9665 71.6699 44.2916 71.4265 44.6167C71.3453 44.6979 71.2641 44.7792 71.2641 44.7792C71.0206 45.023 70.7771 45.3481 70.5336 45.5919C70.4525 45.6732 70.3713 45.7544 70.2901 45.8357C70.0466 46.0795 69.8843 46.4046 69.6408 46.6484C69.5596 46.7297 69.4785 46.8922 69.3973 46.9735C69.235 47.2173 68.9915 47.4611 68.8292 47.7862C68.748 47.9487 68.6668 48.03 68.5045 48.1925C68.3422 48.4363 68.1798 48.6801 68.0175 48.9239C67.9363 49.0865 67.8552 49.249 67.6928 49.4116C67.5305 49.6554 67.3682 49.8992 67.2058 50.143C67.1247 50.3055 67.0435 50.4681 66.8812 50.6306C66.7189 50.8744 66.6377 51.1182 66.4754 51.362C66.3942 51.5246 66.313 51.7684 66.1507 51.9309C66.0695 52.1747 65.9072 52.4185 65.826 52.6623C65.7449 52.9061 65.6637 53.0687 65.5825 53.3125C65.5014 53.5563 65.339 53.8001 65.2579 54.0439C65.1767 54.2877 65.0955 54.4503 65.0144 54.6941C64.9332 54.9379 64.8521 55.1817 64.7709 55.4255C64.6897 55.6693 64.6086 55.9131 64.5274 56.1569C64.4462 56.4007 64.3651 56.6445 64.2839 56.8883C64.2027 57.1321 64.1216 57.376 64.0404 57.6198C63.9592 57.8636 63.8781 58.1074 63.8781 58.3512C63.7969 58.595 63.7969 58.8388 63.7157 59.1639C63.6346 59.4077 63.6346 59.6515 63.5534 59.8953C63.4722 60.1391 63.4722 60.4642 63.3911 60.708C63.3911 60.9518 63.3099 61.1956 63.3099 61.3582C63.2287 61.6832 63.2287 61.927 63.2287 62.2521C63.2287 62.4959 63.1476 62.6585 63.1476 62.9023C63.1476 63.2274 63.0664 63.5524 63.0664 63.8775C63.0664 64.04 63.0664 64.2026 63.0664 64.4464C63.0664 64.934 63.0664 65.4216 63.0664 65.9092V65.9905C63.0664 67.3721 63.1476 68.7537 63.3099 70.054C64.2027 76.9619 67.287 83.1383 71.8323 87.9332C73.6179 89.8024 74.5919 92.2405 74.5919 94.8411V101.343C74.5919 104.919 76.7022 107.925 79.7865 109.226C80.517 109.551 81.4098 109.795 82.2215 109.876C82.5461 109.876 82.7896 109.957 83.1143 109.957H106.246C106.571 109.957 106.815 109.957 107.139 109.876C108.276 109.795 109.331 109.388 110.305 108.901C112.983 107.438 114.769 104.593 114.769 101.424V94.9224C114.769 93.0532 115.337 91.184 116.311 89.6399C116.717 89.071 117.123 88.4208 117.61 87.9332C119.071 86.1453 120.369 84.3574 121.506 82.4882Z" stroke="#184999" stroke-width="3.1596" stroke-miterlimit="10"/>
<path d="M94.6394 86.1457C105.622 86.1457 114.525 77.2313 114.525 66.2347C114.525 55.2382 105.622 46.3237 94.6394 46.3237C83.657 46.3237 74.7539 55.2382 74.7539 66.2347C74.7539 77.2313 83.657 86.1457 94.6394 86.1457Z" fill="#91B2DB" stroke="#184999" stroke-width="2.9936" stroke-miterlimit="10" stroke-linecap="round" stroke-linejoin="round"/>
<path d="M79.9482 115.402H109.33" stroke="#184999" stroke-width="3.1596" stroke-miterlimit="10"/>
<path d="M82.4648 121.091H106.814" stroke="#184999" stroke-width="3.1596" stroke-miterlimit="10"/>
<path d="M85.3057 126.374C86.7666 130.112 90.3379 132.794 94.5585 132.794C98.7791 132.794 102.432 130.112 103.811 126.374H85.3057Z" fill="#91B2DB" stroke="#184999" stroke-width="3.1596" stroke-miterlimit="10"/>
<path d="M92.7727 77.7749L92.935 74.8492C91.5552 74.6867 90.0942 74.3616 88.5521 73.9552V69.8918C90.6624 70.7045 92.448 71.1108 93.8278 71.1108C95.4512 71.1108 96.2628 70.6232 96.2628 69.5667C96.2628 69.0791 95.7758 68.5915 94.7207 68.1851L91.7987 67.0473C90.8247 66.641 90.0131 66.0721 89.3637 65.3407C88.6333 64.4467 88.3086 63.4715 88.3086 62.2524C88.3086 60.7896 88.8768 59.5706 90.0131 58.5953C90.9059 57.8639 91.961 57.3763 93.1785 57.1325L93.0974 54.8569H96.5063L96.344 57.1325C97.0745 57.2137 98.0485 57.3763 99.2659 57.6201V61.1959C97.7238 60.7896 96.5063 60.6271 95.4512 60.6271C93.7467 60.6271 92.8539 61.1147 92.8539 62.1712C92.8539 62.7401 93.3409 63.1464 94.2337 63.4715L96.5875 64.2842C99.4283 65.3407 100.889 67.0473 100.889 69.4854C100.889 71.0295 100.321 72.3298 99.2659 73.3863C98.3731 74.199 97.318 74.6867 96.1005 74.9305L96.1816 77.8562H92.7727V77.7749Z" fill="#184999"/>
<path d="M96.1001 0C95.5319 0 95.0449 0.487616 95.0449 1.0565V13.7345C95.0449 14.3034 95.5319 14.791 96.1001 14.791C96.6682 14.791 97.1552 14.3034 97.1552 13.7345V1.0565C97.2364 0.487616 96.7494 0 96.1001 0Z" fill="#184999"/>
<path d="M154.945 60.3833H142.284C141.716 60.3833 141.229 60.8709 141.229 61.4398C141.229 62.0087 141.716 62.4963 142.284 62.4963H154.945C155.514 62.4963 156.001 62.0087 156.001 61.4398C156.001 60.8709 155.514 60.3833 154.945 60.3833Z" fill="#184999"/>
<path d="M46.9953 60.3833H34.3335C33.7653 60.3833 33.2783 60.8709 33.2783 61.4398C33.2783 62.0087 33.7653 62.4963 34.3335 62.4963H46.9953C47.5634 62.4963 48.0504 62.0087 48.0504 61.4398C48.0504 60.8709 47.5634 60.3833 46.9953 60.3833Z" fill="#184999"/>
<path d="M139.118 15.8477C138.875 15.8477 138.55 15.9289 138.307 16.1727L128.486 26.0063C128.242 26.2501 128.161 26.4939 128.161 26.819C128.161 27.1441 128.242 27.3879 128.486 27.6317C128.729 27.8755 128.973 27.9568 129.297 27.9568C129.622 27.9568 129.866 27.8755 130.109 27.6317L140.011 17.7169C140.417 17.3105 140.417 16.5791 140.011 16.1727C139.687 15.9289 139.362 15.8477 139.118 15.8477Z" fill="#184999"/>
<path d="M50.8915 16.1727C50.6481 15.9289 50.4046 15.8477 50.0799 15.8477C49.7552 15.8477 49.5117 15.9289 49.2682 16.1727C48.8624 16.5791 48.8624 17.3105 49.2682 17.7169L59.2516 27.5504C59.6574 27.9568 60.3879 27.9568 60.7937 27.5504C61.0372 27.3066 61.1184 27.0628 61.1184 26.7377C61.1184 26.4127 61.0372 26.1689 60.7937 25.9251L50.8915 16.1727Z" fill="#184999"/>
<path d="M149.426 122.554C147.559 121.01 145.124 120.116 142.689 120.197C139.605 120.197 136.764 121.579 134.816 123.855V123.936L116.959 142.709L115.498 144.172L114.2 142.547C112.171 140.108 109.168 138.727 106.083 138.727L71.9126 139.052H71.5068L71.1821 138.889C66.5557 137.02 61.6046 136.045 56.4911 136.126C41.9625 136.289 30.0312 143.197 23.7815 155.143L23.1321 156.362L21.8335 156.119C21.3465 156.037 20.9407 156.037 20.4537 156.037C18.5057 156.037 16.6389 156.85 15.2591 158.232L0.730479 173.104C0.243486 173.591 0.243486 174.323 0.730479 174.81L35.4693 209.187C35.7128 209.431 36.0375 209.512 36.3621 209.512C36.6868 209.512 37.0114 209.35 37.2549 209.187L51.9459 194.396C53.8939 192.446 54.5432 189.439 53.5692 186.757L53.1634 185.619L53.975 184.807L57.1405 181.718C59.1696 179.687 61.9292 178.549 64.77 178.549L105.515 178.143C112.252 178.061 118.583 175.379 123.371 170.666C123.615 170.422 124.67 169.122 128.241 164.652C132.056 160.019 138.793 151.811 150.643 137.264C154.458 132.876 153.809 126.293 149.426 122.554ZM50.2414 192.69L36.3621 206.587L3.32777 173.998L16.9636 160.101C18.5869 158.475 21.0218 158.15 22.9698 159.369C23.4568 159.613 23.4568 159.613 28.8137 164.896C32.6285 168.634 38.9594 174.892 50.1602 185.863C51.1342 186.757 51.6212 188.057 51.6212 189.358C51.6212 190.577 51.1342 191.796 50.2414 192.69ZM148.857 135.72L121.667 168.959L121.586 169.04C117.284 173.266 111.602 175.623 105.515 175.704L64.77 176.111C61.2799 176.111 57.9521 177.492 55.436 180.012L51.5401 183.831L24.9989 157.825L25.6483 156.606C31.4922 145.391 42.6119 138.889 56.3288 138.808C61.2799 138.727 66.0687 139.702 70.6139 141.653C70.7763 141.734 70.9386 141.734 71.1009 141.734L105.921 141.409C110.304 141.328 113.956 144.903 113.956 149.292C114.037 153.68 110.466 157.338 106.083 157.338L81.0843 157.581C80.435 157.581 79.8668 158.15 79.8668 158.8C79.8668 159.451 80.435 160.019 81.0843 160.019L106.083 159.776C111.846 159.694 116.472 154.981 116.391 149.211C116.391 148.804 116.391 148.317 116.31 147.829L116.148 146.935L129.378 133.038C134.653 127.512 136.358 125.724 136.52 125.48C139.361 122.148 144.312 121.66 147.721 124.424C151.211 127.268 151.698 132.307 148.857 135.72Z" fill="#184999" stroke="#184999" stroke-miterlimit="10"/>
<path d="M50.2418 192.69L36.3625 206.587L3.32812 173.998L16.9639 160.101C18.5872 158.475 21.0222 158.15 22.9702 159.369C23.4572 159.613 23.4572 159.613 28.8141 164.896C32.6289 168.634 38.9598 174.892 50.1606 185.863C51.1346 186.757 51.6216 188.057 51.6216 189.358C51.6216 190.577 51.1346 191.796 50.2418 192.69Z" fill="#91B2DB"/>
</g>
<defs>
<clipPath id="clip0">
<rect width="156" height="210" fill="white"/>
</clipPath>
</defs>
</svg>
