<svg width="203" height="187" viewBox="0 0 203 187" fill="none" xmlns="http://www.w3.org/2000/svg">
<path d="M26.585 121.211H69.7509" stroke="#174799" stroke-width="3" stroke-linecap="round" stroke-linejoin="round"/>
<path d="M30.2334 129.55H66.102" stroke="#174799" stroke-width="3" stroke-linecap="round" stroke-linejoin="round"/>
<path d="M34.5098 137.377C35.571 140.146 37.4441 142.526 39.8822 144.205C42.3202 145.884 45.2087 146.783 48.1666 146.783C51.1245 146.783 54.013 145.884 56.4511 144.205C58.8891 142.526 60.7623 140.146 61.8235 137.377H34.5098Z" fill="#90B1DA" stroke="#174799" stroke-width="3" stroke-linecap="round" stroke-linejoin="round"/>
<path d="M87.7722 72.7266C92.297 65.3832 94.6885 56.9198 94.6779 48.2882C94.6779 48.2882 94.6779 48.2572 94.6779 48.2417C94.6779 47.4874 94.6779 46.7382 94.6212 45.9942C94.6212 45.741 94.5851 45.4775 94.5697 45.2295C94.5387 44.7128 94.5027 44.222 94.4563 43.726C94.4254 43.4315 94.3893 43.137 94.3584 42.8425C94.3068 42.3878 94.2501 41.9332 94.1832 41.4837C94.1368 41.1788 94.0904 40.874 94.0388 40.5692C93.9667 40.1317 93.8877 39.6977 93.8018 39.2672C93.7451 38.9623 93.6833 38.6627 93.6163 38.363C93.5235 37.929 93.4204 37.495 93.3122 37.061C93.2401 36.7717 93.1731 36.4875 93.0958 36.1982C92.9721 35.7435 92.8381 35.2888 92.7041 34.8393C92.6268 34.5861 92.5598 34.3226 92.4773 34.085C92.2867 33.4856 92.0805 32.8966 91.8692 32.3076C91.8331 32.2095 91.8022 32.1113 91.7662 32.0183C91.5136 31.3466 91.2508 30.6801 90.9674 30.024C90.8643 29.7811 90.7561 29.5486 90.6478 29.311C90.4623 28.8873 90.2716 28.4688 90.0706 28.0503C89.9418 27.7816 89.8027 27.5336 89.6687 27.2443C89.478 26.8671 89.2873 26.4951 89.0863 26.1283C88.9369 25.8493 88.7822 25.5754 88.6276 25.3016C88.4284 24.9572 88.224 24.6127 88.0144 24.2683C87.8495 23.9944 87.6846 23.7258 87.499 23.4571C87.3135 23.1884 87.061 22.7751 86.8394 22.4238C86.6178 22.0724 86.4941 21.9071 86.324 21.6436C86.087 21.3026 85.8396 20.9616 85.5871 20.6103C85.4118 20.3726 85.2366 20.1298 85.0717 19.8921C84.7677 19.4943 84.4533 19.1119 84.1389 18.7244C83.9689 18.5126 83.7988 18.3008 83.6236 18.0941C83.2147 17.6119 82.7973 17.1383 82.3713 16.6732C82.1651 16.4511 81.9538 16.2392 81.7477 16.0171C81.5415 15.7949 81.186 15.4281 80.8922 15.1387C80.5984 14.8494 80.4181 14.6789 80.1759 14.4516C79.9336 14.2242 79.6244 13.9349 79.3461 13.6766C79.0678 13.4182 78.8308 13.2219 78.5783 12.9997C78.3257 12.7776 78.0165 12.5192 77.7331 12.2816C77.4496 12.0439 77.2177 11.8424 76.9291 11.6306C76.6405 11.4187 76.3468 11.1811 76.053 10.9589C75.7593 10.7367 75.5016 10.5404 75.2182 10.3389C74.9347 10.1374 74.6101 9.91006 74.3008 9.70339C73.9916 9.49673 73.7391 9.31589 73.4557 9.12989C73.1722 8.94389 72.7702 8.70106 72.425 8.48922C72.0797 8.27739 71.621 8.00355 71.2139 7.76589C70.8067 7.52822 70.312 7.24922 69.8533 7.00638C69.5493 6.84622 69.2401 6.69638 68.9309 6.54138C68.6216 6.38638 68.2661 6.20555 67.9311 6.02471C67.5961 5.84388 67.2766 5.73021 66.9468 5.58038C66.6169 5.43054 66.2871 5.29105 65.9573 5.15155C65.6274 5.01204 65.2822 4.87771 64.9266 4.74854L63.9216 4.37137L62.8909 4.00971C62.5508 3.89604 62.2107 3.78754 61.8602 3.6842C61.5098 3.58087 61.1542 3.46721 60.7986 3.36387C60.443 3.26054 60.0926 3.1727 59.737 3.08487C59.3814 2.99704 59.0309 2.89887 58.6753 2.8162C58.3197 2.73353 57.9023 2.65087 57.5158 2.57337C49.9968 1.02395 42.2113 1.37545 34.8617 3.59616C27.5121 5.81688 20.8294 9.83695 15.4166 15.2937L15.2826 15.4281C14.8652 15.8466 14.4632 16.2754 14.0612 16.7094L13.7881 16.9988C13.4273 17.4018 13.0718 17.8099 12.7213 18.2233L12.3657 18.6418C12.0462 19.0293 11.737 19.4219 11.4278 19.8198L11.0206 20.3364C10.7372 20.7136 10.4589 21.1011 10.1858 21.4886L9.75288 22.1034C9.50036 22.4754 9.23753 22.8526 9.01077 23.2298C8.86132 23.4623 8.71187 23.6948 8.56757 23.9273C8.34081 24.2924 8.12093 24.6627 7.90792 25.0381C7.76018 25.2964 7.61417 25.5548 7.46987 25.8131C7.2706 26.1748 7.07476 26.5399 6.88236 26.9084C6.73806 27.1875 6.59548 27.4682 6.45462 27.7506C6.27597 28.0951 6.10418 28.455 5.93927 28.8305C5.80012 29.1301 5.66613 29.435 5.53214 29.7398C5.39815 30.0446 5.22293 30.4528 5.07863 30.8145C4.93433 31.1761 4.82611 31.4551 4.70242 31.7806C4.57874 32.1061 4.43444 32.4885 4.3056 32.845C4.17676 33.2015 4.07369 33.527 3.96031 33.8783C3.84694 34.2296 3.7284 34.5758 3.62533 34.9116C3.52226 35.2475 3.41919 35.635 3.32127 35.9967C3.22336 36.3583 3.13059 36.6838 3.04298 37.03C2.95537 37.3762 2.86776 37.7895 2.78015 38.1718C2.69254 38.5542 2.62555 38.8487 2.55855 39.2052C2.49156 39.5617 2.41425 40.006 2.3421 40.409C2.26995 40.812 2.22357 41.0703 2.17204 41.401C2.1102 41.8298 2.05866 42.2638 2.00713 42.6927C1.97105 43.0078 1.92467 43.3178 1.89375 43.633C1.84737 44.1187 1.81644 44.6095 1.78037 45.0952C1.78037 45.3639 1.73399 45.6118 1.72368 45.896C1.68589 46.6125 1.66699 47.3324 1.66699 48.0557C1.66699 48.097 1.66699 48.1384 1.66699 48.1849C1.66746 50.1819 1.79484 52.1768 2.04835 54.1575C3.28717 64.0595 7.6727 73.2986 14.556 80.5076C17.1658 83.25 18.6204 86.8957 18.617 90.686V100.275C18.615 103.392 19.7673 106.399 21.8505 108.713C23.9338 111.027 26.7997 112.483 29.8929 112.799C30.3192 112.843 30.7475 112.866 31.1761 112.867H65.1894C65.618 112.866 66.0463 112.843 66.4726 112.799C68.0976 112.63 69.6735 112.142 71.1108 111.363H71.152C73.1403 110.282 74.8004 108.682 75.9569 106.733C77.1135 104.784 77.7236 102.559 77.7228 100.291V90.686C77.7357 87.924 78.5213 85.221 79.9903 82.8843C80.5479 81.9806 81.1954 81.1358 81.9229 80.363C84.1293 78.0258 86.0894 75.4669 87.7722 72.7266Z" fill="white" stroke="#174799" stroke-width="3" stroke-linecap="round" stroke-linejoin="round"/>
<path d="M62.9939 51.1867H45.3121L55.3872 19.2256L30.3359 58.0481H47.59L37.0922 90.0092L62.9939 51.1867Z" fill="#90B1DA" stroke="#174799" stroke-width="3" stroke-linecap="round" stroke-linejoin="round"/>
<path d="M48.167 155.006V167.959C48.167 172.019 49.7758 175.913 52.6394 178.784C55.5031 181.655 59.3871 183.268 63.4369 183.268H80.9898C85.0397 183.268 88.9236 181.655 91.7873 178.784C94.6509 175.913 96.2597 172.019 96.2597 167.959V117.325C96.2597 113.265 97.8685 109.371 100.732 106.5C103.596 103.63 107.48 102.017 111.53 102.017H129.907C132.881 102.017 135.789 102.887 138.277 104.521C140.764 106.154 142.721 108.48 143.909 111.213" stroke="#174799" stroke-width="3" stroke-linecap="round" stroke-linejoin="round"/>
<path d="M149.696 102.311L105.427 179.176C105.082 179.774 104.901 180.453 104.9 181.144C104.9 181.835 105.082 182.514 105.427 183.112C105.772 183.71 106.268 184.207 106.865 184.552C107.462 184.896 108.139 185.077 108.829 185.076H197.356C198.045 185.077 198.721 184.895 199.318 184.55C199.915 184.204 200.41 183.708 200.754 183.11C201.098 182.512 201.279 181.833 201.279 181.143C201.279 180.452 201.097 179.774 200.752 179.176L156.488 102.311C156.144 101.714 155.649 101.217 155.053 100.872C154.457 100.527 153.781 100.346 153.092 100.346C152.404 100.346 151.728 100.527 151.132 100.872C150.535 101.217 150.04 101.714 149.696 102.311Z" fill="#17479B" stroke="#174799" stroke-width="3" stroke-linecap="round" stroke-linejoin="round"/>
<path d="M153.093 175.952C155.387 175.952 157.247 174.088 157.247 171.788C157.247 169.488 155.387 167.624 153.093 167.624C150.799 167.624 148.939 169.488 148.939 171.788C148.939 174.088 150.799 175.952 153.093 175.952Z" fill="#90B1DA" stroke="white" stroke-width="3" stroke-linecap="round" stroke-linejoin="round"/>
<path d="M153.289 162.462C152.752 162.462 152.234 162.258 151.841 161.89C151.448 161.523 151.209 161.02 151.171 160.483L149.109 130.62C149.09 130.328 149.13 130.036 149.227 129.762C149.325 129.487 149.478 129.235 149.676 129.022C149.875 128.809 150.115 128.639 150.382 128.522C150.649 128.406 150.937 128.346 151.228 128.346H155.386C155.677 128.346 155.965 128.406 156.232 128.522C156.499 128.639 156.739 128.809 156.938 129.022C157.136 129.235 157.289 129.487 157.387 129.762C157.484 130.036 157.524 130.328 157.505 130.62L155.443 160.483C155.405 161.027 155.16 161.535 154.759 161.903C154.359 162.271 153.832 162.471 153.289 162.462Z" fill="#90B1DA" stroke="white" stroke-width="3" stroke-linecap="round" stroke-linejoin="round"/>
</svg>
