<svg width="264" height="36" fill="none" xmlns="http://www.w3.org/2000/svg"><path d="M204.293 1.927l-4.262 4.254v.014l4.262 4.254-4.262 4.255v.008l4.262 4.256 8.533-8.52-8.533-8.52zm-8.532 0l4.258 4.254v.014l-4.258 4.254 4.258 4.255v.008l-4.258 4.256-8.534-8.52 8.534-8.52zm-57.082 33.759v-8.774h-2.582v-2.717h8.299v2.717h-2.58v8.774h-3.137zm7.247 0V24.195h7.058v2.515h-3.997v1.997h3.77v2.463h-3.77v1.935h3.997v2.575l-7.058.006zm17.475-11.053v3.43c-.434-.477-.859-.825-1.285-1.049a2.91 2.91 0 00-1.373-.333c-.906 0-1.631.31-2.19.92-.559.611-.839 1.414-.839 2.405 0 .925.288 1.687.852 2.298.565.612 1.298.91 2.179.91.478.003.95-.112 1.373-.336.426-.22.852-.574 1.285-1.056v3.436c-.477.23-.975.411-1.488.542a6.653 6.653 0 01-3.236-.049 4.838 4.838 0 01-1.466-.681 5.72 5.72 0 01-1.965-2.167c-.453-.88-.676-1.863-.676-2.958a6.455 6.455 0 01.427-2.397 5.8 5.8 0 011.297-1.961 5.334 5.334 0 011.842-1.254 6.001 6.001 0 012.281-.413 6.45 6.45 0 011.497.176 7.92 7.92 0 011.488.54l-.003-.003zm1.773 11.056V24.195h3.134v4.468h4.188v-4.468h3.142v11.491h-3.142v-4.679h-4.188v4.68l-3.134.002zm21.255-11.053v3.43a4.564 4.564 0 00-1.285-1.048 2.893 2.893 0 00-1.37-.334c-.903 0-1.634.31-2.191.921-.556.61-.843 1.41-.843 2.403 0 .925.284 1.687.857 2.298.572.611 1.293.91 2.172.91.477.003.948-.113 1.369-.336.433-.22.86-.574 1.285-1.056v3.436c-.475.23-.972.412-1.484.542a6.644 6.644 0 01-3.233-.05 4.913 4.913 0 01-1.471-.68 5.77 5.77 0 01-1.962-2.169 6.406 6.406 0 01-.676-2.958 6.493 6.493 0 01.43-2.4 5.82 5.82 0 011.293-1.96 5.455 5.455 0 011.849-1.255 6.001 6.001 0 012.284-.412 6.46 6.46 0 011.497.175c.512.13 1.009.31 1.483.54l-.004.003zm13.599 5.329a5.834 5.834 0 01-1.794 4.265 6.287 6.287 0 01-2.013 1.306 6.215 6.215 0 01-6.7-1.306 5.812 5.812 0 01-1.35-1.948 6.115 6.115 0 010-4.635 5.843 5.843 0 011.35-1.95 6.185 6.185 0 011.987-1.306 6.321 6.321 0 014.724 0 6.206 6.206 0 012.002 1.306 6.034 6.034 0 011.327 1.945c.311.736.467 1.528.46 2.326l.007-.003zm-6.157 3.38a2.773 2.773 0 002.158-.959c.571-.645.857-1.45.857-2.418 0-.967-.29-1.767-.869-2.417a2.885 2.885 0 00-4.301 0c-.569.64-.855 1.45-.855 2.417 0 .984.278 1.79.839 2.424.561.634 1.286.954 2.172.954h-.001zm21.322 2.345h-2.931l-.677-4.978a27.01 27.01 0 01-.128-1.168 48.66 48.66 0 01-.111-1.407 13.618 13.618 0 01-.432 1.826c-.05.152-.078.264-.1.335l-1.564 5.386h-2.093l-1.569-5.386c-.02-.075-.053-.183-.088-.335a12.183 12.183 0 01-.432-1.817c-.033.435-.07.864-.108 1.289-.038.424-.098.857-.152 1.277l-.676 4.971h-2.922l1.78-11.491h3.104l1.74 5.927c.012.038.034.108.061.204a7.4 7.4 0 01.309 1.356c.022-.229.061-.456.115-.68.06-.243.134-.549.237-.893l1.755-5.914h3.108l1.774 11.498z" fill="#EA2127"/><path d="M219.778 28.802h.626c.782 0 1.313-.088 1.602-.264.289-.175.434-.46.434-.88 0-.418-.135-.736-.41-.915-.275-.178-.793-.263-1.573-.263h-.679v2.322zm-2.906 6.905V24.203h3.153c1.297 0 2.208.042 2.724.123.467.068.918.214 1.336.432.403.222.738.55.969.948.229.42.344.894.333 1.373 0 .66-.164 1.174-.496 1.561-.332.387-.871.674-1.596.872.816.066 1.457.352 1.916.865.459.512.694 1.19.694 2.045a3.26 3.26 0 01-.389 1.619c-.256.463-.644.84-1.115 1.083a4.594 4.594 0 01-1.453.446c-.576.091-1.522.137-2.836.136l-3.24.001zm2.906-2.347h1.104c.743 0 1.273-.097 1.58-.282.308-.184.465-.498.465-.93 0-.481-.141-.815-.425-1.007-.285-.192-.81-.291-1.572-.291h-1.152v2.51zm11.067-1.956h3.124l-1.172-3.79c-.033-.118-.088-.306-.145-.558-.058-.253-.146-.586-.25-.992-.064.285-.13.554-.199.809-.068.255-.131.5-.198.741l-1.16 3.79zm-4.404 4.303l3.978-11.504h3.936l3.981 11.504h-3.126l-.582-2.063h-4.463l-.599 2.063h-3.125zm12.993 0V24.203h3.028l4.354 5.92c.082.117.22.357.414.722.193.366.399.797.63 1.302a24.366 24.366 0 01-.135-1.28 12.37 12.37 0 01-.045-.984v-5.68h3.016v11.504h-3.013l-4.352-5.943a7.242 7.242 0 01-.421-.723 28.82 28.82 0 01-.622-1.287c.058.484.108.91.137 1.281.029.372.041.704.041.993v5.68h-3.032zm13.731 0V24.203h3.106v5.222l3.656-5.222h3.659l-4.257 5.612 4.628 5.893h-3.925l-3.755-5.166v5.165h-3.112z" fill="#231F20"/><path d="M40.721 19.454v-6.596h.816v6.596h-.816zm4.664 0v-6.596h1.057l2.185 5.507h.018v-5.507h.815v6.596h-1.122l-2.12-5.343H46.2v5.343h-.815zm9.931-5.878v5.878H54.5v-5.878h-1.659v-.718h4.14v.72l-1.666-.002zm5.052 5.878v-6.596h3.415v.72h-2.6v2.07h2.452v.72h-2.452v2.366h2.711v.72h-3.526zm7.062 0v-6.596h2.137c.525 0 .938.146 1.24.44.303.293.454.698.454 1.215.008.371-.075.74-.241 1.071a1.128 1.128 0 01-.778.591v.019a.96.96 0 01.666.352c.167.212.26.474.264.744l.056 1.127c.003.244.04.487.11.72a.634.634 0 00.241.314h-.976c-.117-.117-.191-.434-.222-.951l-.055-1.026a1.616 1.616 0 00-.107-.527.551.551 0 00-.25-.291 1.186 1.186 0 00-.296-.111 1.66 1.66 0 00-.328-.028h-1.101v2.937h-.814zm.814-5.932v2.326h.806c.142 0 .254-.003.337-.009a1.73 1.73 0 00.343-.074.831.831 0 00.347-.189c.103-.11.182-.24.231-.383.072-.197.107-.406.102-.616a.984.984 0 00-.314-.771c-.21-.188-.503-.281-.88-.281l-.971-.003zm6.765 5.932v-6.596h1.057l2.184 5.507h.019v-5.507h.814v6.596h-1.122l-2.119-5.341h-.018v5.341h-.815zm7.311 0l1.906-6.596h1.093l1.776 6.596h-.852l-.472-1.81h-2.114l-.486 1.81h-.85zm2.425-5.664l-.916 3.188h1.78l-.842-3.188h-.022zm7.598-.214v5.878h-.815v-5.878h-1.657v-.718h4.14v.72l-1.668-.002zm5.053 5.878v-6.596h.815v6.596h-.815zm5.779-6.524a2.185 2.185 0 011.842 0c.243.12.454.298.616.516.165.24.287.505.361.786.086.3.144.608.176.919a10.83 10.83 0 010 2.005 5.23 5.23 0 01-.176.92c-.074.28-.196.546-.361.784a1.726 1.726 0 01-.616.518 2.189 2.189 0 01-1.842 0 1.72 1.72 0 01-.617-.518 2.505 2.505 0 01-.361-.785 5.419 5.419 0 01-.176-.919 10.833 10.833 0 010-2.005c.032-.311.091-.619.176-.92.074-.28.196-.546.361-.785.162-.218.373-.396.617-.517zm1.591.664a1.207 1.207 0 00-1.341 0 1.21 1.21 0 00-.394.616 4.22 4.22 0 00-.171.855c-.027.293-.041.655-.041 1.086 0 .43.014.793.041 1.086.027.29.085.577.171.855.065.24.202.456.394.616a1.207 1.207 0 001.341 0c.192-.16.33-.375.394-.616.087-.278.144-.565.171-.855.028-.293.041-.655.041-1.086 0-.431-.013-.793-.041-1.085a4.155 4.155 0 00-.171-.855 1.206 1.206 0 00-.394-.617zm5.215 5.86v-6.596h1.057l2.184 5.507h.019v-5.507h.814v6.596h-1.119l-2.12-5.341h-.018v5.341h-.817zm7.311 0l1.906-6.596h1.092l1.777 6.596h-.852l-.472-1.81h-2.114l-.485 1.81h-.852zm2.425-5.664l-.916 3.188h1.777l-.842-3.188h-.019zm5.59 5.664v-6.596h.814v5.877h2.684v.72h-3.498zm-84.586-9.347V1.524h2.026v3.21h1.614v-3.21h2.026v8.584H44.36v-3.67h-1.616v3.666l-2.024.003zm12.745-5.296c.013.269.019.603.019 1.004 0 .4-.006.735-.019 1.003a9.96 9.96 0 01-.088.914 4.153 4.153 0 01-.183.848 3.46 3.46 0 01-.344.685c-.135.22-.318.407-.535.547a2.964 2.964 0 01-.782.33c-.35.094-.71.138-1.072.133a3.8 3.8 0 01-1.337-.21 2.25 2.25 0 01-.88-.565c-.237-.276-.41-.6-.504-.952-.12-.396-.2-.802-.24-1.214-.041-.41-.061-.917-.06-1.52 0-.604.02-1.111.06-1.521.04-.412.12-.82.24-1.215.095-.35.268-.675.505-.95.245-.255.547-.448.881-.565a3.78 3.78 0 011.337-.208c.362-.005.723.04 1.072.132.274.073.536.184.778.331.217.141.4.328.536.548.14.214.255.444.343.685.092.275.154.56.187.848.045.34.074.644.086.912zM49.703 3.34c-.112.425-.169 1.25-.168 2.477 0 1.226.057 2.051.168 2.476.112.426.361.638.746.637.386 0 .64-.21.765-.631.117-.421.176-1.249.176-2.483s-.059-2.062-.176-2.483c-.117-.42-.372-.631-.765-.631-.392 0-.64.212-.746.638zm13.521 1.162h-1.95c0-.657-.056-1.121-.169-1.394-.112-.272-.328-.408-.65-.409-.385 0-.628.203-.728.607-.1.405-.15 1.208-.15 2.411 0 1.33.052 2.198.156 2.602.105.405.362.607.77.607a.662.662 0 00.443-.141.894.894 0 00.253-.463c.057-.219.096-.442.114-.667.02-.235.03-.54.03-.914h1.95v.3c.008.437-.035.872-.125 1.299a2.993 2.993 0 01-.44 1.003c-.228.324-.551.57-.925.7-.41.156-.92.235-1.529.235a3.134 3.134 0 01-1.282-.235 2.19 2.19 0 01-.819-.595 2.504 2.504 0 01-.452-.997 7.32 7.32 0 01-.199-1.215 20.966 20.966 0 01-.042-1.479c0-.376.004-.69.012-.943a9.38 9.38 0 01.079-.88c.032-.283.093-.563.18-.835.087-.242.2-.474.338-.692.134-.225.317-.418.535-.564.241-.151.503-.266.777-.343a3.738 3.738 0 011.066-.138c.915 0 1.603.218 2.065.655.461.437.692 1.148.692 2.134v.351zm.916 5.605V1.524h2.025v3.21h1.614v-3.21h2.026v8.584h-2.026v-3.67h-1.617v3.666l-2.023.003zm6.945 0V1.524h2.026v8.584l-2.026-.001zm6.503 0V1.524h2.962l1.057 5.638h.024l1.025-5.638h2.926v8.584h-1.878V3.424h-.024l-1.313 6.684h-1.565l-1.385-6.684h-.023v6.684l-1.806-.001zm9.342 0V1.524h2.027v8.584l-2.026-.001zm3.312 0V1.524h2.326l1.661 5.578h.024V1.524h1.878v8.584h-2.29l-1.77-5.915h-.024v5.915l-1.805-.001zm7.138 0V1.524h2.027v3.21h1.613v-3.21h2.026v8.584h-2.026v-3.67h-1.617v3.666l-2.022.003zm15.592-5.605h-1.95c0-.657-.056-1.121-.168-1.394-.112-.272-.329-.408-.65-.409-.385 0-.628.203-.728.607-.101.405-.151 1.208-.151 2.411 0 1.33.052 2.198.157 2.602.104.405.361.607.77.607a.662.662 0 00.446-.144.895.895 0 00.253-.463c.057-.218.095-.442.114-.667.02-.235.03-.54.03-.914h1.951v.3c.005.438-.038.874-.131 1.302a2.988 2.988 0 01-.44 1 1.896 1.896 0 01-.928.697c-.411.156-.921.234-1.529.235a3.132 3.132 0 01-1.278-.229 2.182 2.182 0 01-.818-.595 2.494 2.494 0 01-.452-.998 7.34 7.34 0 01-.199-1.214 21.114 21.114 0 01-.042-1.479c0-.376.004-.69.012-.943a9.01 9.01 0 01.078-.88 4.34 4.34 0 01.181-.835c.087-.242.2-.474.337-.692.135-.225.318-.418.536-.564.241-.151.503-.266.777-.343a3.73 3.73 0 011.065-.138c.915 0 1.604.218 2.065.655.462.437.692 1.148.692 2.134v.351zm.952 5.605V1.524h2.026v8.584l-2.026-.001zm4.562 0V3.159h-1.805V1.524h5.637v1.635h-1.806v6.948h-2.026zm6.117 0V6.729l-2.179-5.205h2.239l.963 3.185h.023l.988-3.185h2.167l-2.179 5.206v3.378l-2.022-.001z" fill="#010101"/><path d="M40.721 35.637V22.005h5.55l1.128 8.344h.038l1.242-8.344h5.432v13.632h-3.598v-9.932h-.038l-1.684 9.932h-2.753l-1.683-9.93h-.038v9.93H40.72zm21.305 0l-.422-2.082h-2.562l-.386 2.082h-3.935l3.232-13.632h4.8l3.214 13.632h-3.941zm-.842-5.06l-.822-5.594h-.038l-.881 5.594h1.741zm5.393 5.06V22.005h5.737c2.511 0 3.767 1.19 3.767 3.57 0 1.973-.759 3.068-2.276 3.284v.038c.841.064 1.447.427 1.817 1.09.242.432.363 1.208.364 2.329v1.122c0 .84.058 1.375.176 1.604a.873.873 0 00.401.401v.194h-4.051c-.194-.231-.291-.888-.291-1.97 0-.23-.01-.57-.03-1.022a28.503 28.503 0 01-.028-1.003c0-.547-.083-.913-.248-1.098-.166-.184-.434-.275-.806-.272h-.704v5.365h-3.828zM70.4 24.753v2.995h.555c.867 0 1.3-.535 1.3-1.605 0-.534-.117-.9-.352-1.097-.235-.197-.587-.296-1.057-.296l-.446.003zm13.58 10.884l-.422-2.082h-2.562l-.383 2.082h-3.939l3.232-13.632h4.8l3.212 13.632H83.98zm-.842-5.06l-.823-5.594h-.038l-.88 5.594h1.74zm4.571-5.369V22h9.025v3.208h-2.6v10.429h-3.825v-10.43h-2.6zm15.355 1.722v-4.925h3.825v13.632h-3.825v-5.502h-1.836v5.502h-3.824V22.005h3.824v4.925h1.836zm22.146 3.396V22h3.596v13.637h-4.093l-2.123-8.402h-.038v8.402h-3.48V22.005h4.149l1.95 8.325.039-.004zm-16.917 2.261c-.144-.818-.216-2.05-.216-3.7.001-1.648.073-2.881.216-3.699.144-.817.419-1.487.825-2.011.734-.916 2.005-1.374 3.813-1.374 1.809 0 3.08.458 3.814 1.374.405.524.681 1.194.825 2.011.144.818.216 2.05.216 3.7 0 1.648-.072 2.88-.216 3.699-.144.818-.419 1.488-.825 2.011-.734.916-2.005 1.374-3.814 1.374-1.808 0-3.079-.458-3.813-1.374-.404-.523-.679-1.193-.825-2.011zm5.562-3.7c0-2.145-.046-3.46-.138-3.944-.091-.444-.353-.667-.786-.668-.432 0-.694.222-.786.668-.092.484-.138 1.8-.138 3.945 0 2.145.046 3.46.138 3.944.092.445.354.668.786.668.433 0 .695-.223.786-.668.092-.484.138-1.8.138-3.944z" fill="#E82128"/><path d="M6.694 7.26l-.817.047v.808a1.157 1.157 0 01.817-.855z" fill="#E82127"/><path d="M6.762 7.127l-1.014.051-.007 1.07.047-.008.016-1.02.96-.049-.002-.044zM6.53 9.438a1.085 1.085 0 01-.66-.792l-.005.885s.356-.056.665-.093z" fill="#E82127"/><path d="M5.744 9.66a6.59 6.59 0 01.995-.144.081.081 0 000-.037 7.81 7.81 0 00-.952.131l-.005-1.08h-.04l.002 1.13zm-3.426 2.635H1.89v.544h.424l.005-.544zm-.065.49h-.304v-.434h.31l-.006.434z" fill="#E82127"/><path d="M15.26 13.525h-1.984l.017 2.055h-2.585v-2.313l-2.475.005-.02 2.308H8l.063-4.222-.013-1.094-.155-.044-.144.005.01 5.356h-.559l.049-5.237v-.063l-.118-.062H6.98l-.012 5.365h-.105c.007-.817.017-1.956.017-2.15.006-.83-.464-1.44-1.246-1.436-.951 0-1.263.967-1.268 1.354l-.01 2.232h-.149l.039-5.2h-.251l-.043 5.2h-.534l.044-4.868v-.3h-.225l-.044 5.172h-.34l.01-2.234h-1.78l-.023 2.231H.521v13.709c0 .631.278 1.11.617 1.062l.598-.219c.982-.356 2.044-2.073 3.184-3.71 1.14-1.636 2.301-1.736 3.27-2.229.97-.492 1.39-1.507 2.332-2.57 1.245-1.402 2.528-2.256 2.438-2.594-.182-.686-.162-1.822.749-2.675.407-.381 1.006-.652 1.546-.837l.004-1.997zM2.58 15.579H1.34v-1.89h1.24v1.89zm4.007 0H4.634c0-.674.008-2.074.011-2.164 0-.378.133-1.214.88-1.247.646-.026 1.087.521 1.083 1.327-.004.188-.01 1.29-.019 2.084zm3.745 0H8.609v-1.957h1.724v1.957zm3.25 0V13.82h1.374v1.76h-1.374zm-5.965-7.2c0-.44-.328-.792-.732-.792-.403 0-.734.352-.734.792 0 .44.328.791.734.791.406 0 .732-.35.732-.791zm-1.313.059l-.006-.088.542-.024-.08-.683.078-.015.13.693.191-.005-.005.141L7 8.46l.014.168-.122.014-.03-.187-.56-.017zm4.102-1.388L9.12 6.4l-.006.156 1.285.622.007-.127z" fill="#E82127"/><path d="M9.603 12.736v-.573l-.487.009-.006.573.493-.008zm-.422-.509l.363-.006v.446l-.361.007-.002-.447zM4.067 5.493l5.269-.31.001-.11-5.269.347v.073z" fill="#E82127"/><path d="M34.615.809H1.666A1.153 1.153 0 00.521 1.952v9.557h.237v-.168h.411v.136l1.145-.017.821-.395v-.786l.252-.01.176.106v.02l.347-.008v-.107l.257-.018.14.054v.062h.283l.39-.176.017-3.229-.072-.067-.338-.127v-.13l-.039-.055-.073-.032V6.49l.5-.028.05-.516-.155-.066-.265-.117L4 5.499v-.038l-.055-.011.005-.1 3.398-.784H7.34l.27-2.08.146 1.568v.01l.047.501 1.607.42 1.622 1.013v.043h-.047v.055l-.825.04s-.018 0-.032.03c-.013.032-.03.039-.033.05a.834.834 0 00-.03.091l-.01.313.034.1.489.263-.008.041s-.061-.005-.076.013a.494.494 0 00-.033.049v.134l-.282.01v.059l-.089.037.006 2.61 2.421.663h.745v.756l.793.38 1.737.044v-.154h.335l.018.528 2.174-.145.772.39.663-.08.073-.07a26.463 26.463 0 012.035-1.707c.506-.379 1.178-.602 1.497-.497.32.106.388.02.157-.19-.23-.21-.756-.778-1.166-1.254 0 0-.032-.037-.293-.518-.323-.595-.423-.86-.52-.852-.095.008-1.175.12-2.063.196-.888.076-2.765.86-2.907.968-.142.107-.271.471-.386.715a4.261 4.261 0 01-.446.703c-.158.209-.514.149-.434-.286.08-.436.31-.716.116-.704-.194.012-.635.06-.91.352-.464.488-1.062.228-1.128.136-.066-.091-.147-.591-.045-.893.217-.643.616-1.08.969-1.252.203-.1.363-.07 1.176-.101.814-.031.56-.049 2.39-.946 1.08-.527 3.39-1.353 4.189-.943.62.365 1.22.763 1.8 1.19 1.09.792 1.36 1.365 2.216 2.051l.514.413c.346.373.756.63.914.57l.083-.137c.135-.226-.043-1.47.793-2.057.515-.361 1.362-.662 2.202-.189.947.538 1.805 2.431.947 3.371l-.23.255c-.078.092-.215.534-.305.981l-.014.06c-.015.06-.165.106-.225.098l-.088-.014c-.13-.088-.641.183-.824.364l-.34.335h-.006l-.014.011a9.644 9.644 0 01-.312.165l-.155-.076-.909-.446c-.088-.51-.148-.412-.126.219 0 0 .016.431 1.203.64l.296.051c.193 0 .881 1.099 1.034 1.59.152.492.679.577 1.18.191 0 0 2.002-1.549 2.079-1.789.076-.24.066-.142.077-.688.012-.546.08-1.461.653-1.622.451-.128.275.684.47.169.062-.163-.023-.317.337-.428l.134-.043c.176.13.324-.28.324-.912V1.952A1.15 1.15 0 0034.615.81z" fill="#E82127"/><path d="M9.064 6.372l-4.429.255.01.094.062.05 4.346-.248.011-.151zm1.876-.361l-1.542-.927-.002.106 1.545.875V6.01zm-2.871 1.03l-1.027.062v.042l.988-.06-.003 1.092.037-.002.005-1.134zm-2.087 3.767l-.692.018-.013 1.064h.705v-1.082zm-.11.974h-.476l.007-.859h.483l-.015.86zm2.054-2.31l.005-.676a1.117 1.117 0 01-.6.625c.291.021.595.051.595.051z" fill="#E82127"/><path d="M7.945 7.185l-.857.05a1.073 1.073 0 01.85.734l.007-.784zm.101 2.412c.015-.44.018-1.152.018-1.152h-.037l-.018 1.103a6.56 6.56 0 00-.999-.08v.039c.348 0 .694.03 1.036.09z" fill="#E82127"/><path d="M34.892 13.436l-.11.132c-.142.168-.367.527-.694 1.07a21.868 21.868 0 01-1.891 2.617c-.845 1.006-1.31 1.117-1.727 1.017-.264-.064-.753-.623-1.163-1.128v1.027h-.471v-1.62l-.097-.119c-.3-.39-.578-.796-.834-1.216a1.287 1.287 0 00-1.629-.475l-4.569 2.565c-.593.218-2.515-.088-3.134-.142-.62-.054-.689.176-.155.515 0 0 4.168 2.639 5.58 4.695.747 1.087 1.531 1.992 1.052 2.99-.48.999-2.851 1.686-4.093 1.948-1.242.263-3.13.541-3.927.766-.797.224-.965.99-1.006 1.227a3 3 0 00.122 1.324c.165.446.343.866.539 1.104.195.237.264.791-.275.88-.54.087-1.746-1.017-1.877-1.263-.295-.55-.338-1.237-.662-1.833-.323-.595-1.102-.925-.98-1.782.067-.465.646-.692 1.494-.785.848-.092 1.541-.245 2.79-.88.954-.488 1.11-.65 1.653-1.105.545-.456.91-.528.91-.528.616-.125.646-.422.06-.66-.44-.192-.868-.41-1.283-.654-.837-.473-3.394-2.453-3.394-2.453-.5-.387-.842-.416-.76-.066.08.35.725.753.725.753a1.296 1.296 0 01-.15 1.694c-.505.46-1.04.886-1.602 1.276-1.157.78-1.835 1.362-2.473 1.77-.705.454-1.064.295-1.531.562-.435.249-.96.528-2.384 1.62-.6.463-1.565 1.196-2.251 1.741-.94.749-2.007 1.3-2.912 2.944-.328.597-.632 1.638-.548 2.242l.031.231c.057.123.099.252.126.384 0 .034.436.176 1.068.176h23.01v-.474h2.595v.474h.13v-.723h1.814v.723h.133v-.474h2.593v.474h1.88a1.153 1.153 0 001.146-1.144v-20.94c.003-.629-.39-.844-.869-.477zM31.897 34.91v.183h-.904v-.183h.905zM28.62 18.258h.857v2.047h-.857v-2.047zm-1.747 14.126h.73v2.714h-.289v-.264h-.44v-2.45zm-.568 2.531h.89v.182h-.89v-.182zm1.303.533h-1.692v-.27h1.692v.27zm.414 0h-.292V32.3h-.412v-2.907h.705l-.001 6.055zm.429-.25h-.307v-5.885h-.413v-6.05h.72v11.935zm.398 0h-.292V23.155h-.413v-1.683h.705v13.725zm.363 0h-.24V21.39h-.459v-.988h1.124v2.254h-.423l-.002 12.542zm.413 0h-.292V22.754h.705v4.31h-.413v8.133zm.413-6.984v6.984h-.282v-8.053h.695v1.066l-.413.003zm.413 7.234h-.285v-7.11h.704v3.413h-.418v3.697zm.12-3.588h.76v2.977h-.462v.264h-.297l-.001-3.241zm1.718 3.318v.27h-1.716v-.272h1.716v.002z" fill="url(#paint0_linear)"/><path d="M132.815 1.542h-.485v34.092h.485V1.542z" fill="#E82128"/><defs><linearGradient id="paint0_linear" x1="18.492" y1="8.225" x2="18.492" y2="38.48" gradientUnits="userSpaceOnUse"><stop stop-color="#FDEF3D"/><stop offset=".03" stop-color="#FCE533"/><stop offset=".11" stop-color="#FAD221"/><stop offset=".19" stop-color="#F8C717"/><stop offset=".28" stop-color="#F8C313"/><stop offset=".67" stop-color="#EE8C40"/><stop offset=".89" stop-color="#EA693C"/><stop offset="1" stop-color="#E53F3A"/></linearGradient></defs></svg>