<svg width="370" height="50" fill="none" xmlns="http://www.w3.org/2000/svg"><path d="M286.206 1.57l-5.985 6.044v.039l5.985 6.044-5.985 6.044 5.985 6.044 12.01-12.088-12.01-12.127zm-11.97 0l5.985 6.044v.039l-5.985 6.044 5.985 6.044-5.985 6.044-11.971-12.088L274.236 1.57zm-80.18 47.959V37.088h-3.615v-3.846h11.66v3.846h-3.614v12.48h-4.431v-.039zm10.183 0V33.202h9.91v3.572h-5.596V39.6h5.285v3.493h-5.285v2.747h5.596v3.65h-9.91v.039zm24.524-15.699v4.867c-.622-.667-1.205-1.177-1.788-1.491a4.069 4.069 0 00-1.943-.471c-1.283 0-2.293.431-3.071 1.295-.777.863-1.166 2.001-1.166 3.414 0 1.295.389 2.394 1.205 3.258.816.863 1.827 1.295 3.071 1.295.699 0 1.321-.157 1.943-.471.583-.314 1.205-.824 1.788-1.492v4.867c-.7.353-1.399.589-2.099.785a9.56 9.56 0 01-4.547-.078c-.739-.197-1.438-.55-2.06-.982-1.205-.824-2.138-1.844-2.76-3.06-.621-1.257-.932-2.63-.932-4.2 0-1.256.194-2.394.583-3.415.388-1.02 1.01-1.962 1.826-2.786a7.338 7.338 0 012.604-1.766c.972-.393 2.021-.589 3.187-.589.7 0 1.399.078 2.099.235.7.197 1.36.471 2.06.785zm2.487 15.699V33.202h4.392v6.358h5.869v-6.358h4.43V49.53h-4.43v-6.633h-5.869v6.633h-4.392zm29.888-15.699v4.867c-.583-.667-1.205-1.177-1.788-1.491a4.027 4.027 0 00-1.904-.471c-1.283 0-2.293.431-3.071 1.295-.777.863-1.166 2.001-1.166 3.414 0 1.295.389 2.394 1.205 3.258.816.863 1.827 1.295 3.07 1.295.7 0 1.322-.157 1.905-.471.622-.314 1.205-.824 1.788-1.492v4.867c-.7.353-1.399.589-2.099.785a9.56 9.56 0 01-4.547-.078c-.739-.197-1.438-.55-2.06-.982-1.205-.824-2.138-1.844-2.76-3.06-.621-1.257-.932-2.63-.932-4.2 0-1.256.194-2.394.621-3.415.389-1.02 1.011-1.962 1.827-2.786.777-.785 1.632-1.374 2.604-1.766.972-.393 2.021-.589 3.226-.589.7 0 1.399.078 2.099.235.583.197 1.282.471 1.982.785zm19.083 7.575c0 1.177-.195 2.276-.661 3.297-.427 1.02-1.049 1.923-1.865 2.747a8.675 8.675 0 01-2.838 1.845 8.564 8.564 0 01-3.303.667 8.573 8.573 0 01-3.304-.667 8.925 8.925 0 01-2.798-1.845c-.855-.824-1.477-1.727-1.905-2.787-.427-1.02-.621-2.119-.621-3.296 0-1.178.194-2.277.621-3.297a8.283 8.283 0 011.905-2.787 8.929 8.929 0 012.798-1.844 8.72 8.72 0 013.304-.667c1.166 0 2.254.235 3.303.667 1.05.432 2.021 1.06 2.799 1.844.816.825 1.438 1.727 1.865 2.748a8.6 8.6 0 01.7 3.375zm-8.628 4.827c1.204 0 2.215-.47 3.031-1.373.816-.903 1.205-2.041 1.205-3.454 0-1.374-.389-2.512-1.205-3.454-.816-.902-1.827-1.373-3.031-1.373-1.205 0-2.216.47-3.032 1.373-.816.903-1.205 2.041-1.205 3.454 0 1.413.389 2.551 1.166 3.454.778.902 1.827 1.373 3.071 1.373zm29.926 3.297h-4.12l-.932-7.064c-.078-.51-.117-1.06-.195-1.649-.077-.588-.116-1.256-.155-2.001-.117.706-.311 1.57-.622 2.59l-.155.47-2.216 7.654h-2.954l-2.215-7.653a4.092 4.092 0 01-.117-.471 20.308 20.308 0 01-.621-2.59c-.039.628-.117 1.216-.156 1.844-.078.628-.155 1.217-.194 1.806l-.933 7.064h-4.12l2.488-16.327h4.353l2.448 8.439c0 .039.039.156.078.274.233.746.389 1.374.427 1.923.039-.275.078-.628.156-.98.078-.354.194-.786.35-1.257l2.448-8.398h4.353l2.604 16.326zm6.452-9.772h.894c1.088 0 1.827-.118 2.254-.354.389-.235.622-.667.622-1.255 0-.628-.194-1.06-.583-1.296-.389-.235-1.127-.392-2.215-.392h-.972v3.297zm-4.081 9.811V33.242h4.431c1.826 0 3.109.039 3.809.157.738.117 1.36.314 1.865.628.583.353 1.05.785 1.36 1.334.311.55.467 1.217.467 1.962 0 .942-.233 1.649-.7 2.237-.466.55-1.205.942-2.254 1.256 1.166.079 2.06.51 2.682 1.217.661.706.971 1.688.971 2.904 0 .864-.194 1.649-.544 2.316-.349.667-.894 1.177-1.554 1.53a6.83 6.83 0 01-2.021.628c-.816.118-2.138.197-3.965.197h-4.547v-.04zm4.081-3.336h1.555c1.049 0 1.787-.117 2.215-.392.427-.275.661-.707.661-1.335 0-.667-.195-1.177-.583-1.412-.389-.275-1.127-.432-2.216-.432h-1.632v3.571zm15.546-2.786h4.392l-1.671-5.377c-.039-.157-.117-.432-.195-.785a36.084 36.084 0 00-.349-1.413c-.078.393-.195.785-.272 1.138-.078.354-.195.707-.272 1.06l-1.633 5.377zm-6.179 6.122l5.596-16.326h5.519l5.597 16.326h-4.392l-.816-2.943h-6.258l-.855 2.943h-4.391zm18.228 0V33.242h4.236l6.102 8.398c.116.157.311.51.583 1.02.272.511.544 1.139.894 1.845-.078-.667-.156-1.295-.195-1.805-.039-.51-.077-.981-.077-1.413v-8.045h4.236v16.326h-4.236l-6.102-8.438c-.117-.157-.311-.51-.583-1.02-.272-.51-.544-1.138-.855-1.845.077.707.155 1.295.194 1.806.039.549.078.98.078 1.413v8.084h-4.275zm19.316 0V33.242h4.353v7.417l5.13-7.417h5.13l-5.985 7.967 6.49 8.36h-5.518l-5.286-7.34v7.34h-4.314zM56.472 26.491v-9.38h1.127v9.38h-1.127zm6.529 0v-9.38h1.477l3.07 7.81h.04v-7.81h1.126v9.38H67.16l-2.993-7.574h-.039v7.574h-1.127zm13.953-8.359v8.36h-1.127v-8.36h-2.332v-1.02h5.83v1.02h-2.371zm7.112 8.359v-9.38h4.78v1.02h-3.653v2.944h3.46v1.02h-3.46v3.376h3.81v1.02h-4.937zm9.911 0v-9.38h2.993c.738 0 1.321.197 1.749.628.427.432.622.981.622 1.727 0 .589-.117 1.099-.35 1.53a1.576 1.576 0 01-1.088.825v.04c.388.038.699.195.932.51.233.274.35.627.389 1.059l.078 1.61c.038.47.077.823.155 1.02.078.196.194.353.35.431h-1.36c-.156-.157-.273-.628-.311-1.334l-.078-1.452c0-.314-.078-.55-.156-.746-.077-.196-.194-.353-.35-.432a1.88 1.88 0 00-.427-.157c-.117-.039-.272-.039-.466-.039h-1.555v4.16h-1.127zm1.166-8.438v3.297h1.594c.116 0 .272-.04.466-.118a2.09 2.09 0 00.505-.274 1.45 1.45 0 00.311-.55c.078-.235.155-.55.155-.863 0-.471-.155-.825-.427-1.1-.31-.274-.7-.392-1.244-.392h-1.36zm9.483 8.438v-9.38h1.477l3.07 7.81h.039v-7.81h1.127v9.38h-1.554l-2.993-7.574h-.039v7.574h-1.127zm10.261 0l2.681-9.38h1.516l2.488 9.38h-1.205l-.661-2.59h-2.954l-.699 2.59h-1.166zm3.42-8.045l-1.283 4.513h2.488l-1.205-4.513zm10.649-.314v8.36h-1.127v-8.36h-2.332v-1.02h5.83v1.02h-2.371zm7.112 8.359v-9.38h1.127v9.38h-1.127zm8.123-9.261c.35-.197.816-.276 1.283-.276.505 0 .932.079 1.282.275s.661.432.855.746c.195.314.389.667.505 1.099.117.431.195.863.273 1.295.038.431.077.902.077 1.413 0 .51-.039.98-.077 1.413a5.122 5.122 0 01-.273 1.295 3.56 3.56 0 01-.505 1.099c-.194.314-.505.549-.855.745-.35.197-.816.275-1.282.275-.506 0-.933-.079-1.283-.275-.35-.196-.661-.431-.855-.745-.194-.314-.389-.668-.505-1.1a14.921 14.921 0 01-.272-1.294 15.407 15.407 0 01-.078-1.413c0-.51.039-.982.078-1.413.039-.432.116-.864.272-1.295a3.59 3.59 0 01.505-1.1c.194-.313.466-.549.855-.745zm2.215.941c-.233-.196-.544-.275-.932-.275-.389 0-.7.079-.933.275-.233.196-.428.47-.544.863a6.035 6.035 0 00-.233 1.217c-.039.432-.078.942-.078 1.53 0 .629.039 1.139.078 1.531.038.432.116.825.233 1.217.116.392.311.706.544.863.233.197.544.275.933.275.388 0 .699-.078.932-.275.234-.196.428-.47.544-.863.117-.392.195-.785.234-1.217a15.227 15.227 0 000-3.061 6.105 6.105 0 00-.234-1.217 1.336 1.336 0 00-.544-.863zm7.346 8.32v-9.38h1.477l3.07 7.81h.039v-7.81h1.127v9.38h-1.554l-2.993-7.574h-.039v7.574h-1.127zm10.261 0l2.681-9.38h1.516l2.488 9.38h-1.205l-.661-2.59h-2.954l-.699 2.59h-1.166zm3.42-8.045l-1.283 4.513h2.488l-1.205-4.513zm7.851 8.045v-9.38h1.127v8.36h3.77v1.02h-4.897zM56.472 13.226V1.02h2.837v4.553h2.254V1.02H64.4v12.206h-2.837v-5.22H59.31v5.22h-2.837zM74.35 5.69c0 .393.039.864.039 1.414 0 .588 0 1.06-.04 1.413 0 .392-.038.824-.116 1.295-.078.47-.155.902-.272 1.216a7.374 7.374 0 01-.466.981 2.845 2.845 0 01-.739.785c-.31.197-.66.354-1.088.471a5.692 5.692 0 01-1.516.197c-.738 0-1.36-.118-1.865-.314a3.575 3.575 0 01-1.244-.785c-.31-.354-.544-.785-.7-1.335a12.357 12.357 0 01-.35-1.727 31.683 31.683 0 01-.077-2.158c0-.864.039-1.57.078-2.159a6.493 6.493 0 01.35-1.727c.155-.549.388-1.02.7-1.334.31-.353.699-.589 1.243-.785.505-.196 1.127-.314 1.865-.314.583 0 1.05.079 1.516.196.428.118.816.275 1.088.471.311.197.544.432.739.785.194.314.35.668.466.982.117.313.195.706.272 1.216.078.393.117.824.117 1.217zm-5.286-2.08c-.155.59-.233 1.767-.233 3.533 0 1.727.078 2.904.233 3.532.156.589.505.903 1.05.903.544 0 .893-.314 1.088-.903.155-.589.233-1.766.233-3.532s-.078-2.944-.233-3.532c-.156-.589-.505-.903-1.088-.903-.545 0-.894.275-1.05.903zM88.07 5.259h-2.721c0-.942-.078-1.61-.233-1.962-.156-.393-.467-.589-.894-.589-.544 0-.894.275-1.01.863-.156.59-.195 1.727-.195 3.415 0 1.884.078 3.14.233 3.689.156.589.505.863 1.088.863a.982.982 0 00.622-.196c.156-.117.272-.353.35-.667.078-.314.117-.628.156-.942.038-.314.038-.746.038-1.295h2.721v.432a8.38 8.38 0 01-.194 1.844 3.84 3.84 0 01-.622 1.413 2.633 2.633 0 01-1.322.981c-.583.236-1.282.314-2.137.314-.7 0-1.322-.117-1.788-.314a3.37 3.37 0 01-1.166-.863 3.375 3.375 0 01-.622-1.413 9.355 9.355 0 01-.272-1.727 29.464 29.464 0 01-.078-2.12V5.652c0-.353.04-.784.117-1.255.078-.471.155-.864.272-1.178.117-.314.272-.628.466-.981.195-.353.467-.628.739-.785.31-.196.66-.353 1.088-.47a5.695 5.695 0 011.516-.197c1.282 0 2.254.314 2.915.942.66.628.971 1.648.971 3.022v.51h-.038zm1.282 7.967V1.02h2.837v4.553h2.254V1.02h2.838v12.206h-2.838v-5.22H92.19v5.22h-2.837zm9.755 0V1.02h2.838v12.206h-2.838zm9.134 0V1.02h4.158l1.477 8.007h.039l1.438-8.007h4.12v12.206h-2.643V3.728h-.039l-1.827 9.498h-2.215l-1.943-9.498h-.039v9.498h-2.526zm13.136 0V1.02h2.837v12.206h-2.837zm4.625 0V1.02h3.265l2.332 7.928h.038V1.02h2.643v12.206h-3.226l-2.487-8.399h-.039v8.399h-2.526zm10.066 0V1.02h2.838v4.553h2.254V1.02h2.837v12.206h-2.837v-5.22h-2.254v5.22h-2.838zm21.881-7.967h-2.72c0-.942-.078-1.61-.233-1.962-.156-.393-.467-.589-.894-.589-.544 0-.894.275-1.011.863-.155.59-.194 1.727-.194 3.415 0 1.884.078 3.14.233 3.689.156.589.505.863 1.088.863a.982.982 0 00.622-.196c.156-.117.272-.353.35-.667a7.7 7.7 0 00.155-.942c.039-.314.039-.746.039-1.295h2.721v.432c0 .706-.078 1.334-.194 1.844a3.84 3.84 0 01-.622 1.413 2.635 2.635 0 01-1.322.981c-.583.236-1.282.314-2.137.314-.7 0-1.322-.117-1.788-.314a3.374 3.374 0 01-1.166-.863 3.382 3.382 0 01-.622-1.413 9.405 9.405 0 01-.272-1.727 29.322 29.322 0 01-.078-2.12V5.652c0-.353.039-.784.117-1.255.078-.471.155-.864.272-1.178.117-.314.272-.628.466-.981a2.06 2.06 0 01.739-.785 3.95 3.95 0 011.088-.47 5.7 5.7 0 011.516-.197c1.282 0 2.254.314 2.915.942.66.628.971 1.648.971 3.022v.51h-.039zm1.322 7.967V1.02h2.837v12.206h-2.837zm6.413 0v-9.89h-2.526V1.02h7.928v2.316h-2.526v9.85h-2.876v.04zm8.589 0V8.399l-3.07-7.379h3.148l1.36 4.514h.039l1.399-4.514h3.032L177.11 8.4v4.788h-2.837v.039zM56.472 49.45V30.102h7.773l1.593 11.852h.04l1.748-11.852h7.618V49.45H70.19V35.36h-.039l-2.37 14.09h-3.887l-2.37-14.09h-.04v14.09h-5.013zm29.926 0l-.583-2.943h-3.614l-.544 2.943h-5.52l4.548-19.348h6.724l4.508 19.348h-5.519zm-1.205-7.182l-1.166-7.967h-.038l-1.244 7.967h2.448zm7.579 7.182V30.102h8.045c3.537 0 5.286 1.687 5.286 5.063 0 2.786-1.05 4.356-3.187 4.67v.04c1.166.078 2.021.588 2.565 1.53.35.628.505 1.727.505 3.297v1.609c0 1.177.078 1.962.233 2.276.156.275.35.47.583.589v.274h-5.713c-.272-.314-.388-1.256-.388-2.786 0-.314 0-.824-.039-1.452s-.039-1.1-.039-1.413c0-.785-.117-1.295-.35-1.57-.233-.275-.622-.392-1.127-.392h-1.01v7.613h-5.364zm5.363-15.424v4.278h.778c1.205 0 1.826-.745 1.826-2.276 0-.746-.155-1.295-.505-1.57-.35-.275-.816-.431-1.477-.431h-.622zm19.084 15.424l-.583-2.943h-3.615l-.544 2.943h-5.519l4.547-19.348h6.724l4.508 19.348h-5.518zm-1.166-7.182l-1.166-7.967h-.039l-1.244 7.967h2.449zm6.412-7.614v-4.552h12.671v4.552h-3.654V49.45h-5.363V34.654h-3.654zm21.571 2.434v-6.986h5.363V49.45h-5.363v-7.81h-2.566v7.81h-5.363V30.102h5.363v6.986h2.566zm31.092 4.827V30.102h5.053V49.45h-5.752l-2.993-11.93h-.039v11.93H166.5V30.102h5.83l2.72 11.813h.078zm-23.747 3.218c-.194-1.177-.311-2.904-.311-5.259 0-2.354.117-4.081.311-5.259.195-1.177.583-2.119 1.166-2.865 1.05-1.295 2.799-1.962 5.364-1.962 2.526 0 4.314.667 5.363 1.962.583.746.972 1.688 1.166 2.865.194 1.178.311 2.905.311 5.26 0 2.354-.117 4.081-.311 5.258-.194 1.178-.583 2.12-1.166 2.865-1.049 1.296-2.798 1.963-5.363 1.963-2.527 0-4.314-.667-5.364-1.963-.583-.745-.971-1.687-1.166-2.864zm7.812-5.259c0-3.06-.078-4.905-.194-5.612-.117-.628-.505-.942-1.088-.942-.622 0-.972.314-1.089.942-.116.707-.194 2.551-.194 5.612 0 3.062.078 4.906.194 5.613.117.628.506.942 1.089.942.621 0 .971-.314 1.088-.942.116-.668.194-2.551.194-5.613zM8.667 9.184l-1.127.078V10.4c.117-.627.583-1.098 1.127-1.216z" fill="#fff"/><path d="M8.784 8.988l-1.438.078v1.491h.039l.038-1.452 1.36-.078v-.04zm-.35 3.257a1.552 1.552 0 01-.933-1.138v1.256c0 .04.505-.04.933-.118z" fill="#fff"/><path d="M7.346 12.559s.66-.157 1.399-.196v-.04s-.7.04-1.322.197v-1.531h-.038l-.04 1.57zm-4.82 3.767h-.583v.785h.583v-.785zm-.077.668H2.02v-.628h.428v.628z" fill="#fff"/><path d="M20.715 18.053h-2.798l.039 2.905H14.34V17.66h-3.459l-.038 3.297h-.35l.077-6.005v-1.57l-.233-.078h-.194v7.614h-.777l.077-7.457v-.079l-.155-.04h-.233v7.615H8.9c0-1.178.04-2.787.04-3.061 0-1.178-.662-2.041-1.75-2.041-1.321 0-1.788 1.373-1.788 1.923v3.179h-.194l.039-7.379h-.35l-.078 7.379h-.738l.078-6.908v-.431h-.311l-.117 7.378h-.466v-3.179H.777l-.039 3.179H0v19.466c0 .903.389 1.57.855 1.492l.855-.314c1.36-.51 2.876-2.944 4.47-5.26 1.593-2.315 3.225-2.472 4.586-3.178 1.36-.707 1.943-2.159 3.264-3.65 1.75-2.002 3.537-3.219 3.42-3.69-.271-.98-.233-2.59 1.05-3.806.583-.55 1.4-.942 2.177-1.178l.038-2.826zM2.876 20.997h-1.71v-2.669h1.749v2.669h-.039zm5.636 0h-2.76v-3.061c0-.55.194-1.727 1.244-1.766.933-.079 1.554.706 1.554 1.844 0 .275-.038 1.845-.038 2.983zm5.285 0h-2.41V18.21h2.41v2.787zm4.547 0v-2.512h1.944v2.512h-1.944zM9.95 10.754c0-.628-.467-1.139-1.011-1.139-.583 0-1.05.51-1.05 1.139 0 .628.467 1.138 1.05 1.138s1.01-.51 1.01-1.138zm-1.827.078v-.118l.777-.039-.116-.981.116-.04.194.982h.273v.196h-.234l.04.236h-.156l-.04-.275-.854.04zm5.752-1.962l-1.788-.942v.235l1.788.903V8.87z" fill="#fff"/><path d="M12.748 16.954v-.824h-.7v.824h.7zm-.583-.745h.505v.628h-.505v-.628zm-7.19-9.537l7.423-.471v-.157l-7.423.51v.118z" fill="#fff"/><path d="M47.882 0H1.632C.738 0 0 .746 0 1.648v13.58h.35v-.236h.583v.196l1.593-.039 1.166-.55v-1.098h.35l.233.157v.039h.505v-.157l.35-.04.195.08v.078h.388l.544-.236.04-4.592-.117-.078-.467-.196V8.36l-.039-.079-.116-.04v-.117l.7-.04.077-.745-.233-.078-.35-.157-.855-.432v-.04H4.82v-.156l4.78-1.1.39-2.943.194 2.237.078.707 2.254.588 2.293 1.453v.078h-.078v.079l-1.166.039s-.039 0-.039.04c0 .038-.039.038-.039.078l-.039.117v.432l.04.157.699.392v.079h-.117c-.039.04-.039.078-.039.078v.197h-.388v.078l-.117.04v3.689l3.42.941h1.05v1.06l1.127.55 2.448.078v-.235h.467l.039.745 3.07-.196 1.088.55.933-.118.117-.118c1.243-1.177 2.876-2.433 2.876-2.433.7-.55 1.67-.864 2.098-.707.428.157.544.04.234-.274a47.376 47.376 0 01-1.633-1.766s-.039-.04-.427-.746c-.467-.864-.583-1.217-.739-1.217-.116 0-1.632.157-2.915.275-1.243.118-3.886 1.216-4.08 1.373-.195.158-.39.668-.545 1.02a4.196 4.196 0 01-.621.982c-.234.314-.739.196-.622-.392.116-.628.427-1.02.155-.981-.272.039-.894.078-1.282.51-.661.706-1.477.314-1.594.196-.078-.118-.194-.824-.078-1.256.311-.903.855-1.53 1.36-1.766.273-.157.506-.118 1.672-.157 1.127-.04.777-.079 3.342-1.334 1.516-.746 4.78-1.924 5.869-1.335.233.118 1.321.824 2.526 1.688 1.516 1.138 1.905 1.923 3.11 2.904l.738.589c.466.55 1.05.902 1.282.824l.117-.196c.194-.314-.078-2.08 1.127-2.905.739-.51 1.905-.941 3.11-.274 1.32.745 2.526 3.453 1.32 4.788l-.31.353c-.117.118-.311.746-.428 1.413l-.038.078c-.04.079-.234.157-.311.157h-.117c-.194-.117-.894.275-1.166.51l-.466.471h-.04s-.232.118-.427.236l-.233-.118-1.4-.667c-.116-.706-.193-.589-.193.314 0 0 .038.628 1.67.903l.428.078c.272 0 1.244 1.57 1.438 2.277.195.706.972.824 1.672.274 0 0 2.798-2.198 2.915-2.55.116-.354.077-.197.116-.982 0-.785.117-2.08.933-2.316.622-.196.389.982.66.236.078-.236-.038-.432.467-.628l.194-.079c.233.197.467-.392.467-1.295V1.648C49.515.746 48.776 0 47.882 0z" fill="#fff"/><path d="M12.01 7.888l-6.219.393v.118l.078.078 6.102-.353.038-.236zm2.642-.51l-2.176-1.295v.157l2.176 1.217v-.079zM10.61 8.87l-1.438.078v.04l1.36-.08v1.57h.078V8.87zm-2.953 5.337l-.972.04v1.49h.972v-1.53zM7.5 15.581h-.66v-1.217h.66v1.217zm2.916-3.258v-.941a1.75 1.75 0 01-.855.902c.428-.039.855.04.855.04z" fill="#fff"/><path d="M10.416 9.066l-1.205.078c.544.079 1.01.51 1.205 1.06V9.066zm.155 3.414c.04-.628.04-1.648.04-1.648h-.04l-.038 1.57s-.856-.118-1.4-.118v.04s.583 0 1.438.156zm37.7 5.456l-.155.196c-.195.235-.506.746-.972 1.53-.272.432-1.205 1.963-2.643 3.729-1.205 1.413-1.827 1.57-2.41 1.452-.388-.078-1.049-.903-1.632-1.61v1.453h-.66V22.37a.58.58 0 00-.117-.157c-.506-.588-1.166-1.726-1.166-1.726-.467-.785-1.477-1.06-2.293-.667l-6.413 3.65c-.816.313-3.537-.118-4.392-.197-.855-.078-.971.236-.233.746 0 0 5.869 3.768 7.85 6.672 1.05 1.53 2.138 2.826 1.478 4.238-.661 1.413-4.003 2.394-5.752 2.787-1.75.392-4.392.785-5.52 1.099-1.127.314-1.36 1.413-1.398 1.727-.04.353-.078 1.177.155 1.883.233.628.466 1.217.738 1.57.272.354.35 1.139-.388 1.256-.739.118-2.449-1.452-2.643-1.805-.428-.785-.466-1.766-.933-2.59-.466-.864-1.554-1.296-1.36-2.551.078-.668.894-.982 2.099-1.1 1.204-.117 2.176-.352 3.925-1.255 1.36-.707 1.555-.942 2.332-1.57.777-.667 1.282-.746 1.282-.746.855-.196.894-.588.078-.942 0 0-.622-.274-1.788-.942-1.166-.667-4.78-3.492-4.78-3.492-.7-.55-1.166-.59-1.088-.079.116.51 1.01 1.06 1.01 1.06.544.706.428 1.805-.194 2.394 0 0-1.088 1.02-2.254 1.805-1.633 1.099-2.565 1.923-3.46 2.512-1.01.628-1.476.431-2.137.785-.622.353-1.36.745-3.342 2.315-.855.668-2.216 1.688-3.149 2.473-1.321 1.06-2.837 1.844-4.08 4.2-.467.863-.894 2.315-.778 3.178l.04.314c.116.236.193.51.193.55 0 .039.622.235 1.516.235h32.336v-.667h3.654V50h.194v-1.06h2.565v1.02h.195v-.666h3.653v.667h2.643c.894 0 1.632-.746 1.632-1.649v-29.71c-.194-.863-.777-1.177-1.438-.666zM44.074 48.43v.275H42.79v-.275h1.283zm-4.625-23.626h1.204v2.904H39.45v-2.904zM37 44.859h1.01v3.846h-.388v-.393H37V44.86zm-.777 3.571h1.243v.275h-1.243v-.275zm1.826.785h-2.37v-.392h2.37v.392zm.583 0h-.427v-4.474h-.583v-4.12h.971v8.594h.04zm.583-.353h-.427v-8.36h-.583v-8.595h1.01v16.955zm.583 0h-.427V31.75h-.583v-2.394h.972v19.506h.038zm.506 0h-.35V29.239h-.66v-1.413h1.554v3.218h-.583v17.818h.039zm.583 0h-.428V31.2h.972v6.083h-.583v11.578h.039zm.583-9.93v9.93h-.39v-11.46h.973v1.53h-.583zm.583 10.283h-.39V39.09h.973v4.867h-.584v5.26zm.155-5.102h1.05v4.239h-.661v.353h-.428v-4.592h.039zm2.41 4.71v.392h-2.41v-.392h2.41zM185.855 1.06h-.7v48.43h.7V1.06z" fill="#fff"/></svg>