<svg width="24" height="24" xmlns="http://www.w3.org/2000/svg"><path fill="none" d="M-1-1h26v26H-1z"/><path fill="#A7A7A7" d="M8.571 4h6.858A4.571 4.571 0 0120 8.571v6.858A4.571 4.571 0 0115.429 20H8.57A4.571 4.571 0 014 15.429V8.57A4.571 4.571 0 018.571 4zm.135 1.778h6.588a2.928 2.928 0 012.928 2.928v6.588a2.928 2.928 0 01-2.928 2.928H8.706a2.928 2.928 0 01-2.928-2.928V8.706a2.928 2.928 0 012.928-2.928zM16.444 12A4.444 4.444 0 0012 7.556 4.606 4.606 0 007.555 12a4.444 4.444 0 008.89 0zm-4.39-2.667a2.61 2.61 0 012.613 2.614 2.8 2.8 0 01-2.722 2.72 2.61 2.61 0 01-2.612-2.613 2.8 2.8 0 012.721-2.72zm4.391-1.778c0-.49-.199-.888-.445-.888-.245 0-.444.398-.444.888 0 .491.199.89.444.89.246 0 .445-.399.445-.89z" clip-rule="evenodd" fill-rule="evenodd" opacity=".4"/></svg>